STARTFONT 2.1
COMMENT
COMMENT Converted from OpenType font "Q:\font stuff\winfont\HerrVonMuellerhoff-Regular.ttf" by "otf2bdf 3.0".
COMMENT
FONT -FreeType-Herr Von Muellerhoff-Medium-R-Normal--84-840-72-72-P-440-ISO10646-1
SIZE 84 72 72
FONTBOUNDINGBOX 141 118 -31 -41
STARTPROPERTIES 19
FOUNDRY "FreeType"
FAMILY_NAME "Herr Von Muellerhoff"
WEIGHT_NAME "Medium"
SLANT "R"
SETWIDTH_NAME "Normal"
ADD_STYLE_NAME ""
PIXEL_SIZE 84
POINT_SIZE 840
RESOLUTION_X 72
RESOLUTION_Y 72
SPACING "P"
AVERAGE_WIDTH 440
CHARSET_REGISTRY "ISO10646"
CHARSET_ENCODING "1"
FONT_ASCENT 77
FONT_DESCENT 41
COPYRIGHT "Copyright (c) 2004 Alejandro Paul (sudtipos@sudtipos.com),  with Reserved Font Name "Herr Von Mullerhoff""
_OTF_FONTFILE "Q:\font stuff\winfont\HerrVonMuellerhoff-Regular.ttf"
_OTF_PSNAME "HerrVonMuellerhoff-Regular"
ENDPROPERTIES
CHARS 230
STARTCHAR 0020
ENCODING 32
SWIDTH 214 0
DWIDTH 18 0
BBX 0 0 0 0
BITMAP
ENDCHAR
STARTCHAR 0021
ENCODING 33
SWIDTH 309 0
DWIDTH 26 0
BBX 42 54 4 -1
BITMAP
000000000080
0000000001C0
0000000001C0
000000000380
000000000780
000000000F00
000000000F00
000000001E00
000000003C00
000000007800
000000007800
00000000F000
00000001E000
00000003C000
00000003C000
000000078000
0000000F0000
0000001E0000
0000003C0000
0000003C0000
000000780000
000000F00000
000001E00000
000001C00000
000003C00000
000007800000
00000F000000
00001E000000
00001C000000
000038000000
000078000000
0000F0000000
0000E0000000
0001C0000000
000380000000
000700000000
000F00000000
000E00000000
001C00000000
003800000000
007000000000
00E000000000
00C000000000
01C000000000
038000000000
000000000000
000000000000
000000000000
000000000000
000000000000
700000000000
F80000000000
F00000000000
E00000000000
ENDCHAR
STARTCHAR 0022
ENCODING 34
SWIDTH 297 0
DWIDTH 25 0
BBX 18 13 17 33
BITMAP
0030C0
0071C0
00F3C0
00E380
01C700
038E00
031C00
061800
0C3000
186000
30C000
610000
C20000
ENDCHAR
STARTCHAR 0023
ENCODING 35
SWIDTH 511 0
DWIDTH 43 0
BBX 36 25 7 3
BITMAP
0000018100
0000030300
0000030300
0000060600
00000C0C00
00001C1C00
0000181800
0000303000
0000606000
01FFFFFFF0
3FFFFFFF00
0001818000
0003030000
0006060000
000E0C00C0
00FFFFFFE0
FFFFFFF000
0030300000
0060600000
0040C00000
00C0800000
0181800000
0303000000
0606000000
0404000000
ENDCHAR
STARTCHAR 0024
ENCODING 36
SWIDTH 309 0
DWIDTH 26 0
BBX 40 64 -1 -11
BITMAP
0000000001
0000000003
0000000006
0000000006
000000000C
0000000008
0000000018
00000000F0
0000000F18
0000003808
000000E008
0000018008
0000030018
00000E0030
00000C0060
00001800C0
0000380180
0000380700
000030DE00
000038F800
000038F000
0000380000
0000380000
0000380000
00001C0000
00001C0000
00001C0000
00001C0000
00000E0000
00000E0000
00000E0000
00000F0000
0000070000
0000070000
0000070000
0000078000
0000078000
0000078000
0000078000
0000078000
0000078000
0000070000
00F8070000
01F8070000
03300F0000
06000E0000
0C000E0000
18001C0000
3000380000
3000300000
6000600000
6000C00000
6001800000
6003000000
600C000000
3DF0000000
0A00000000
1000000000
3000000000
6000000000
4000000000
C000000000
8000000000
8000000000
ENDCHAR
STARTCHAR 0025
ENCODING 37
SWIDTH 511 0
DWIDTH 43 0
BBX 42 49 3 -2
BITMAP
000000000200
00003C000600
0001C2000600
000706000C00
000C05001C00
00180D001800
007019003000
00E031007000
00C16100E000
01C3C300C000
038002018000
070002038000
060006070000
0E0004060000
0C000C0C0000
1C000C1C0000
180018380000
380038300000
300030600000
300060E00000
7000C1C00300
6001C1803C80
60038300C080
600706038100
600E0E070140
601C1C0E0240
6030181C0640
20C030380C40
1F0060707040
0000C0E040C0
0001C0E00080
000181C00080
000303800180
000603800100
000C07000300
001807000600
003006000600
00600E000C00
00E00C001C00
00C00C001800
018018003000
030018006000
06001800C000
0C0018018000
180018030000
3000180E0000
700008180000
E00007E00000
C00000000000
ENDCHAR
STARTCHAR 0026
ENCODING 38
SWIDTH 511 0
DWIDTH 43 0
BBX 57 64 -1 -3
BITMAP
000000000007FC00
0000000000F80600
0000000007C00600
000000003E001C00
00000000F8003800
00000003E0007000
0000000F8001E000
0000003E00C7C000
0000007C019F0000
000001F003FE0000
000003E003F80000
000007C003C00000
00000F0000000000
00001E0000000000
00003C0000000000
0000780000000000
0000F00000000000
0001E00000000000
0003E00000000000
0007C00000000000
0007800000000000
000F000000000000
000F000008000000
001E000018000000
001C000070000000
001C0000C0000000
001C000380000000
001C000E00000000
001C003800000000
001C00F000000000
000E1FC000000000
0000E70000000000
00001E0000000000
0000380000000000
0000F0000000FE00
0001E007FC038780
0003803EFE0E0180
000F00E00F980180
001E038007F00080
003C060003F00180
00780C1001F80180
00F01810037F0300
00E03030061FFC00
01E060200C008000
03C0C04018000000
0781C08030000000
0703810060000000
0E030300C0000000
1E03060380000000
1C07080600000000
3807300C00000000
3803C01800000000
7000003000000000
700000C000000000
6000018000000000
E000070000000000
E0000C0000000000
E000180000000000
C000600000000000
C001C00000000000
E007000000000000
601C000000000000
3FF0000000000000
1F80000000000000
ENDCHAR
STARTCHAR 0027
ENCODING 39
SWIDTH 226 0
DWIDTH 19 0
BBX 12 13 17 33
BITMAP
0030
0070
00F0
00E0
01C0
0380
0300
0600
0C00
1800
3000
6000
C000
ENDCHAR
STARTCHAR 0028
ENCODING 40
SWIDTH 250 0
DWIDTH 21 0
BBX 43 68 5 -6
BITMAP
0000000000E0
000000000380
000000000E00
000000003800
00000000E000
00000001C000
000000038000
0000000E0000
0000001C0000
000000380000
000000700000
000000E00000
000001C00000
000003800000
000007000000
00000E000000
00001C000000
000038000000
000070000000
0000E0000000
0001E0000000
0003C0000000
000380000000
000700000000
000F00000000
001E00000000
001C00000000
003C00000000
007800000000
007800000000
00F000000000
00E000000000
01E000000000
01C000000000
03C000000000
038000000000
078000000000
070000000000
0F0000000000
0E0000000000
1E0000000000
1E0000000000
1C0000000000
3C0000000000
3C0000000000
380000000000
780000000000
780000000000
700000000000
700000000000
F00000000000
F00000000000
E00000000000
E00000000000
E00000000000
E00000000000
E00000000000
E00000000000
E00000000000
E00000000000
E00000000000
E00000000000
600000000000
600000000000
600000000000
200000000000
200000000000
300000000000
ENDCHAR
STARTCHAR 0029
ENCODING 41
SWIDTH 428 0
DWIDTH 36 0
BBX 43 68 0 -6
BITMAP
000000000180
000000000080
0000000000C0
0000000000C0
0000000000C0
0000000000C0
0000000000E0
0000000000E0
0000000000E0
0000000000E0
0000000000E0
0000000000E0
0000000000E0
0000000000E0
0000000000E0
0000000000E0
0000000001E0
0000000001E0
0000000001C0
0000000001C0
0000000003C0
0000000003C0
000000000380
000000000780
000000000780
000000000F00
000000000F00
000000000E00
000000001E00
000000001E00
000000003C00
000000003C00
000000007800
000000007800
00000000F000
00000000F000
00000001E000
00000001C000
00000003C000
000000038000
000000078000
0000000F0000
0000000E0000
0000001C0000
0000003C0000
000000380000
000000700000
000000E00000
000001E00000
000003C00000
000003800000
000007000000
00000E000000
00001C000000
000038000000
000070000000
0000E0000000
0001C0000000
000380000000
000E00000000
001C00000000
003800000000
00E000000000
01C000000000
070000000000
1E0000000000
780000000000
C00000000000
ENDCHAR
STARTCHAR 002A
ENCODING 42
SWIDTH 369 0
DWIDTH 31 0
BBX 27 21 10 15
BITMAP
00003000
00006000
0000E000
0000C000
0001C000
078180E0
07C303C0
03E31F80
00F27C00
003DE000
000E0000
003F0000
03E9C000
1F98F000
7C187800
F0303C00
00300800
00600000
00E00000
00C00000
01C00000
ENDCHAR
STARTCHAR 002B
ENCODING 43
SWIDTH 404 0
DWIDTH 34 0
BBX 23 20 9 11
BITMAP
000080
0001C0
000180
000380
000300
000700
000600
000E00
000C00
001FFE
FFFFFE
003000
003000
006000
006000
00C000
008000
018000
010000
030000
ENDCHAR
STARTCHAR 002C
ENCODING 44
SWIDTH 142 0
DWIDTH 12 0
BBX 9 10 -1 -6
BITMAP
0700
0F80
0F80
0F00
0700
0300
0600
0C00
3000
E000
ENDCHAR
STARTCHAR 002D
ENCODING 45
SWIDTH 500 0
DWIDTH 42 0
BBX 28 3 8 9
BITMAP
000003F0
FFFFFFF0
7FFFFF80
ENDCHAR
STARTCHAR 002E
ENCODING 46
SWIDTH 142 0
DWIDTH 12 0
BBX 5 4 3 0
BITMAP
70
F8
F0
E0
ENDCHAR
STARTCHAR 002F
ENCODING 47
SWIDTH 309 0
DWIDTH 26 0
BBX 54 72 2 -3
BITMAP
0000000000000C
0000000000001C
0000000000001C
00000000000038
00000000000070
00000000000070
000000000000E0
000000000001C0
000000000003C0
00000000000380
00000000000700
00000000000F00
00000000000E00
00000000001C00
00000000003800
00000000007800
00000000007000
0000000000E000
0000000001E000
0000000001C000
00000000038000
00000000070000
000000000F0000
000000000E0000
000000001C0000
00000000380000
00000000380000
00000000700000
00000000E00000
00000001C00000
00000001C00000
00000003800000
00000007000000
00000006000000
0000000E000000
0000001C000000
00000038000000
00000030000000
00000070000000
000000E0000000
000001C0000000
00000180000000
00000380000000
00000700000000
00000E00000000
00000C00000000
00001C00000000
00003800000000
00007000000000
00006000000000
0000E000000000
0001C000000000
00038000000000
00030000000000
00060000000000
000E0000000000
001C0000000000
00180000000000
00300000000000
00600000000000
00E00000000000
01C00000000000
01800000000000
03000000000000
06000000000000
0E000000000000
1C000000000000
38000000000000
30000000000000
60000000000000
C0000000000000
C0000000000000
ENDCHAR
STARTCHAR 0030
ENCODING 48
SWIDTH 404 0
DWIDTH 34 0
BBX 37 46 2 -2
BITMAP
0000000FC0
0000007060
000001C060
0000070060
00001E0060
00003800C8
00007001C8
0000E00188
0003C00308
0007800708
0007000E18
000F001C18
001E037818
003C03F010
007807C030
0070000030
00F0000030
01E0000060
01C0000060
03C00000C0
07800000C0
07000001C0
0F00000180
0E00000380
1E00000300
1C00000700
3C00000E00
3800000C00
3800001C00
7000003800
7000007000
7000006000
E00000E000
E00001C000
E000038000
E000070000
C0000E0000
C0001C0000
C000380000
C000F00000
C001C00000
C003800000
C00E000000
603C000000
3FE0000000
0400000000
ENDCHAR
STARTCHAR 0031
ENCODING 49
SWIDTH 238 0
DWIDTH 20 0
BBX 30 48 3 -3
BITMAP
0000001C
0000001C
00000038
00000070
000001F0
000003E0
000006E0
00000DC0
00001180
00006380
0000C300
00030700
00060E00
00180E00
00601C00
03801800
0E003800
00003000
00007000
0000E000
0000C000
0001C000
00018000
00038000
00070000
00060000
000E0000
000C0000
001C0000
00180000
00300000
00700000
00600000
00E00000
00C00000
01800000
01800000
03000000
06000000
06000000
0C000000
0C000000
18000000
10000000
30000000
60000000
40000000
80000000
ENDCHAR
STARTCHAR 0032
ENCODING 50
SWIDTH 380 0
DWIDTH 32 0
BBX 46 48 -10 -5
BITMAP
000000000040
000000000FF8
000000007818
00000001E00C
00000007800C
0000000F000C
0000001C001C
00000038001C
000000F00018
000000E00038
000001C00038
000003800070
000007001870
00000E0030E0
00000E0060E0
00001C00C1C0
000018018380
000038030780
000030060700
000030180E00
000070701C00
000031C03800
00003E007800
00000000F000
00000001E000
00000003C000
000000078000
0000000F0000
0000001E0000
0000003C0000
000000780000
000000E00000
000001C00000
000003800000
000007000000
00001C000000
0003F8000000
001FFE000000
0071DF000000
01C307C0000C
030603E00030
041801F000E0
1830007C0700
20C0001FFC00
430000018000
8E0000000000
B80000000000
E00000000000
ENDCHAR
STARTCHAR 0033
ENCODING 51
SWIDTH 309 0
DWIDTH 26 0
BBX 42 47 -6 -2
BITMAP
000000007F00
000000038180
0000000C01C0
0000001801C0
0000006001C0
000000C00180
000003000380
000006000700
00000C000700
000018000E00
000020001C00
000040003800
000000007000
00000000E000
00000001C000
000000038000
000000060000
0000001C0000
000000330000
000000FCC000
000001806000
000006006000
000008006000
000000006000
00000000E000
00000000C000
00000001C000
000000038000
000000038000
000000070000
0000000E0000
0000001C0000
0000003C0000
000000380000
000700700000
003F00E00000
007201C00000
01CC07800000
03800F000000
07001C000000
1C0038000000
3800E0000000
7003C0000000
600700000000
C01C00000000
80E000000000
FF0000000000
ENDCHAR
STARTCHAR 0034
ENCODING 52
SWIDTH 404 0
DWIDTH 34 0
BBX 42 47 -3 -4
BITMAP
000000030000
000000070000
0000000F0080
0000000E01C0
0000000C0380
0000001C0300
000000380700
000000300E00
000000700E00
000000E01C00
000001C01800
000001803800
000003807000
000007007000
00000E00E000
00000C00E000
00001801C000
000038018000
000070038000
0000E0070000
0000C0070000
0001800E0000
0003000C0000
0006001C0000
000C00180000
001800380000
003000700000
007000700600
01FF80E01A00
0781F8C03200
1B003FC06400
26000F804C00
4C0003C09800
980003F03000
6000063FC000
00000E060000
00000C000000
000018000000
000018000000
000030000000
000020000000
000060000000
0000C0000000
000080000000
000180000000
000300000000
000200000000
ENDCHAR
STARTCHAR 0035
ENCODING 53
SWIDTH 309 0
DWIDTH 26 0
BBX 42 46 -7 -2
BITMAP
000000180000
0000003F03C0
0000003FFF00
000000600000
000000400000
000000C00000
000001800000
000001800000
000003000000
000003000000
000006000000
000006000000
00000C000000
00000C000000
000018000000
000010000000
0000307F0000
000023E78000
00006E01C000
00007000C000
0000C000C000
00008000C000
00000001C000
00000001C000
000000018000
000000038000
000000070000
000000070000
0000000E0000
0000001C0000
0000001C0000
000000380000
000000700000
000700E00000
001F01C00000
007A03800000
00E407000000
03800E000000
07001C000000
0E0038000000
1800E0000000
3001C0000000
600700000000
401C00000000
C0F000000000
7F8000000000
ENDCHAR
STARTCHAR 0036
ENCODING 54
SWIDTH 345 0
DWIDTH 29 0
BBX 38 47 -1 -2
BITMAP
0000000004
0000000018
0000000060
00000000C0
0000000300
0000000600
0000000C00
0000003800
0000007000
000000C000
0000018000
0000030000
00000E0000
00001C0000
0000380000
0000700000
0000E00000
0001E00000
0003C0FC00
0003830600
00070C0600
000E180600
001C300600
0038600600
0078800600
0071000E00
00E2000E00
01C4001C00
01C8001C00
0390003800
0700003800
0600007000
0E0000F000
1C0000E000
1C0001C000
3800038000
3000078000
30000F0000
70001E0000
60003C0000
6000780000
E000F00000
C001C00000
C007800000
400E000000
6038000000
3FC0000000
ENDCHAR
STARTCHAR 0037
ENCODING 55
SWIDTH 380 0
DWIDTH 32 0
BBX 41 47 6 -3
BITMAP
000000000380
000000000D80
000000001100
00FF80006300
0303E000C600
0600F0018800
08C03C031000
10800F066000
218003CF8000
630000780000
460000300000
CC0000200000
F80000400000
200000C00000
000001800000
000003000000
000006000000
00000C000000
00000C000000
000018000000
000030000000
000060000000
0000E0000000
0000C0000000
000180000000
000300000000
000700000000
3E0600000000
7FFFFFE00000
7FFFFFF80000
003800000000
003000000000
007000000000
00E000000000
01C000000000
01C000000000
038000000000
070000000000
070000000000
0E0000000000
1C0000000000
1C0000000000
380000000000
380000000000
7C0000000000
780000000000
600000000000
ENDCHAR
STARTCHAR 0038
ENCODING 56
SWIDTH 309 0
DWIDTH 26 0
BBX 37 50 -1 -4
BITMAP
00000003E0
0000001C78
0000006038
0000018018
0000030018
0000060018
00000C0018
00001C0010
0000380030
0000380060
00003800C0
0000300180
0000380300
0000380600
0000381800
0000383000
0000386000
0000198000
00001F0000
00001E0000
00001C0000
00003E0000
00004E0000
00018E0000
00030F0000
0004070000
0008070000
0030070000
0060078000
00C0078000
0180078000
0300078000
0600078000
0400078000
0C00070000
1800070000
3000070000
30000F0000
60000E0000
60000E0000
60001C0000
6000380000
E000300000
E000600000
E000C00000
E001800000
6003000000
700C000000
3DF0000000
0200000000
ENDCHAR
STARTCHAR 0039
ENCODING 57
SWIDTH 321 0
DWIDTH 27 0
BBX 29 47 5 -4
BITMAP
000003C0
00003F20
0000F020
0003C020
000F0040
001E00C0
003C0180
00700300
00E00618
01C01C38
03837870
0707E0F0
0F0781E0
0E0002E0
1C000DC0
38001B80
38003380
70004700
60018600
60020E00
400C1C00
C0301800
40E03800
63807000
3C006000
0000E000
0001C000
00018000
00038000
00070000
00060000
000C0000
000C0000
00180000
00300000
00300000
00600000
00C00000
00C00000
01800000
03000000
02000000
06000000
0C000000
08000000
10000000
30000000
ENDCHAR
STARTCHAR 003A
ENCODING 58
SWIDTH 154 0
DWIDTH 13 0
BBX 12 21 3 -1
BITMAP
0060
00F0
01F0
01E0
01C0
0000
0000
0000
0000
0000
0000
0000
0000
0000
0000
0000
0000
7000
F800
F000
E000
ENDCHAR
STARTCHAR 003B
ENCODING 59
SWIDTH 142 0
DWIDTH 12 0
BBX 17 27 -1 -7
BITMAP
000300
000780
000F80
000F00
000E00
000000
000000
000000
000000
000000
000000
000000
000000
000000
000000
000000
000000
070000
0F8000
0F8000
0F0000
070000
030000
060000
0C0000
300000
C00000
ENDCHAR
STARTCHAR 003C
ENCODING 60
SWIDTH 357 0
DWIDTH 30 0
BBX 20 13 9 14
BITMAP
0000F0
007F00
1F8000
E00000
E00000
780000
1E0000
078000
01E000
007800
001E00
000780
0001C0
ENDCHAR
STARTCHAR 003D
ENCODING 61
SWIDTH 416 0
DWIDTH 35 0
BBX 25 8 6 16
BITMAP
1FFFFF00
1FFFFF80
00000000
00000000
00000000
20000000
FFFFFC00
FFFFF800
ENDCHAR
STARTCHAR 003E
ENCODING 62
SWIDTH 357 0
DWIDTH 30 0
BBX 20 13 9 14
BITMAP
380000
1E0000
078000
01E000
007800
001E00
000780
0001E0
000070
000070
001F80
07E000
F80000
ENDCHAR
STARTCHAR 003F
ENCODING 63
SWIDTH 380 0
DWIDTH 32 0
BBX 41 55 6 0
BITMAP
000000FFF000
000003C07C00
00000F001E00
00003C000F00
000070000F00
0001E0000F80
000380000780
000700000780
000E00000780
001C00000780
001800200780
003000200F80
003000400F80
006000C00F00
006001801F00
004003001E00
004006003E00
00C00C007C00
00C01800F800
00C03001F000
00404003C000
004180078000
006E001E0000
001000380000
000000E00000
000003800000
00000E000000
000038000000
0000E0000000
000180000000
000700000000
000C00000000
003800000000
007000000000
00E000000000
00C000000000
018000000000
038000000000
030000000000
070000000000
070000000000
070000000000
070000000000
070000000000
030000000000
018000000000
000000000000
000000000000
000000000000
000000000000
000000000000
380000000000
780000000000
F80000000000
F00000000000
ENDCHAR
STARTCHAR 0040
ENCODING 64
SWIDTH 559 0
DWIDTH 47 0
BBX 51 40 -1 -10
BITMAP
00000000FFF800
0000001F800E00
000001F0000380
00000780000180
00003E000000C0
0000F8000000C0
0001E0000000C0
00078000FE00E0
000F000FFC00E0
001E007C3C00C0
007C01E03801C0
00F803C07001C0
00F00F00E00380
01E01E01C00380
03C03C03C00700
07807807800F00
0F00F007000E00
0F01E00E001E00
1E03C01C003C00
1C078038007800
3C0700F000F000
380E01F001E000
780E03E007C000
701C0DC00F8000
701819801E0000
701823007C0000
E018C301F00000
E0198207C00000
E01E063E000000
E01807F0000000
E0000000000000
60000000000000
60000000020000
700000000C0000
30000000700000
38000001C00000
1800000E000000
0C0000F0000000
07801F00000000
01FFE000000000
ENDCHAR
STARTCHAR 0041
ENCODING 65
SWIDTH 500 0
DWIDTH 42 0
BBX 59 66 -1 -4
BITMAP
0000000000000380
000000000001FC60
00000000000F0060
00000000003C0060
0000000001F00060
0000000007C00060
000000000F0000C0
000000003E0001C0
00000000F8000180
00000001F0000300
00000003E0000700
0000000FC0000E00
0000001F00001C00
0000003E00001800
0000007C00003000
000000F800007000
000001F00000E000
000003E00001C000
000007C000038000
00000F8000070380
00001F80001C0700
00003F0000380F00
00007E000C701E00
00007C0018E03C00
0000F80033C03800
0001F0003F007000
0003F0007E00F000
0003E0007801E000
0007C0000003C000
000F800000078000
001F0000000F8000
001F0000001F0000
003E0000001E0000
007C0000003C0000
007C000000780000
00F8000000F00000
00F0000001F00000
01F0000003E00000
03E0000007C00000
03C000000F800000
07C000001F800000
078000003F000000
0F8000007E000000
0F000000DC000000
1F00000138000000
1E00000278000000
1E00000470000000
3C000018E0000000
3C000031C0000000
78000063C0003000
780000C38000C000
7000018700030000
7000020600060000
E000040E00180000
E000181C00300000
E000301800C00000
C000603801800000
C000807006000000
C00300600C000000
C00600E030000000
C01800C060000000
C020018180000000
C0C0018300000000
7700010C00000000
3800013000000000
000001C000000000
ENDCHAR
STARTCHAR 0042
ENCODING 66
SWIDTH 571 0
DWIDTH 48 0
BBX 74 65 -4 -4
BITMAP
0000000000000001FF00
000000000000001E0F80
00000000000000E007C0
000000000000030007C0
0000000000000C000F80
00000000000030000F80
000000000000C0001F00
00000000000300003F00
00000000000E00003E00
00000000001800007C00
0000000000700000F800
0000000000C00001F000
0000000003800003E000
0000000007000007C000
000000000C00000F8000
000000001800001E0000
000000007000003C0000
00000000E00000780000
00000001800000F00000
00000003000003C00000
00000006200007800000
0000000C20000F000000
0000001820001C000000
00000030600078000000
000000606000E0000000
000000C0C00380000000
00000180C00700000000
00000301801C00000000
00000603803000000000
00000C0300FFFE000000
00001807038003000000
0000300E0E0003800000
0000600E300001C00000
0000E01C000001C00000
0001C038000001C00000
00038038000003C00000
00030070000003800000
000600E0000003800000
000C00E0000007800000
001C01C0000007000000
0018038000000F000000
0030078000001E000000
0060070000003E000000
00E00E0000003C000000
00C01C00000078000000
01803C000000F0000000
038038000001F0000000
030070000003E0000000
0600E2000007C0000000
0601C400000F80000000
0C03C800001F00000000
08039800003E00000000
18071000007C00000000
100E300000F800000000
301C200001F000000000
2038600003C000000000
60706000078000000000
40E0C0001F0000000000
40C0C0003C0000000000
4180C000F80000000000
C300C001E00000000000
8600C007800000000000
8C00C00F000000000000
F000E078000000000000
40007FE0000000000000
ENDCHAR
STARTCHAR 0043
ENCODING 67
SWIDTH 297 0
DWIDTH 25 0
BBX 64 66 -2 -4
BITMAP
0000000000000070
0000000000003FDE
000000000001E002
00000000000F0001
00000000003C0001
0000000000F00003
0000000003C00002
000000000F000002
000000001E000006
000000007800000C
00000000F000000C
00000003C0000018
0000000780000030
0000000F00000070
0000001E000000E0
0000003C000001C0
0000007800000180
000000F000000300
000001E000000700
000007C000000E00
0000078000003C00
00000F0000007800
00001E000000F000
00003C000001E000
000078000003C000
0000F00000078000
0001E000001E0000
0003E000003C0000
0003C00010F80000
0007800031F00000
000F000067C00000
001F0000FF800000
001E0001FE000000
003C0001F0000000
007C000000000000
0078000000000000
00F0000000000000
01F0000000000000
01E0000000000000
03C0000000000000
03C0000000000000
0780000000000000
0780000000000000
0F00000000000000
0F00000000000000
1E00000000000000
1E00000000000000
1C00000000000000
3C00000000000000
3C00000060000000
38000000C0000000
7800000300000000
7800000400000000
7000001800000000
7000002000000000
700000C000000000
F000030000000000
F000060000000000
F000180000000000
7000700000000000
7001C00000000000
7007000000000000
781E000000000000
3FF8000000000000
1FE0000000000000
0600000000000000
ENDCHAR
STARTCHAR 0044
ENCODING 68
SWIDTH 702 0
DWIDTH 59 0
BBX 79 74 0 -12
BITMAP
000000000000007FFF00
00000000000007C000E0
0000000000003C000030
000000000001E0000018
0000000000078000000C
00000000001E0000000C
00000000007800000006
0000000000F000000006
0000000003C000000006
00000000078000000006
000000001F0000000006
000000003C000E000006
0000000078000E000006
00000000F0001E000006
00000001E0003C000006
00000003C0003800000E
0000000780007800000C
0000000F0000F000000C
0000001E0001E000001C
0000003C0001E0000018
0000007C0003C0000038
000000F8000780000038
000000F0000F00000070
000001E0001F00000070
000003C0001E000000E0
000003C0003C000000E0
000007800078000001C0
00000F0000F0000003C0
00000F0000F000000380
00001E0001E000000780
00001E0003C000000F00
00003C00078000001E00
000038000F0000001C00
000078000F0000003C00
000078001E0000007800
000070003C000800F000
0000F00078001801E000
0000E000F0003001E000
0000E000E0006003C000
0000E001C000C0078000
0001C003C001800F0000
0001C0078002001E0000
0001C00F0004003C0000
0001C00E001800780000
0001C01C003000F00000
0301C038004001E00000
0301C078018003C00000
0700C0F003000F800000
0700C0E00C001F000000
0F00E1C030003C000000
0F006380E00078000000
1F003F030001F0000000
1F001FFC0003E0000000
13000E00000F80000000
33801C00001F00000000
33803800007C00000000
31C0700001F000000000
20C0E00003C000000000
60E0C0000F0000000000
607180003C0000000000
601F0001F00000000000
600F000F800000000000
400FFFF8000000000000
C00C0000000000000000
C0180000000000000000
C0300000000000000000
C0600000000000000000
C0C00000000000000000
C1800000000000000000
C3000000000000000000
C2000000000000000000
E4000000000000000000
F8000000000000000000
70000000000000000000
ENDCHAR
STARTCHAR 0045
ENCODING 69
SWIDTH 309 0
DWIDTH 26 0
BBX 59 69 -1 -4
BITMAP
0000000000000FC0
000000000003F020
00000000001F0020
0000000000F80060
0000000003E000E0
000000000F8000C0
000000003E0001C0
00000000F8000780
00000001E0000F00
00000007C0001E00
0000000F00003800
0000003E0000F000
0000007C0001E000
000000F80003C000
000001E0018F0000
000003C0033E0000
0000078003F80000
00000F0007E00000
00001E0007800000
00003C0000000000
0000780000000000
0000F80000000000
0001F00000000000
0001E00000000000
0003C00000000000
0007800000000000
0007800000000000
000F000008000000
000E000018000000
000E000070000000
001E0000C0000000
001C000380000000
001C000E00000000
001C003800000000
000C00F000000000
00071FC000000000
0000E78000000000
00001E0000000000
00003C0000000000
0000F80000000000
0001F00000000000
0003E00000000000
000FC00000000000
001F800000000000
003F000000000000
007E000000000000
007C000000000000
00F8000000000000
01F0000000000000
03E0000000000000
07C0000000000000
07C0000000000000
0F80000030000000
0F00000060000000
1E00000180000000
1E00000600000000
3C00000C00000000
3800003000000000
7800006000000000
7000018000000000
7000030000000000
60000C0000000000
E000380000000000
6000600000000000
6001800000000000
6006000000000000
6038000000000000
3FE0000000000000
0F00000000000000
ENDCHAR
STARTCHAR 0046
ENCODING 70
SWIDTH 392 0
DWIDTH 33 0
BBX 67 74 0 -7
BITMAP
0000000000000003E0
000000000000000E20
000000000000001820
000000000000007060
0000FFC0000000E0C0
0003CFF0000001C180
000C007C0000038300
0030001F0000070600
0060000FC0001E0C00
00C10003F000381000
01810001F800706000
070200007E00F18000
060600001FC1E60000
0C04000003FFF80000
18080000000F800000
38100000000F000000
30200000001E000000
30400000003C000000
708000000078000000
7700000000F0000000
3C00000001E0000000
0000000003C0000000
000000000780000000
000000000780000000
000000000F00000000
000000001E00000000
000000003C00000000
000000007800000000
00000000F000000000
00000001E000000000
00000003E000000000
00000007C000000000
000000078000000000
0000000F0000000000
0000001E0000000000
0000003C0000000000
0000007C0000000000
000000F80000000000
000000F00000000000
000001E00000000000
000003C00000000000
000007C00000000000
7FFFFF800000000000
FFFFFFFFFF00000000
FFFFFFFFFFFE000000
00003C000000000000
00007C000000000000
0000F8000000000000
0001F0000000000000
0001E0000000000000
0003C0000000000000
0007C0000000000000
000F80000000000000
000F00000000000000
001E00000000000000
003E00000000000000
007C00000000000000
007800000000000000
00F000000000000000
01F000000000000000
01E000000000000000
03C000000000000000
07C000000000000000
0F8000000000000000
0F0000000000000000
1F0000000000000000
1E0000000000000000
3C0000000000000000
7C0000000000000000
7F0000000000000000
FE0000000000000000
FC0000000000000000
F00000000000000000
400000000000000000
ENDCHAR
STARTCHAR 0047
ENCODING 71
SWIDTH 404 0
DWIDTH 34 0
BBX 54 74 -1 -13
BITMAP
00000000003FE0
0000000007F010
000000003F0010
00000001FC0010
00000007E00010
0000001FC00030
0000007F000060
000001FC0000C0
000003F0000180
00000FE0000300
00001F80000E00
00003F00001C00
00007E00007800
0000FC0000F000
0001F00003C01C
0003E0061F803C
0007C007FE007C
000F800FF801F8
001F000FC003F0
003E00000007E0
003C0000001BE0
007800000033C0
00F80000004780
00F00000018F00
01E00000061E00
01C000000C1E00
03C00000303C00
03800000C07800
0300000180F000
0700000601F000
0600001801E000
0600006003C000
06000180078000
060006000F0000
020038000E0000
0303C0001E0000
01FC00003C0000
00000000780000
00000000F00000
00000000E00000
00000001E00000
00000003C00000
00000007800000
0000000F000000
0000000E000000
0000001C000000
00000038000000
00000078000000
08000070000000
180000E0003000
180001C000C000
18000380018000
38000700060000
38000E00080000
38000E00300000
38001C00C00000
78003801000000
6C007006000000
6E00E018000000
4700C060000000
43818380000000
41E31C00000000
407FE000000000
40060000000000
400C0000000000
C0180000000000
C0300000000000
C0600000000000
60C00000000000
60800000000000
61000000000000
73000000000000
7E000000000000
3C000000000000
ENDCHAR
STARTCHAR 0048
ENCODING 72
SWIDTH 464 0
DWIDTH 39 0
BBX 85 81 0 -9
BITMAP
0000000000000000000038
00000000000000000000F8
00000000000000000001F0
00000000000000000003E0
00000000000000000007C0
0000000000000380000F80
0000000000000780001F00
0000000000000F00003E00
0000000000003F00007C00
0000000000007E0000F800
0000000000007C0001F000
000000000000F80003E000
000000000001F00007C000
000000000003C0000F8000
00000000000780001F0000
00000000000F00003E0000
00000000001E00007C0000
0000000000380000F80000
0000000000700001F00000
0000000000E00003E00000
0000000001C00003C00000
0000000003800007800000
000000000700000F000000
000000001E00001F000000
000000003C00003E000000
00000000F800007C000000
00000003700000F8000000
0000000EE00001F0000000
00000039E00003E0000000
000000E3C00003C0000000
0000038780000780000000
00000C0700000F00000000
0000700E00001E00000000
0003C01C00003C00000000
383F003C00007800000000
3FF800780000F000000000
3FC000F00000E000000000
080000E78001C000000000
000001C4C003C000000000
000003CC40078000000000
0000078C600F0000000000
00000F08601E0000000000
00000E18601C0000000000
00001C1860380000000000
00003C1860700000000000
0000781860E00000000000
0000701861C00000000000
0000E01C61800000000000
0001E01C63800000000000
0003C01CE7000000000000
0003800CEE000000000000
0007000CFC000000000000
000F000CD8000000000000
001E000CF0000000000000
001C000CE0000000000000
003C000FE0000000000000
0078000FC0000000000000
00F0000780000000000000
00E0000780000000000000
01E0000780030000000000
03C00007800C0000000000
0380000F80180000000000
0780001BC0600000000000
0F000017F1800000000000
0F0000367E000000000000
1E00006600000000000000
1C00004600000000000000
3C0000CC00000000000000
3C00018C00000000000000
7800011C00000000000000
7800031800000000000000
FC00021800000000000000
F800063000000000000000
E000043000000000000000
0000086000000000000000
0000084000000000000000
000010C000000000000000
0000108000000000000000
0000110000000000000000
0000160000000000000000
0000180000000000000000
ENDCHAR
STARTCHAR 0049
ENCODING 73
SWIDTH 369 0
DWIDTH 31 0
BBX 60 75 -4 -12
BITMAP
0000000000000F80
000000000001F040
00000000000F0020
00000000003C0020
0000000000F00020
0000000003C00030
0000000007800060
000000001E000060
000000003C000060
00000000F0000060
00000001E00000C0
00000003C00000C0
00000007800001C0
0000000F00000180
0000001E00000380
0000003C00000380
0000007800000700
000000F000000F00
000001E000000E00
000003C000001E00
0000078000001C00
0000070000003C00
00000E0000007800
00001E000000F000
00003C000000F000
000038000021E000
000070000043C000
000070000083C000
0000E00001078000
0000C000020F0000
0001C000041F0000
00018000083E0000
00038000303C0000
0003000040780000
0003000080F80000
0003000301F00000
0003000C03E00000
0003001007C00000
000300E00F800000
000103000F000000
0000FC001E000000
000000003C000000
0000000078000000
00000000F0000000
00000001F0000000
00000003E0000000
00000007C0000000
0000000F80000000
0000001F00000000
0000003E00000000
0000007800000000
000000F000000000
000001E000000000
000003C000000000
0000078000000000
00000F0000000000
00001E0000000000
00003C0000000000
0000780000000000
0000F00000000000
0001C00000000000
0003800000000000
0007000000000000
000E000000000000
001C000000000000
0030000000000000
0060000000000000
00C0000000000000
0180000000000000
0200000000000000
0C00000000000000
1800000000000000
3000000000000000
4000000000000000
8000000000000000
ENDCHAR
STARTCHAR 004A
ENCODING 74
SWIDTH 416 0
DWIDTH 35 0
BBX 81 103 -25 -41
BITMAP
0000000000000000000400
000000000000000003FF80
00000000000000003F8080
0000000000000000F80080
0000000000000007E00080
000000000000001F800080
000000000000007E000080
00000000000001F8000180
00000000000003E0000180
0000000000000FC0000300
0000000000001F00000300
0000000000007C00000700
000000000000F800000600
000000000003F000000E00
000000000007C000001C00
00000000000F8000001C00
00000000001F0000003800
00000000003C0000003800
0000000000780000007000
0000000000F0000000F000
0000000001E0000000E000
0000000003C0000001C000
000000000780000003C000
000000000F000000038000
000000001E000000078000
000000003C0000000F0000
00000000780000001E0000
00000000700000001E0000
00000000E00000003C0000
00000001C0000000780000
0000000380000000780000
0000000380000040F00000
0000000700000181E00000
0000000600000303C00000
0000000C00000403C00000
0000000C00001807800000
000000180000200F000000
000000180000C01E000000
000000300001001E000000
000000300006003C000000
0000003000180078000000
00000030006000F8000000
00000030018000F1000000
000000100E0001E6000000
0000000FF00003C8000000
00000000000007B0000000
0000000000000FC0000000
0000000000000F00000000
0000000000001E00000000
0000000000003C00000000
0000000000007800000000
000000000000F800000000
000000000001F000000000
000000000007E000000000
00000000000BC000000000
0000000000378000000000
00000000004F8000000000
00000000018F0000000000
00000000021E0000000000
00000000043C0000000000
0000000018780000000000
0000000020F00000000000
00000000C1E00000000000
0000000181E00000000000
0000000303C00000000000
0000000407800000000000
000000180F000000000000
000000301E000000000000
000000603C000000000000
0000008038000000000000
0000010070000000000000
00000600F0000000000000
00000C01E0000000000000
00001803C0000000000000
0000300780000000000000
0000600700000000000000
0000C00E00000000000000
0001801C00000000000000
0003003800000000000000
0006007000000000000000
000C00E000000000000000
001801C000000000000000
0030038000000000000000
0060070000000000000000
00C0060000000000000000
01800C0000000000000000
0180180000000000000000
0300300000000000000000
0600600000000000000000
0E00C00000000000000000
0C01800000000000000000
1803000000000000000000
1806000000000000000000
300C000000000000000000
3018000000000000000000
6030000000000000000000
6060000000000000000000
E0C0000000000000000000
E180000000000000000000
C200000000000000000000
C400000000000000000000
F800000000000000000000
E000000000000000000000
ENDCHAR
STARTCHAR 004B
ENCODING 75
SWIDTH 702 0
DWIDTH 59 0
BBX 84 68 0 -2
BITMAP
00000000000000E0000000
00000000000001E0000000
00000000000003C0000000
0000000000000780000000
0000000000000F000000F0
0000000000001E000001F0
0000000000003C000003F0
00000000000078000007E0
000000000000F000000FC0
000000000001E000000F80
000000000003C000001F80
0000000000078000003F00
00000000000E0000007E00
00000000001C000000FC00
000000000038000001F800
000000000060000003F000
0000000000C0000007C000
0000000001C000000F8000
00000000078000001F0000
000000000F0000003E0000
000000003E0000007C0000
00000000EC000001F80000
0000000398000003E00000
0000000E30000007C00000
000000387600000F800000
000000E0E400003E000000
00000781CC00007C000000
00003E03980000F0000000
3001F007180003E0000000
F8FFC00F38000780000000
FFFE001E30001F00000000
FFE0001C70007C00000000
3C0000387800F000000000
000000707C07C000000000
000000E0EFFF0000000000
000001E0E3F80000000000
000003C0E0000000000000
00000780E0000000000000
00000F01E0000000000000
00001E01C0000000000000
00003E01C0000000000000
00003C01C0000000000000
00007803C0000000000000
0000F003C0000000000000
0001E003C0000000000000
0003E003C0000000000000
0007C003C0000000000000
0007800380000000000000
000F000380000000000000
001E000380000000000000
003E000380000000000000
003C000380000000000000
0078000380000000000000
00F0000380000000300000
01F0000380000000400000
01E0000380000001800000
03C0000380000006000000
07C00003C000000C000000
07800003C0000030000000
0F000001C0000060000000
0F000001C0000180000000
1E000001C0000600000000
1E000000E0000C00000000
3E00000060003000000000
3C0000007000C000000000
3F00000038070000000000
7E0000000F780000000000
7800000000800000000000
ENDCHAR
STARTCHAR 004C
ENCODING 76
SWIDTH 619 0
DWIDTH 52 0
BBX 69 79 -2 -18
BITMAP
000000000000000010
000000000000000078
0000000000000001C8
000000000000000388
000000000000000708
000000000000000E08
000000000000001C18
000000000000003818
000000000000007010
00000000000000E030
00000000000001C030
00000000000003C030
000000000000078060
0000000000000F0060
0000000000001E0040
0000000000003C00C0
0000000000003C00C0
000000000000780180
000000000000F00180
000000000001E00100
000000000003C00300
000000000003C20200
000000000007860600
00000000000F0C0400
00000000001E0C0C00
00000000001E180800
00000000003C181800
000000000078301000
0000000000F0303000
0000000000F0202000
0000000001E0606000
0000000003C0604000
000000000780608000
000000000700C18000
000000000F00C10000
000000001E00C20000
000000003C00C40000
000000003800C80000
000000007800F00000
00000000F000600000
00000001E000000000
00000001C000000000
00000003C000000000
000000078000000000
000000070000000000
0000000E0000000000
0000001E0000000000
0000003C0000000000
000000380000000000
002000700000000000
006000F00000000000
00E000E00000000000
01F001C00000000000
017003800000000000
037807000000000000
023807000000000000
063C0E000000000000
0C1E1C000000000000
0C0F38000000000000
0807B8000000020000
1803F00000001C0000
1001F8000001E00000
3000FE00003E000000
3001BFFFFFE0000000
300307FFFE00000000
600700100000000000
600600000000000000
600C00000000000000
E01800000000000000
E03000000000000000
E06000000000000000
E04000000000000000
E0C000000000000000
E18000000000000000
E30000000000000000
E60000000000000000
FC0000000000000000
F80000000000000000
E00000000000000000
ENDCHAR
STARTCHAR 004D
ENCODING 77
SWIDTH 714 0
DWIDTH 60 0
BBX 96 87 0 -17
BITMAP
0000000003F8000000000000
000000003F06000000000001
00000001F003000000000007
00000007C00300000000000F
0000001F0003000000000017
0000003C0003000000000026
000000F800030000000000CE
000001E0000700000000019C
000003C0000600000000033C
00000F80000E000000000638
00001E00000E000000000C70
00003C00001C0000000018F0
00007800001C0000000021E0
0000F00000380000000043C0
0001E0000038000C000183C0
0003C0000070001C00030780
0003800000E0002C00060F00
0007800000E0005C000C1E00
000F000001C001B800183E00
001E000003C0033000307C00
003C00000380067000607800
0038000007000CE000C0F000
007000000F0011E00101F000
00F000001E0021C00203E000
00E000001C0043800C07C000
01C000003C008780180F8000
03C0000478010F00301F8000
03800008F0060E00603F0000
07000010E00C1C00C03E0000
07000061E0183C01807C0000
0E0000C3C030780300F80000
0C0001878060F00601F80000
1C0003078080F00C03F00000
1800060F0101E01007E00000
3800081E0203C0200FC00000
3000103C040780400F800000
3000207C180F80801F000000
700040F8300F03003E000000
600180F0601E06007E000000
600301E0C03C0C00FC000000
600403C1807C1801F8000000
401807C200F83001F0000000
40200F8400F06003E0000000
60C01F0801E0C007C0000000
77003E1003E1800FC0000000
38003C2007C2001F80000000
000078C00F84001F00000000
0000F9800F08003E00000000
0001F3001E10007C00000000
0003E6003E6000F800000000
0007CC007CC001F800000000
00079000F98001F000000000
000F2001F30003E000000000
001F4001F60007C000000000
003E8003EC000F8000000000
007F0007D8000F8000000000
00FE000FB0001F0000000000
01FC001FE0003E0000000000
01F8003F80003C0000000000
03F0003F0000780000000000
07E0007E0000F80000000000
0FC000FC0001F00000000000
1F8001F80001E00000000000
1E0003F00003C00000000000
3C0003E00007800000000000
780007C00007800000000000
F0000F80000F000000000000
E0001F00001E000000000000
00001E00001C000000000000
00000000003C000000000000
000000000078000000000000
000000000070000000000000
0000000000E0000000000000
0000000000E0000000000000
0000000001C0000000000000
000000000380000000000000
000000000380000000000000
000000000700000000000000
000000000600000000000000
000000000E01000000000000
000000000C02000000000000
000000000804000000000000
000000001818000000000000
000000001060000000000000
000000001180000000000000
000000001E00000000000000
000000001800000000000000
ENDCHAR
STARTCHAR 004E
ENCODING 78
SWIDTH 511 0
DWIDTH 43 0
BBX 80 86 0 -18
BITMAP
00000000000000000003
00000000000000000007
0000000001FC0000001E
000000001E0200000026
0000000070020000004C
00000003C0020000009C
0000000F000200000138
0000001C000200000278
00000070000200000470
000001E00006000008E0
000003800004000031E0
00000700000C000043C0
00001E00000C00008780
00003C00001800010F00
00007800001800020F00
0000F000003000041E00
0001E000007000083C00
00038000006000107800
0007800000E00020F800
000F000001C000C1F000
001E000001C00181E000
003C000003800303C000
0078000007000407C000
00F000000700080F8000
01E000000E00101F0000
01C000001C00203E0000
038000001C00403C0000
078000003800807C0000
07000000780100F80000
0E000010F00601F00000
0E000020E00C03E00000
1C000041C01807C00000
180000C3C03007C00000
3800018780400F800000
3000030700801F000000
7000040F01003E000000
6000081E02007C000000
6000103C0400F8000000
C000207C0800F8000000
C000C0781001F0000000
800180F02003E0000000
800201E04007C0000000
800C03C1800F80000000
801007C3001F00000000
80600784001F00000000
43800F08003E00000000
3C001E10007C00000000
00003E2000F800000000
00007C4001F000000000
0000788001E000000000
0000F10003E000000000
0001E20007C000000000
0003C4000F8000000000
0007D8000F0000000000
0007B0001E0000000000
000F60003C0000000000
001EC0007C0000000000
003D0000780000000000
007E0000F00000000000
00FC0001E00000000000
00F80003C00000000000
01F00003C00000000000
03E00007800000000000
07C0000F000000000000
0F80000E000000000000
0F00001E000000000000
1E00003C000000000000
3C000038000000000000
78000070000000000000
700000F0000000000000
000000E0000000000000
000001C0000000000000
00000380000000000000
00000380000000000000
00000700000000000000
00000600000000000000
00000E00000000000000
00000C00000000000000
00001800000000000000
00001800000000000000
00003000000000000000
00003000000000000000
00002000000000000000
00006200000000000000
00004C00000000000000
00007800000000000000
ENDCHAR
STARTCHAR 004F
ENCODING 79
SWIDTH 440 0
DWIDTH 37 0
BBX 61 64 -1 -2
BITMAP
0000000000003FC0
000000000007C020
00000000003C0020
0000000001E00020
0000000007800060
000000001E000040
00000000780000C0
00000000E0000188
00000003C0000388
0000000700000708
0000001E00000608
0000003C00000E18
0000007000001C10
000000E000007810
000001C00000F030
000003800001E020
000007000003C020
00000E00000F8060
00001C00011E0040
00003C0003FC00C0
0000780007F00080
0000F00000000180
0001E00000000100
0003C00000000300
0003C00000000200
0007800000000600
000F000000000C00
001E000000000C00
001E000000001800
003C000000003800
0078000000003000
0078000000006000
00F000000000E000
01F000000001C000
01E0000000038000
03C0000000038000
03C0000000070000
07800000000E0000
07800000001C0000
0F000000003C0000
0F00000000780000
1E00000000F00000
1E00000001E00000
3C00000003C00000
3C00000007800000
3C0000000F000000
780000001E000000
780000003C000000
7800000078000000
70000000F0000000
F0000003E0000000
F0000007C0000000
E000000F80000000
E000003F00000000
E000007C00000000
E00000F800000000
E00003E000000000
E00007C000000000
E0001F0000000000
E0007C0000000000
E001F00000000000
E007C00000000000
703E000000000000
3FF0000000000000
ENDCHAR
STARTCHAR 0050
ENCODING 80
SWIDTH 357 0
DWIDTH 30 0
BBX 78 66 0 -1
BITMAP
0000000000000000FFF0
00000000000000070038
0000000000000018001C
0000000000000060001C
0000000000000180001C
0000000000000600001C
0000000000001800001C
00000000000060000038
00000000000080000038
00000000000300000078
00000000000400000070
000000000018000000F0
000000000020000001E0
0000000000C0000001C0
000000000100000003C0
00000000020000000780
00000000040000000F00
00000000180000000E00
00000000200000001E00
00000000440000003C00
00000000860000007800
000000030E000000F000
000000060E000001E000
0000000C1C000003C000
000000183C0000078000
000000303C00000F0000
000000407800001E0000
000000807800003C0000
00000100F40000780000
00000201EC0000F00000
00000401E80003C00000
00000803D80007800000
0000100798000F000000
0000200798003C000000
0000600F180070000000
0000C01E3801E0000000
0000803E380380000000
0001003C380E00000000
000200781EF800000000
000400F01FC000000000
000800F0000000000000
001001E0000000000000
001003C0000000000000
00200780000000000000
00400700000000000000
00800E00000000000000
00801C00000000000000
01003C00000000000000
02007800000000000000
02007000000000000000
0400E000000000000000
0C01C000000000000000
08038000000000000000
10070000000000000000
10060000000000000000
200C0000000000000000
20180000000000000000
60300000000000000000
40600000000000000000
40C00000000000000000
81800000000000000000
83000000000000000000
86000000000000000000
88000000000000000000
B0000000000000000000
40000000000000000000
ENDCHAR
STARTCHAR 0051
ENCODING 81
SWIDTH 464 0
DWIDTH 39 0
BBX 77 74 -19 -16
BITMAP
00000000000000003F80
0000000000000003E060
000000000000001E0020
00000000000000F80030
00000000000003E00030
0000000000000F800030
0000000000001E000038
0000000000007C000038
000000000001F0000038
000000000003E0000078
000000000007C0000070
00000000000F00000070
00000000003E000000F0
00000000007C000000E0
0000000000F8000001E0
0000000001F0000001E0
0000000003E0000003C0
0000000003C0000003C0
00000000078000000780
000000000F0000000F00
000000001E0000000F00
000000001C0000001E00
00000000380000003C00
00000000780000607C00
00000000700000C07800
00000000E0000180F000
00000000C0000301E000
00000001C0000603C000
0000000180000C07C000
000000018000180F8000
000000030000301F0000
000000030000603E0000
000000020001807C0000
00000002000300F80000
00000002000E01F00000
00000006001803E00000
00000006006007C00000
0000000201800F800000
0000000206001E000000
00000001F8003C000000
00000000000078000000
000000000001F0000000
000000000003E0000000
000000000007C0000000
00000000000F80000000
00000000001E00000000
00000000003C00000000
0000000000F800000000
0000000001F000000000
0000000003C000000000
00000000078000000000
000000001F0000000000
000000003C0000000000
00000000780000000000
00000001F00000000000
0000000FC00000000000
000003FFF00000000000
00001FFFFE0000000030
0000703C7F8000000060
000180F80FE000000180
000601E003FC00000600
001807C000FF00001C00
00200F00001FE000E000
00C01E000007FE1F8000
0100780000007FF80000
0601E000000000000000
0C03C000000000000000
180F0000000000000000
301C0000000000000000
60700000000000000000
41E00000000000000000
C7800000000000000000
DC000000000000000000
F0000000000000000000
ENDCHAR
STARTCHAR 0052
ENCODING 82
SWIDTH 654 0
DWIDTH 55 0
BBX 78 67 -3 -5
BITMAP
00000000000000001FE0
0000000000000001E078
000000000000000E0018
0000000000000030001C
00000000000000C0001C
0000000000000300001C
0000000000000C00001C
0000000000003000001C
00000000000040000038
00000000000180000038
00000000000200000078
00000000000C00000070
000000000010000000E0
000000000060000001E0
000000000080000001C0
000000000100000003C0
00000000060000000780
00000000080000000F00
00000000100000001E00
00000000200000003C00
00000000C60000003C00
00000001860000007800
000000030E000000F000
000000041E000001E000
000000081C000003C000
000000103C0000078000
000000203800000F0000
000000407800001E0000
00000080F000007C0000
00000100F80000F00000
00000201E80001E00000
00000403E80003C00000
00000803D80007000000
0000100798001E000000
0000200F980038000000
0000400F1800F0000000
0000801E1801C0000000
0001003C180700000000
0003003C181C00000000
000200783FF000000000
000400F03E0000000000
000801E0380000000000
001001C0380000000000
002003C0380000000000
00200780380000000000
00400F00380000000000
00800E00380000000000
00801C00380000000000
01003800380000000000
02007000380000000000
0200E000380000000000
0400E0001C0000000000
0801C0001C0000000000
080380001C0000000000
100700001C0000000000
100E00001C0000000000
201C00001C0000000000
201800000E0000000000
403000000E0000000000
406000000E00000C0000
40C000000F0000300000
81800000070000600000
82000000078001800000
8400000003800E000000
9800000001C038000000
F000000000FFC0000000
00000000003E00000000
ENDCHAR
STARTCHAR 0053
ENCODING 83
SWIDTH 559 0
DWIDTH 47 0
BBX 77 68 -18 -7
BITMAP
00000000000000000008
00000000000000000018
00000000000000000038
00000000000000000078
000000000000000000F0
000000000000000001F0
000000000000000003F0
000000000000000007F0
00000000000000000FF0
00000000000000000DE0
000000000000000019E0
000000000000000033E0
000000000000000063E0
0000000000000000C3E0
000000000000000183C0
000000000000000303C0
000000000000000607C0
000000000000000C0780
00000000000000180780
00000000000000300780
00000000000000600F80
00000000000000C00F00
00000000000001800F00
00000000000003001F00
00000000000006001E00
0000000000000C001E00
00000000000018003E00
00000000000010003C00
00000000000020003C00
00000000000040007C00
00000000000080007800
00000000000100007800
0000000000020000F800
0000000000040000F000
0000000000080000F000
0000000000100001F000
0000000000200001E000
0000000000C00001E000
0000000001800003C000
0000000003000003C000
0000000006000007C000
000000000C0000078000
00000000180000078000
000000003080000F0000
000000006180000F0000
000000008300001F0000
000000030300001E0000
000000060300003E0000
0000000C0700003C0000
000000180600003C0000
00000030060000780000
000000C0060000700000
00000180060000F00000
00000300060000E00000
00000C00060001E00000
00001800060003C00000
00003000060003800000
0000C000060007800000
0001800006000F000000
0006000006000E000000
000C000003001C000000
00300000030038000000
00600000030070000000
018000000180E0000000
0600000000C180000000
0C000000007E00000000
30000000000000000000
C0000000000000000000
ENDCHAR
STARTCHAR 0054
ENCODING 84
SWIDTH 309 0
DWIDTH 26 0
BBX 67 74 0 -10
BITMAP
0000000000000003E0
000000000000000E20
000000000000001820
000000000000007060
0000FFC0000000E0C0
000383F8000001C180
000C007C0000038300
0030001F00000E0600
00600007C0001C0C00
00C10003F000381000
03810001FC00706000
070200007F00E18000
060600001FC1C60000
0C04000003FFF80000
180800000007800000
38100000000F000000
30200000001E000000
30400000003C000000
308000000078000000
3F00000000F0000000
3C00000001E0000000
0000000003C0000000
000000000780000000
000000000F00000000
000000000F00000000
000000001E00000000
000000003C00000000
000000007800000000
00000000F000000000
00000001E000000000
00000003C000000000
00000007C000000000
0000000F8000000000
0000000F0000000000
0000001E0000000000
0000003C0000000000
0000007C0000000000
000000F80000000000
000001F00000000000
000001E00000000000
000003C00000000000
000007800000000000
00000F800000000000
00001F000000000000
00001E000000000000
00003C000000000000
00007C000000000000
0000F8000000000000
0001F0000000000000
0001E0000000000000
0003C0000000000000
0007C0000000000000
000F80000000000000
000F00000000000000
001E00000000000000
003E00000000000000
007C00000000000000
007800000000000000
00F000000000000000
01F000000000000000
03E000000000000000
03C000000000000000
07C000000000000000
0F8000000000000000
0F0000000000000000
1F0000000000000000
1E0000000000000000
3E0000000000000000
7C0000000000000000
7F0000000000000000
7E0000000000000000
F80000000000000000
F00000000000000000
400000000000000000
ENDCHAR
STARTCHAR 0055
ENCODING 85
SWIDTH 690 0
DWIDTH 58 0
BBX 80 70 0 -6
BITMAP
0000000000E000000000
000000001F1C00000000
00000000F00600000000
00000003C00200000000
0000000F000200000000
0000001C000200000006
0000007800020000000F
000000F000020000001F
000003C000060000003E
0000078000060000007C
00000F00000400000078
00001E00000C000000F8
00003C00000C000001F0
000078000018000003E0
0000F0000038000007C0
0001E000003800000FC0
0003C000007000001F80
00078000007000001F00
000F000000E000003E00
001E000001E000007C00
003E000001C00000FC00
007C000003C00001F800
0078000007800003F000
00F0000007000007E000
01E000000F00000FC000
03E000001E00001F8000
03C000003C00003F8000
078000003C00007F0000
0F800010780000BE0000
0F000020F000017C0000
1E000041F00002F80000
1E000083E00005F80000
3C000107C00009F00000
38000207800033E00000
7800040F800047C00000
7000181F00008F800000
7000203E00010F800000
E000407C00021F000000
E000807800043E000000
E00300F000087C000000
C00401F0001078000000
C01803E00020F8000000
C02007C00041F0000000
C0C00F800081E0000000
67000F000103C0000000
18001E00020780000000
00003C000C0F00000000
00007C00100F00000000
0000F800201E00000000
0000F000403C00000000
0001E000803800000000
0003C001007800006000
0007800600F000018000
0007000C00E000030000
000F001001C0000C0000
001E002003C000180000
001C0040038000600000
00380180070000C00000
00700300060003000000
007004000E0006000000
00E008000C0018000000
00C03000180030000000
018040001800C0000000
01818000300380000000
01030000300600000000
030C0000201800000000
02180000607000000000
03E0000041C000000000
000000006F0000000000
00000000380000000000
ENDCHAR
STARTCHAR 0056
ENCODING 86
SWIDTH 404 0
DWIDTH 34 0
BBX 98 71 0 -5
BITMAP
00000000000000000000001FC0
0000000000000000000000FF80
0000000000E00000000003FF00
000000001F18000000000FFC00
00000000F004000000003FF800
00000003C00600000000FC6000
0000000F000600000003F08000
0000003C00060000000F800000
00000078000E0000001F000000
000001F0000E0000007C000000
000003C0000E000000F0000000
00000F80001E000003E0000000
00001F00001C00000780000000
00003C00001C00000F00000000
00007800003C00003C00000000
0000F000003800007800000000
0001E00000780000E000000000
0003C00000780001C000000000
0007800000F000078000000000
000F000000F0000E0000000000
000E000001E0001C0000000000
001C000001E000380000000000
0038000003C000600000000000
0070000007C001C00000000000
00600000078003800000000000
00E000000F0007000000000000
01C000000F000C000000000000
018000001E0018000000000000
030000001E0030000000000000
070000003C00E0000000000000
060000107C01C0000000000000
0C000020780300000000000000
0C000060F00600000000000000
180000C1F00C00000000000000
10000181E01800000000000000
30000303C03000000000000000
20000607C06000000000000000
60000C0780C000000000000000
4000100F010000000000000000
4000201F020000000000000000
C000401E040000000000000000
8001803C080000000000000000
8002007C100000000000000000
800C0078200000000000000000
801000F0400000000000000000
806001F0800000000000000000
C38001E1000000000000000000
3C0003C2000000000000000000
000007C4000000000000000000
00000788000000000000000000
00000F10000000000000000000
00001F20000000000000000000
00001E40000000000000000000
00003C80000000000000000000
00007900000000000000000000
00007A00000000000000000000
0000F400000000000000000000
0001F800000000000000000000
0003F000000000000000000000
0003E000000000000000000000
0007C000000000000000000000
000F8000000000000000000000
001F0000000000000000000000
001F0000000000000000000000
003E0000000000000000000000
007C0000000000000000000000
00F80000000000000000000000
01F00000000000000000000000
01E00000000000000000000000
03C00000000000000000000000
07000000000000000000000000
ENDCHAR
STARTCHAR 0057
ENCODING 87
SWIDTH 642 0
DWIDTH 54 0
BBX 110 71 0 -7
BITMAP
000000000000000000000000007C
0000000000FE00000000000001FC
000000000F0180000000000007F8
000000007800C000000000001FE0
00000001E0004000000000003FC0
000000078000400000000000FF80
0000001E0000400000000001FE00
0000007C0000C00000000007FC00
000000F00000C0000000000FF000
000003E00000C0000000003E2000
000007C00000C000000000780000
00000F000001C000000000F00000
00001E0000018000000003C00000
00003C0000018000000007800000
000078000003800000000E000000
0000F0000003000180001C000000
0001E00000070003000038000000
0003C000000700060000E0000000
00078000000E000C0001C0000000
000F0000000E001C000380000000
001E0000001C0078000700000000
003C0000003C00F8000E00000000
00780000003801F0001800000000
00F00000007803E0003000000000
00F00000007007E0006000000000
01E0000000E00FC000C000000000
03C0000001E01B80018000000000
0380000201C03780030000000000
0780000403C067000E0000000000
0F0000080780CF00180000000000
0E00001007018E00300000000000
1C0000200F031C00600000000000
1C0000401E063C00C00000000000
380000801C083801800000000000
380001003C107803000000000000
7000060078207006000000000000
70000C007040E00C000000000000
60001800F080E018000000000000
E0002001E101C030000000000000
C0004003C203C060000000000000
C0018007C40380C0000000000000
C002000788070180000000000000
C00C000F10070300000000000000
C030001F200E0600000000000000
63C0003E400E0C00000000000000
3E00007C801C1800000000000000
0000007900383000000000000000
000000F200386000000000000000
000001F40070C000000000000000
000003E800718000000000000000
000007D000E30000000000000000
000007A000E60000000000000000
00000F4001CC0000000000000000
00001F8003980000000000000000
00003F0003B00000000000000000
00007E0007600000000000000000
0000FC0007600000000000000000
0000FC000EC00000000000000000
0001F8000F800000000000000000
0003F0001F000000000000000000
0007E0003E000000000000000000
000FC0003C000000000000000000
001F800078000000000000000000
001F000070000000000000000000
003E0000E0000000000000000000
007C0000C0000000000000000000
00F80001C0000000000000000000
01F0000380000000000000000000
01E0000300000000000000000000
0380000600000000000000000000
0000000400000000000000000000
ENDCHAR
STARTCHAR 0058
ENCODING 88
SWIDTH 809 0
DWIDTH 68 0
BBX 80 73 -1 -8
BITMAP
00000000FC0000000000
00000007FF0000000000
0000001F038000000000
0000007C00C000000000
000000F000E000000000
000003E0006000000007
000007C000700000000F
00000F0000300000001E
00001E0000300000003C
00003C00003800000078
00007800003800000078
0000F0000018000000F0
0001E0000018000001E0
0003C000001C000003C0
0007C000001C00000780
000F8000001C00000F00
001F0000001C00001E00
001E0000001C00003C00
003C0000001C00007800
007C0000001C0000F000
00F80000001C0001E000
00F00000401C0003C000
01E00000C01C00038000
01E00001801C00070000
03C00001001C000E0000
07C00002001C001C0000
07800004001C00380000
0F00000C001C00600000
0F000008001C00C00000
1E000010003C01800000
1E000020003C03000000
1C000040003C06000000
3C000080003C0C000000
38000100003C18000000
78000200003C30000000
70000400003C60000000
70000800003CC0000000
70001000003D80000000
60002000003F00000000
6000C000003E00000000
E0018000003C00000000
60020000003C00000000
600C0000003800000000
60300000007800000000
30C0000001B800000000
1F000000033800000000
00000000063800000000
000000000C3800000000
00000000183800000000
00000000307800000000
00000000607800000000
00000000C07800000000
0000000100780000000C
00000002007800000030
0000000C007800000060
00000018003800000180
00000030003800000200
00000060003800000C00
000000C0003800001800
00000100003800006000
0000060000380000C000
00000C00003800030000
00001800001C00060000
00003000001C00180000
00006000001E00700000
00018000000F03C00000
000300000007FF000000
000600000003F8000000
001C0000000000000000
00300000000000000000
00600000000000000000
01800000000000000000
01000000000000000000
ENDCHAR
STARTCHAR 0059
ENCODING 89
SWIDTH 619 0
DWIDTH 52 0
BBX 95 106 -13 -41
BITMAP
00000000000000001E000006
00000000000000003E00001E
00000000000000007C00003E
0000000000000000F80000FC
0000000000000001F00001F8
0000000000000003E00003F0
0000000000000007C00007E0
000000000000000F80000FC0
000000000000001F00001F80
000000000000003E00001F00
000000000000007C00003E00
00000000000000F800007C00
00000000000001F00000F800
00000000000003E00001F800
00000000000007C00001F000
0000000000000F800003E000
0000000000001F000007C000
0000000000003E00000F8000
0000000000007C00001F8000
000000000000F800001F0000
000000000003F000003E0000
000000000007E000007C0000
000000000019E00001F80000
000000000063C00003F80000
000000000187800007F00000
00000000060700001FE00000
00000000180F000033C00000
00000000E01E0000E7C00000
00000003801C00018F800000
0000003E003800070F000000
000E03F00038000C1E000000
003FFF80007000303C000000
007FF800006000607C000000
007F80000060018078000000
0000000000C00600F0000000
0000000000C01801E0000000
0000000000C06003E0000000
0000000000C38003C0000000
0000000000FC000780000000
000000000000000F00000000
000000000000001F00000000
000000000000001E00000000
000000000000003C00000000
000000000000007801800000
00000000000000F006000000
00000000000001F01C000000
00000000000001E030000000
00000000000003C0C0000000
000000000000078300000000
0000000000000F0600000000
0000000000000F1800000000
0000000000001E2000000000
0000000000003CC000000000
0000000000007B0000000000
000000000000FE0000000000
000000000000F80000000000
000000000001E00000000000
000000000003C00000000000
000000000007800000000000
000000000007800000000000
00000000000F000000000000
00000000003E000000000000
00000000007C000000000000
0000000001F8000000000000
000000000370000000000000
000000000CF0000000000000
0000000019E0000000000000
0000000033C0000000000000
00000000C780000000000000
000000018700000000000000
000000030E00000000000000
0000000C1C00000000000000
000000183C00000000000000
000000307800000000000000
000000C0F000000000000000
00000180E000000000000000
00000301C000000000000000
000006038000000000000000
00001C070000000000000000
0000380F0000000000000000
0000601E0000000000000000
0000C01C0000000000000000
000180380000000000000000
000300700000000000000000
000600E00000000000000000
000C01C00000000000000000
001803800000000000000000
003007000000000000000000
00600E000000000000000000
00C01C000000000000000000
018018000000000000000000
038030000000000000000000
070060000000000000000000
0600C0000000000000000000
0E0180000000000000000000
1C0300000000000000000000
180600000000000000000000
380C00000000000000000000
301800000000000000000000
703000000000000000000000
70E000000000000000000000
718000000000000000000000
F30000000000000000000000
FE0000000000000000000000
F80000000000000000000000
600000000000000000000000
ENDCHAR
STARTCHAR 005A
ENCODING 90
SWIDTH 690 0
DWIDTH 58 0
BBX 74 68 0 -10
BITMAP
000000003FE000000380
00000001FFF8000007C0
0000000700FC00000F80
0000000C007E00003F00
00000038001F80007E00
00000060000FC001FC00
000000C00007F007F800
000001802001FE7DF000
0000030040007FE3E000
0000070040000707C000
00000600800000078000
00000C018000000F0000
00001C010000001E0000
000018020000003C0000
00003804000000780000
00003008000000F00000
00007010000001E00000
00006020000003C00000
000060C0000007800000
0000E18000000F000000
0000F60000001E000000
0000780000003C000000
00000000000078000000
000000000000F0000000
000000000001E0000000
000000000003C0000000
00000000000780000000
00000000000F00000000
00000000001E00000000
00000000003C00000000
00000000007800000000
0000000000F000000000
0000000001E000000000
0000000003C000000000
00000000078000000000
000000000F0000000000
000000001E0000000000
000000003C0000000000
00000000780000000000
00000000F00000000000
00000001E00000000000
00000003C00000000000
08000007800000000000
0800000F000000000000
1800001E000000000000
1C00003C000000006000
3C000078000000018000
3C0000F0000000060000
7E0001E00000000C0000
5E0003C0000000300000
4F000700000000400000
4F000E00000001800000
47801C00000006000000
C3C03800000018000000
C1E07000000070000000
C1F0E0000001C0000000
C0F9C000000700000000
C07F8000003C00000000
C01F000001E000000000
C00FE0000F8000000000
C01FFF03FC0000000000
C038FFFFC00000000000
C06007F8000000000000
E0C00000000000000000
61800000000000000000
63000000000000000000
76000000000000000000
38000000000000000000
ENDCHAR
STARTCHAR 005B
ENCODING 91
SWIDTH 500 0
DWIDTH 42 0
BBX 64 84 7 -14
BITMAP
0000000000000FFF
0000000000001FFF
0000000000001C00
0000000000003800
0000000000007000
0000000000007000
000000000000E000
000000000001C000
000000000001C000
0000000000038000
0000000000030000
0000000000070000
00000000000E0000
00000000000C0000
00000000001C0000
0000000000380000
0000000000380000
0000000000700000
0000000000E00000
0000000000E00000
0000000001C00000
0000000001800000
0000000003800000
0000000007000000
0000000006000000
000000000E000000
000000001C000000
000000001C000000
0000000038000000
0000000070000000
0000000070000000
00000000E0000000
00000000C0000000
00000001C0000000
0000000380000000
0000000300000000
0000000700000000
0000000E00000000
0000000E00000000
0000001C00000000
0000003800000000
0000003800000000
0000007000000000
000000E000000000
000000E000000000
000001C000000000
0000018000000000
0000038000000000
0000070000000000
0000060000000000
00000E0000000000
00001C0000000000
00001C0000000000
0000380000000000
0000700000000000
0000700000000000
0000E00000000000
0000C00000000000
0001C00000000000
0003800000000000
0003000000000000
0007000000000000
000E000000000000
000E000000000000
001C000000000000
0038000000000000
0038000000000000
0070000000000000
0060000000000000
00E0000000000000
01C0000000000000
0180000000000000
0380000000000000
0700000000000000
0700000000000000
0E00000000000000
1C00000000000000
1C00000000000000
3800000000000000
7000000000000000
7000000000000000
FFF0000000000000
FFF0000000000000
FFE0000000000000
ENDCHAR
STARTCHAR 005C
ENCODING 92
SWIDTH 261 0
DWIDTH 22 0
BBX 7 90 11 -13
BITMAP
02
06
06
06
0E
0E
0E
0E
0E
0E
0E
0E
0E
0C
0C
0C
1C
1C
1C
1C
1C
1C
1C
1C
1C
18
18
18
18
18
18
38
38
38
38
38
38
38
30
30
30
30
30
30
30
30
30
30
30
30
70
70
70
60
60
60
60
60
60
60
60
60
60
60
60
60
60
60
60
60
60
60
60
40
40
C0
C0
C0
C0
C0
C0
C0
C0
C0
C0
C0
C0
C0
C0
40
ENDCHAR
STARTCHAR 005D
ENCODING 93
SWIDTH 333 0
DWIDTH 28 0
BBX 65 84 -14 -14
BITMAP
00000000000007FF80
0000000000000FFF80
000000000000000700
000000000000000600
000000000000000E00
000000000000001C00
000000000000001C00
000000000000003800
000000000000007000
000000000000007000
00000000000000E000
00000000000001C000
00000000000001C000
000000000000038000
000000000000030000
000000000000070000
0000000000000E0000
0000000000000E0000
0000000000001C0000
000000000000380000
000000000000380000
000000000000700000
000000000000E00000
000000000000E00000
000000000001C00000
000000000001800000
000000000003800000
000000000007000000
000000000006000000
00000000000E000000
00000000001C000000
00000000001C000000
000000000038000000
000000000070000000
000000000070000000
0000000000E0000000
0000000000C0000000
0000000001C0000000
000000000380000000
000000000300000000
000000000700000000
000000000E00000000
000000000E00000000
000000001C00000000
000000003800000000
000000003800000000
000000007000000000
000000006000000000
00000000E000000000
00000001C000000000
000000018000000000
000000038000000000
000000070000000000
000000070000000000
0000000E0000000000
0000001C0000000000
0000001C0000000000
000000380000000000
000000700000000000
000000700000000000
000000E00000000000
000000C00000000000
000001C00000000000
000003800000000000
000003800000000000
000007000000000000
00000E000000000000
00000E000000000000
00001C000000000000
000038000000000000
000038000000000000
000070000000000000
000060000000000000
0000E0000000000000
0001C0000000000000
000180000000000000
000380000000000000
000700000000000000
000700000000000000
000E00000000000000
001C00000000000000
7FFC00000000000000
7FF800000000000000
FFF000000000000000
ENDCHAR
STARTCHAR 005F
ENCODING 95
SWIDTH 476 0
DWIDTH 40 0
BBX 29 2 2 -4
BITMAP
FFFFFFF8
7FFFFFF8
ENDCHAR
STARTCHAR 0060
ENCODING 96
SWIDTH 357 0
DWIDTH 30 0
BBX 11 8 12 24
BITMAP
8000
E000
F000
3800
1E00
0700
0180
0060
ENDCHAR
STARTCHAR 0061
ENCODING 97
SWIDTH 297 0
DWIDTH 25 0
BBX 28 23 0 -1
BITMAP
000003F0
00007FF0
0001E0E0
000781C0
001E03C0
007C0780
00F00700
01E00E00
03C01C00
07803800
0F007000
1E00E000
1C01E000
3803C010
78078060
701F00C0
603E0300
E0CE0400
C18C1800
C2186000
CC188000
F0130000
601C0000
ENDCHAR
STARTCHAR 0062
ENCODING 98
SWIDTH 214 0
DWIDTH 18 0
BBX 52 57 -1 -1
BITMAP
00000000000010
000000000000F0
00000000000330
00000000000620
00000000001C60
000000000030C0
00000000006180
0000000001C180
00000000038300
00000000070600
000000000E0C00
000000001C1800
00000000383000
00000000F06000
00000001E0C000
00000003C18000
00000007830000
0000000F060000
0000001E0C0000
0000003C180000
00000078300000
000000F0600000
000001E0C00000
000003C1000000
00000786000000
00000F0C000000
00001E18000000
00003C30000000
00007860000000
000070C0000000
0000E100000000
0001E200000000
0003CC00000000
00079800000000
000F3000000000
000E4600000000
001C8E00000000
003B1200000000
007E2400000000
00F84400000000
00F08800000000
01C11000000000
03823000000000
03862000000000
07044000000000
0E0C8000000000
0C090000000000
1C0A0400000000
181E1800000000
301C6000000000
301F8000000000
60360000000000
60400000000000
40800000000000
C3000000000000
CC000000000000
78000000000000
ENDCHAR
STARTCHAR 0063
ENCODING 99
SWIDTH 202 0
DWIDTH 17 0
BBX 23 23 0 0
BITMAP
00003E
0001E2
000786
000F0C
003C0C
007838
00F0F0
01E1E0
03C1C0
078000
0F0000
1E0000
1C0000
380010
780020
7000C0
600100
E00600
C01800
C06000
C18000
C60000
780000
ENDCHAR
STARTCHAR 0064
ENCODING 100
SWIDTH 333 0
DWIDTH 28 0
BBX 59 56 0 -1
BITMAP
00000000000000E0
00000000000001C0
0000000000000380
0000000000000780
0000000000000F00
0000000000001E00
0000000000001C00
0000000000003800
0000000000007000
000000000000F000
000000000001E000
000000000003C000
0000000000038000
0000000000070000
00000000000E0000
00000000001C0000
0000000000380000
0000000000780000
0000000000700000
0000000000E00000
0000000001C00000
0000000003800000
0000000007000000
000000000E000000
000000001C000000
000000003C000000
0000000078000000
0000000070000000
00000000E0000000
00000001C0000000
0000000380000000
0000000700000000
0000000F00000000
0000001E00000000
000003FC00000000
00001C3800000000
0000F07000000000
0003C0E000000000
000F80C000000000
003E01C000000000
007C038000000000
01F0070000000000
03E00E0000000000
07C01C0000000000
0F80380000000000
1F00F80000000000
1E01F00200000000
3C02E00600000000
780CC01800000000
7011803000000000
602180C000000000
E0C3018000000000
C106060000000000
C606180000000000
F804600000000000
C007800000000000
ENDCHAR
STARTCHAR 0065
ENCODING 101
SWIDTH 214 0
DWIDTH 18 0
BBX 24 23 0 -1
BITMAP
00000F
000037
0001C7
00070E
000E1E
00383C
007070
01E0E0
03C3C0
078700
0F0C00
1E3000
1CC000
3F0008
7C0018
700060
7000C0
E00300
C00C00
C03000
C0E000
C30000
7C0000
ENDCHAR
STARTCHAR 0066
ENCODING 102
SWIDTH 202 0
DWIDTH 17 0
BBX 72 86 -22 -26
BITMAP
000000000000000007
00000000000000001B
000000000000000033
000000000000000066
0000000000000000C6
00000000000000018C
00000000000000030C
000000000000000618
000000000000000C30
000000000000001830
000000000000003060
0000000000000060C0
00000000000000C180
000000000000018300
000000000000030300
000000000000070600
0000000000000E0C00
0000000000001C1800
000000000000383000
000000000000706000
00000000000060C000
000000000000C18000
000000000001C30000
000000000003860000
0000000000070C0000
00000000000E180000
00000000001C300000
000000000038600000
000000000038C00000
000000000071800000
0000000000E3000000
0000000001C4000000
000000000388000000
000000000710000000
000000000720000000
000000000EC0000000
000000001D80000000
000000003B00000000
000000007400000000
00000000F800000000
00000000F000000000
00000001E000000000
000000038000000000
000000070000000000
0000000E0000000000
0000000E0000000000
0000001C0000000000
000000380000000000
000000700000000000
000000E00040000000
000000F80180000000
000001E80300000000
000003C80C00000000
000007481000000000
000006986000000000
00000E998000000000
00001CB20000000000
000038BC0000000000
000070E00000000000
000060600000000000
0000E0C00000000000
0001C1C00000000000
000381800000000000
000303000000000000
000703000000000000
000E06000000000000
001C0E000000000000
00180C000000000000
003018000000000000
007038000000000000
006030000000000000
00C060000000000000
0180C0000000000000
0381C0000000000000
030180000000000000
060300000000000000
0C0600000000000000
0C0C00000000000000
181800000000000000
303000000000000000
306000000000000000
60C000000000000000
418000000000000000
C30000000000000000
DC0000000000000000
F00000000000000000
ENDCHAR
STARTCHAR 0067
ENCODING 103
SWIDTH 285 0
DWIDTH 24 0
BBX 49 54 -21 -31
BITMAP
00000000001F80
0000000003FF80
000000000F0700
000000003C0E00
00000000F01C00
00000001C03C00
00000007803800
0000000F007000
0000001E00E000
0000003C01C000
0000007803C000
000000F0078000
000000E00F0000
000001C01E0000
000003803C0300
00000380FC0C00
00000301F81800
00000702706000
0000060CE08000
00000611E30000
00000663CC0000
00000787B00000
0000030FC00000
0000000F000000
0000001C000000
0000003C000000
00000078000000
000000F0000000
000001E0000000
000007E0000000
00000BC0000000
00001780000000
00006F00000000
00009E00000000
00013C00000000
00063800000000
000C7800000000
0010F000000000
0021E000000000
0043C000000000
00878000000000
01070000000000
020E0000000000
041C0000000000
08380000000000
18700000000000
10E00000000000
31C00000000000
63800000000000
63000000000000
66000000000000
6C000000000000
F8000000000000
60000000000000
ENDCHAR
STARTCHAR 0068
ENCODING 104
SWIDTH 321 0
DWIDTH 27 0
BBX 57 59 -6 -1
BITMAP
0000000000000300
0000000000000F80
0000000000003900
0000000000006300
000000000000C300
0000000000018600
0000000000030C00
0000000000041800
0000000000081800
0000000000103000
0000000000306000
000000000060C000
0000000000C18000
0000000001830000
0000000003060000
00000000060C0000
000000000C180000
0000000018300000
0000000038600000
0000000070C00000
00000000E1800000
00000001C3000000
0000000386000000
000000070C000000
0000000F18000000
0000000E30000000
0000001C60000000
00000038C0000000
0000007180000000
000000E300000000
000001C600000000
000003CC00000000
0000039000000000
0000072000000000
00000EC000000000
00001D8000000000
00003B0000000000
00007C00E0000000
0000F80360000000
0000F00CC0000000
0001C018C0000000
0003806180000000
0007008380000000
000E030700000000
001C040E00000000
003C181C00000000
0038203800000000
0070407000000000
00E180E000000000
01C201C010000000
03CC038020000000
07900700C0000000
07200E0300000000
0FC01C0600000000
1F00381800000000
3E00306000000000
7C00718000000000
7000EE0000000000
E000F00000000000
ENDCHAR
STARTCHAR 0069
ENCODING 105
SWIDTH 142 0
DWIDTH 12 0
BBX 27 33 -2 -1
BITMAP
000000C0
000001E0
000003E0
000003C0
00000380
00000000
00000000
00000000
00000000
00000000
0001E000
0001E000
0003C000
00078000
000F0000
001E0000
003C0000
00780000
00F00000
00E00000
01C00000
03C00000
07800000
0F008000
0E018000
1C060000
380C0000
38300000
70400000
61800000
C6000000
D8000000
E0000000
ENDCHAR
STARTCHAR 006A
ENCODING 106
SWIDTH 178 0
DWIDTH 15 0
BBX 58 68 -31 -35
BITMAP
0000000000000180
00000000000007C0
0000000000000780
0000000000000F80
0000000000000700
0000000000000000
0000000000000000
0000000000000000
0000000000000000
0000000000000000
000000000000F000
000000000001E000
000000000003C000
0000000000078000
00000000000F8000
00000000001F0000
00000000003E0000
00000000007C0000
0000000000F80000
0000000001F80000
0000000007F00000
000000000DE00000
000000003BC00000
0000000063808000
0000000007818000
000000000F060000
000000001E0C0000
000000001C300000
000000003CC00000
0000000079800000
00000000F6000000
00000001EC000000
00000001F0000000
00000003C0000000
0000000780000000
0000000F00000000
0000001E00000000
0000003C00000000
0000007C00000000
000001F800000000
000003F000000000
000007E000000000
000019C000000000
0000338000000000
0000678000000000
00018F0000000000
00031E0000000000
00061C0000000000
000C380000000000
0018700000000000
0020F00000000000
0041E00000000000
0081C00000000000
0103800000000000
0207000000000000
060E000000000000
0C1C000000000000
1838000000000000
1030000000000000
3060000000000000
60E0000000000000
41C0000000000000
4380000000000000
C700000000000000
CE00000000000000
D800000000000000
F000000000000000
6000000000000000
ENDCHAR
STARTCHAR 006B
ENCODING 107
SWIDTH 333 0
DWIDTH 28 0
BBX 53 59 -5 -1
BITMAP
00000000000008
00000000000078
00000000000098
00000000000138
00000000000630
00000000000C30
00000000001860
00000000003040
000000000060C0
0000000000C180
0000000001C300
00000000038200
00000000070600
000000000E0C00
000000001C1800
00000000383000
00000000706000
00000000E0C000
00000001C18000
00000003C10000
00000007820000
0000000F040000
0000000E080000
0000001C100000
00000038200000
00000070400000
000000F0800000
000000E1000000
000001C6000000
0000038C000000
00000718000000
00000F20000000
00000E40000000
00001C80000000
00003B00000000
00007600180000
0000F800FC0000
0000F0073C0000
0001E018780000
00038060F00000
00078081E00000
00070307C00000
000E0C0F000000
001E103C000000
003C6070000000
003881C0000000
00790600000000
00F67800000000
01EFF800100000
03D00C00600000
03E01C00C00000
07C03803000000
0F807806000000
1F007018000000
1E00E060000000
3C01C080000000
78018700000000
F000F800000000
E0000000000000
ENDCHAR
STARTCHAR 006C
ENCODING 108
SWIDTH 178 0
DWIDTH 15 0
BBX 52 57 -1 -1
BITMAP
00000000000020
000000000001F0
00000000000660
00000000000C60
000000000018C0
00000000007080
0000000000E180
00000000018300
00000000070600
000000000E0C00
000000001C1800
00000000383000
00000000703000
00000000E06000
00000001C0C000
00000007818000
0000000F030000
0000001E060000
0000003C0C0000
00000078180000
000000F0300000
000001E0600000
000003C0C00000
00000781800000
00000F03000000
00001E06000000
00003C18000000
00003830000000
00007060000000
0000F0C0000000
0001E180000000
0003C300000000
00078600000000
000F0C00000000
000E1800000000
001C3000000000
00386000000000
00788000000000
00F10000000000
00E60000000000
01CC0000000000
03980000000000
03A00000000000
07400000000000
0E800000000000
0F000000000000
1C000000000000
38002000000000
30004000000000
70018000000000
60020000000000
400C0000000000
C0300000000000
C0C00000000000
83000000000000
8C000000000000
F0000000000000
ENDCHAR
STARTCHAR 006D
ENCODING 109
SWIDTH 488 0
DWIDTH 41 0
BBX 47 22 -2 0
BITMAP
000030018006
00007003800E
000070058036
0000E01B804E
0001C027019C
000380CE033C
000F810E0478
001F061C18F0
003E083821E0
00FC307043C0
01F840F187C0
077181E20F80
0CF203CC1E00
01E407903C0C
03D80F607810
07A01F80F060
07C03F01E180
0F007E01C300
1E00F8038C00
3C01F0033000
7801E0024000
E003C0078000
ENDCHAR
STARTCHAR 006E
ENCODING 110
SWIDTH 333 0
DWIDTH 28 0
BBX 34 22 -3 0
BITMAP
00001000C0
00003801C0
00003006C0
00006009C0
0000E03380
0001C04780
0003818F00
000F021E00
001E043C00
003E187C00
00FC20F800
01F8C1F000
067103E000
00E6078180
01C80F0200
03D01E0C00
07E01C3000
0F80386000
1F00718000
3C00620000
78004C0000
F000700000
ENDCHAR
STARTCHAR 006F
ENCODING 111
SWIDTH 226 0
DWIDTH 19 0
BBX 24 21 -1 1
BITMAP
0000FC
0003CC
000F14
001E24
007C4C
00F0CC
01E098
03C138
078130
0F0260
1E02E0
1E03C1
3C0786
380718
700FE0
701C00
607000
60E000
E38000
6E0000
780000
ENDCHAR
STARTCHAR 0070
ENCODING 112
SWIDTH 309 0
DWIDTH 26 0
BBX 54 56 -25 -23
BITMAP
000000000001C0
000000000003C0
00000000000380
00000000000700
00000000000E00
00000000001C00
00000000003800
00000000007800
0000000000F000
0000000001E000
0000000001C000
00000000038078
000000000701D8
000000000E0318
000000001C0C38
000000003C3070
000000007860E0
000000007181E0
00000000E303C0
00000001CC0780
00000003980F00
00000007601E00
0000000EC03C00
0000001F807804
0000003F00F00C
0000003C00E030
0000007801C060
000000F0038180
000001E0070200
000003C00E0C00
000007801C7000
00000F001D8000
00001E001E0000
00001C00000000
00003800000000
00007000000000
0000E000000000
0001E000000000
0003C000000000
00078000000000
000F0000000000
000E0000000000
001C0000000000
00380000000000
00780000000000
00F00000000000
01E00000000000
03C00000000000
03800000000000
07000000000000
0E000000000000
1E000000000000
3C000000000000
78000000000000
F0000000000000
E0000000000000
ENDCHAR
STARTCHAR 0071
ENCODING 113
SWIDTH 345 0
DWIDTH 29 0
BBX 44 52 -12 -30
BITMAP
000000000060
000000007FE0
00000003C1C0
0000001E03C0
000000780780
000001F00F00
000007C01E00
00000F803C00
00001E007800
00007C00F000
00007801F000
0000F003E000
0001E00FC000
0003C01F8000
0003803F0030
000780DE00C0
000701BF0180
000602790600
000E0CF10800
000E10F13000
000C61E1C000
000F83E30000
0006079F0000
00000F020000
00001E060000
00001C040000
0000380C0000
000070080000
0000E0180000
0001E0300000
0001C0200000
000380600000
000700C00000
000E01800000
001C03800000
001803000000
003006000000
00700C000000
00E018000000
01C030000000
018060000000
0300C0000000
070180000000
0E0300000000
0C0600000000
181C00000000
303800000000
306000000000
61C000000000
438000000000
CE0000000000
F80000000000
ENDCHAR
STARTCHAR 0072
ENCODING 114
SWIDTH 250 0
DWIDTH 21 0
BBX 31 23 -2 -1
BITMAP
0000000C
0000003C
0000E0F0
0001C1C0
0001C780
00038F80
00079300
000F2300
001EC600
003D8600
007A0400
01BC0C06
03780C18
0CF00820
11E018C0
23C01F00
07800C00
07000000
0E000000
1C000000
38000000
70000000
E0000000
ENDCHAR
STARTCHAR 0073
ENCODING 115
SWIDTH 261 0
DWIDTH 22 0
BBX 26 26 0 -1
BITMAP
00000040
000000C0
00000380
00000700
00000E00
00001C00
00007800
0001B800
00067000
000CF000
0030E000
00C1E000
0181C000
0603C000
08038000
30078080
00070300
1C070400
7C0F1800
5C0E6000
C01EC000
C01F0000
C03C0000
60F80000
3FE00000
1E000000
ENDCHAR
STARTCHAR 0074
ENCODING 116
SWIDTH 142 0
DWIDTH 12 0
BBX 40 42 -2 1
BITMAP
00000001C0
00000003C0
0000000780
0000000F00
0000001E00
0000003C00
0000007C00
000000F800
000001F000
000001E000
000003C000
0000078000
00FFFFFFFF
00001F0000
00003E0000
00007C0000
0000780000
0000F00000
0001E00000
0003C00000
0007800000
0007000000
000F000000
001E000000
003C000000
0078000000
0070000000
00E0000000
01C0000000
0380000000
0380000000
0700000000
0E00800000
0C01800000
1806000000
3808000000
3030000000
60C0000000
C180000000
C600000000
F800000000
E000000000
ENDCHAR
STARTCHAR 0075
ENCODING 117
SWIDTH 345 0
DWIDTH 29 0
BBX 32 22 2 0
BITMAP
0001000F
0003801E
0007003C
000F0078
001E00F0
003C01E0
007803C0
00F80780
03F00F00
07E01F00
1BC07E00
3780FC00
CF017804
1E06F00C
1C08E030
3831C040
78418180
71838600
E2030800
CC063000
F006C000
C00F0000
ENDCHAR
STARTCHAR 0076
ENCODING 118
SWIDTH 226 0
DWIDTH 19 0
BBX 24 22 -1 0
BITMAP
000F03
001E07
001C0D
003C0A
007812
00F034
01E028
01E070
03C070
0780E0
0700C0
0F0180
1E0101
1C0306
3C0518
3809E0
703000
704000
E08000
C30000
CC0000
F00000
ENDCHAR
STARTCHAR 0077
ENCODING 119
SWIDTH 404 0
DWIDTH 34 0
BBX 45 27 -2 0
BITMAP
000000000018
000000000038
000000000048
0000C00F0090
0003C01F01A0
0007C03E0340
000F807C0640
001F00F80480
001E01F00900
003C03E01E00
007807C03C00
00F00F803800
01E01F007000
03C03F006000
03807E00C000
0780FC018000
0F0378030200
1E04F0050400
1C18E01B1800
3831C023E000
704380418000
718381800000
E20702000000
CC060C000000
F00630000000
4007C0000000
000200000000
ENDCHAR
STARTCHAR 0078
ENCODING 120
SWIDTH 309 0
DWIDTH 26 0
BBX 36 23 -3 -1
BITMAP
0000000030
00000800C0
00001C0180
00003C0600
0000DC0C00
00019C3000
0003386000
0006388000
00183B0000
0030760000
00C0780000
0180F00000
0600E00100
0401E00200
0003C00C00
000DC01000
0019C06000
0061818000
0181830000
07018C0000
0C01B00000
7001C00000
C000000000
ENDCHAR
STARTCHAR 0079
ENCODING 121
SWIDTH 345 0
DWIDTH 29 0
BBX 49 54 -16 -31
BITMAP
00000000000100
00000000C00780
00000000E00F00
00000001C01E00
00000003C03C00
00000007807800
0000000F00F800
0000001E00F000
0000007E01E000
000000FC03C000
000003F80F8000
000006F01F0000
000009E03F0000
000033C05E0100
000007819C0600
00000702380C00
00000E04703000
00001E18F06000
00001C61E18000
00003883C60000
00003307980000
00003C07E00000
0000300F800000
0000001F000000
0000003C000000
00000078000000
000000F0000000
000003F0000000
000005E0000000
00000BC0000000
00003780000000
00004F00000000
00008E00000000
00011E00000000
00063C00000000
000C7800000000
0010F000000000
0021E000000000
0041C000000000
00838000000000
01070000000000
020E0000000000
041C0000000000
0C380000000000
18780000000000
10700000000000
30E00000000000
61C00000000000
63800000000000
C6000000000000
CC000000000000
D8000000000000
F0000000000000
E0000000000000
ENDCHAR
STARTCHAR 007A
ENCODING 122
SWIDTH 333 0
DWIDTH 28 0
BBX 51 53 -20 -31
BITMAP
00000000000F00
00000000003F00
0000000000E380
00000000010780
00000000060700
00000000180F00
00000000201E00
00000000C03E00
00000003007C00
0000000400F800
0000001801F000
0000006007E000
000000C00F8000
000003001E0020
000000007C0040
00000000F00180
00000001C00600
00000007800C00
0000000FF03000
0000003E18C000
000000F0198000
000001801E0000
00000200380000
00000000380000
00000000F00000
00000003F00000
00000005E00000
00000019E00000
00000063C00000
00000087800000
0000030F000000
0000061F000000
0000183E000000
0000307C000000
0000C0F8000000
000181F0000000
000303E0000000
000E07C0000000
00180F00000000
00301E00000000
00603C00000000
00C07800000000
0180F000000000
0301C000000000
06078000000000
0C0F0000000000
181C0000000000
30380000000000
20E00000000000
41C00000000000
C7000000000000
DC000000000000
F0000000000000
ENDCHAR
STARTCHAR 007B
ENCODING 123
SWIDTH 333 0
DWIDTH 28 0
BBX 53 70 3 -9
BITMAP
000000000003F8
00000000003FC0
0000000000F800
0000000003E000
000000000F8000
000000001F0000
000000003E0000
000000007C0000
00000000F80000
00000000F00000
00000001E00000
00000003E00000
00000003C00000
00000007800000
0000000F800000
0000000F000000
0000001E000000
0000001C000000
0000003C000000
00000038000000
00000070000000
000000F0000000
000000E0000000
000001C0000000
00000180000000
00000300000000
00000700000000
00000E00000000
00001800000000
00003000000000
00006000000000
0001C000000000
00070000000000
003C0000000000
07E00000000000
0FE00000000000
08380000000000
000C0000000000
00040000000000
00040000000000
00040000000000
00040000000000
00040000000000
000C0000000000
00080000000000
00180000000000
00100000000000
00300000000000
00700000000000
00600000000000
00E00000000000
01C00000000000
01800000000000
03800000000000
07000000000000
07000000000000
0E000000000000
1E000000000000
1C000000000000
3C000000000000
38000000000000
78000000000000
78000000000000
F0000000000000
F0000000000000
F0000000000000
F0000000000000
F0400000000000
FF800000000000
78000000000000
ENDCHAR
STARTCHAR 007C
ENCODING 124
SWIDTH 273 0
DWIDTH 23 0
BBX 25 76 5 -11
BITMAP
00000100
00000180
00000180
00000380
00000380
00000300
00000700
00000700
00000700
00000600
00000E00
00000E00
00000E00
00000C00
00001C00
00001C00
00001800
00003800
00003800
00003000
00003000
00007000
00007000
00006000
0000E000
0000E000
0000C000
0000C000
0001C000
00018000
00018000
00038000
00038000
00030000
00070000
00070000
00060000
00060000
000E0000
000C0000
000C0000
001C0000
00180000
00180000
00380000
00300000
00300000
00300000
00600000
00600000
00600000
00E00000
00C00000
00C00000
01C00000
01800000
01800000
03800000
03000000
03000000
06000000
06000000
06000000
0C000000
0C000000
0C000000
18000000
18000000
18000000
30000000
30000000
70000000
60000000
60000000
E0000000
C0000000
ENDCHAR
STARTCHAR 007D
ENCODING 125
SWIDTH 440 0
DWIDTH 37 0
BBX 53 70 -12 -10
BITMAP
000000000001F0
000000000007F8
00000000001878
00000000000078
00000000000078
00000000000078
00000000000078
000000000000F0
000000000000F0
000000000000E0
000000000001E0
000000000001C0
00000000000380
00000000000380
00000000000700
00000000000E00
00000000000E00
00000000001C00
00000000001800
00000000003800
00000000003000
00000000007000
00000000006000
0000000000C000
0000000000C000
00000000008000
00000000018000
00000000010000
00000000010000
00000000010000
00000000010000
00000000010000
00000000018000
0000000000FB80
00000000000F80
00000000007E00
0000000001C000
00000000060000
00000000180000
00000000300000
00000000E00000
00000001800000
00000003800000
00000007000000
0000000E000000
0000000C000000
0000001C000000
00000038000000
00000070000000
00000070000000
000000E0000000
000001E0000000
000003C0000000
000003C0000000
00000780000000
00000F00000000
00000F00000000
00001E00000000
00003E00000000
00007C00000000
00007800000000
0000F000000000
0001F000000000
0003E000000000
0007C000000000
001F0000000000
003E0000000000
01F80000000000
3FC00000000000
F0000000000000
ENDCHAR
STARTCHAR 007E
ENCODING 126
SWIDTH 369 0
DWIDTH 31 0
BBX 22 4 7 9
BITMAP
1F0000
7FF00C
803FF8
0007E0
ENDCHAR
STARTCHAR 00A1
ENCODING 161
SWIDTH 309 0
DWIDTH 26 0
BBX 42 54 -15 -26
BITMAP
0000000003C0
0000000003C0
000000000780
000000000780
000000000000
000000000000
000000000000
000000000000
000000000000
000000006000
00000000E000
00000001C000
000000038000
000000030000
000000070000
0000000E0000
0000001C0000
000000380000
000000780000
000000F00000
000000E00000
000001C00000
000003800000
000007800000
00000F000000
00001E000000
00001C000000
000038000000
000078000000
0000F0000000
0001E0000000
0003C0000000
0003C0000000
000780000000
000F00000000
001E00000000
003C00000000
003C00000000
007800000000
00F000000000
01E000000000
01E000000000
03C000000000
078000000000
0F0000000000
0F0000000000
1E0000000000
3C0000000000
780000000000
780000000000
F00000000000
E00000000000
C00000000000
800000000000
ENDCHAR
STARTCHAR 00A2
ENCODING 162
SWIDTH 226 0
DWIDTH 19 0
BBX 31 38 -4 -8
BITMAP
00000002
00000006
00000006
0000000C
00000008
00000018
00000030
00000060
000003E0
00001E20
00007860
0000F0C0
0003C0C0
00078380
000F0F00
001E1E00
003C1C00
00780000
00F00000
01E00000
01C00000
03800100
07800200
07000C00
06001000
0E006000
0C018000
0C060000
0C180000
0C600000
07800000
0C000000
18000000
10000000
30000000
60000000
60000000
C0000000
ENDCHAR
STARTCHAR 00A3
ENCODING 163
SWIDTH 619 0
DWIDTH 52 0
BBX 53 62 3 -11
BITMAP
000000000000F8
00000000000198
00000000000308
00000000000608
00000000000E18
00000000001C18
00000000003810
00000000007010
0000000000E030
0000000000E820
0000000001D820
00000000039060
00000000073040
000000000720C0
000000000E6080
000000001C6080
000000003CC100
0000000038C100
00000000708200
00000000E08200
00000001E18400
00000001C18800
00000003818800
0000000781B000
0000000701E000
0000000E000000
0000001E000000
00003FFC000000
00007FFFFE0000
00000070000000
00000070000000
000000E0000000
0001FFFFF00000
0001FFFFF00000
00000380000000
00000700000000
00400600000000
00C00E00000000
00C01C00000000
01C01800000000
03E03800000000
02607000000000
04706000000000
0438C000000000
083DC000000000
081F8000000200
180F8000001C00
1007E00001E000
3007FC007E0000
300C7FFFE00000
301803E0000000
60180000000000
60300000000000
60600000000000
60C00000000000
60800000000000
E1800000000000
E3000000000000
E6000000000000
EC000000000000
78000000000000
70000000000000
ENDCHAR
STARTCHAR 00A4
ENCODING 164
SWIDTH 261 0
DWIDTH 22 0
BBX 17 20 6 8
BITMAP
000080
000180
000300
600600
30FC00
130E00
0E0600
0C0600
1C0E00
180E00
300C00
301C00
303800
307000
18D800
1F0C00
200400
600000
C00000
800000
ENDCHAR
STARTCHAR 00A5
ENCODING 165
SWIDTH 404 0
DWIDTH 34 0
BBX 65 55 4 -2
BITMAP
000000000000000F80
0000001E0000003F00
000000E1800000FE00
00000700800003C800
00000E0080000E0000
000038018000180000
000070018000700000
0000E0018000C00000
0003C0038003800000
000780030006000000
000F0007000C000000
000E00060038000000
001C000E0060000000
0038000C00C0000000
0070001C0180000000
006000180600000000
00E000380C00000000
01C000301800000000
018000603000000000
038008E06000000000
030010C08000000000
060031810000000000
060063860000000000
0C00C30C0000000000
0C0107180000000000
08020E300000000000
18040C600000000000
10181CC00000000000
106039800000000000
198033000000000000
0E0066000000000000
0000EC000000000000
0000D8000000000000
0001B0000000000000
0003E0000000000000
0003C0000000000000
060780000000000000
3FFFFF000000000000
000E78000000000000
001C00000000000000
7FFFC0000000000000
FFFFFC000000000000
006000000000000000
00E000000000000000
01C000000000000000
018000000000000000
030000000000000000
070000000000000000
0E0000000000000000
0C0000000000000000
1C0000000000000000
380000000000000000
700000000000000000
E00000000000000000
800000000000000000
ENDCHAR
STARTCHAR 00A6
ENCODING 166
SWIDTH 273 0
DWIDTH 23 0
BBX 26 76 5 -10
BITMAP
000000C0
000000C0
000000C0
000001C0
000001C0
00000180
00000380
00000380
00000300
00000700
00000700
00000600
00000E00
00000E00
00000C00
00001C00
00001C00
00001800
00003800
00003800
00003000
00007000
00006000
00006000
00006000
0000C000
0000C000
0000C000
00018000
00018000
00018000
00030000
00030000
00030000
00000000
00000000
00000000
00000000
00000000
00000000
00180000
001C0000
00180000
00380000
00380000
00300000
00700000
00700000
00600000
00E00000
00E00000
00C00000
01C00000
01C00000
01800000
03800000
03800000
03000000
07000000
07000000
06000000
0E000000
0E000000
0C000000
0C000000
1C000000
18000000
18000000
38000000
30000000
30000000
70000000
60000000
60000000
C0000000
C0000000
ENDCHAR
STARTCHAR 00A7
ENCODING 167
SWIDTH 357 0
DWIDTH 30 0
BBX 42 49 0 -3
BITMAP
00000003FF00
0000001F0080
000000780040
000000E00040
000001800080
000003800080
000003000100
000007000600
000007000C00
000003001800
000003807000
0000038DE000
000003CFC000
00000FCF0000
000039E00000
000060E00000
0000C0F00000
0001C0700000
0001C0780000
0001C0380000
0001C03C0000
0001C01C0000
0001E01C0000
0000E01E0000
0000F01E0000
0000F01E0000
0000701E0000
0000781C0000
0000781C0000
0000381C0000
00003C380000
00003C380000
00003C700000
00003C600000
01F03CC00000
03F03F800000
06603E000000
0C003C000000
180038000000
300038000000
600070000000
600070000000
C000E0000000
C001C0000000
C00380000000
C00600000000
C01800000000
7BE000000000
040000000000
ENDCHAR
STARTCHAR 00A8
ENCODING 168
SWIDTH 369 0
DWIDTH 31 0
BBX 12 5 10 27
BITMAP
3870
78F0
F9F0
F1E0
E1C0
ENDCHAR
STARTCHAR 00A9
ENCODING 169
SWIDTH 500 0
DWIDTH 42 0
BBX 31 29 5 -2
BITMAP
00000FF0
0000F83C
0003C01E
000F000E
003C000E
0078070E
00E0398E
01C0E10E
0381C30E
0787860E
0F0E1C1E
0E1C381C
1C38101C
3C38003C
38700038
78E00078
71C00470
718018E0
F38021E0
E380C1C0
E3030380
E70C0700
E3F00E00
E3801C00
E0007000
E000E000
E0038000
701E0000
3FF00000
ENDCHAR
STARTCHAR 00AA
ENCODING 170
SWIDTH 297 0
DWIDTH 25 0
BBX 19 16 8 23
BITMAP
0001E0
001E60
0070C0
01C1C0
038380
060700
0C0600
180C00
301800
703000
60E040
C16080
C2C300
8C8C00
B09000
C1E000
ENDCHAR
STARTCHAR 00AB
ENCODING 171
SWIDTH 464 0
DWIDTH 39 0
BBX 24 11 8 4
BITMAP
0003C0
01FC00
7E001F
C00FE0
703000
3C3800
0F0E00
03C380
00F0E0
001C38
00070E
ENDCHAR
STARTCHAR 00AC
ENCODING 172
SWIDTH 404 0
DWIDTH 34 0
BBX 23 10 9 13
BITMAP
0007FE
FFFFFC
00000C
000008
000018
000010
000030
000060
000040
000040
ENDCHAR
STARTCHAR 00AE
ENCODING 174
SWIDTH 500 0
DWIDTH 42 0
BBX 31 29 5 -2
BITMAP
00000FF0
0000F83C
0003C01E
000F000E
003C07EE
0078382E
00E0606E
01C1806E
038300CE
078E018E
0F18031E
0E32061C
1C660C1C
3CC6303C
398AE038
799B0078
73120070
762200E0
F44201E0
EC8203C0
E9030380
EA010F00
EC01FE00
E0001C00
E0007000
E000E000
E0038000
701E0000
3FF00000
ENDCHAR
STARTCHAR 00AF
ENCODING 175
SWIDTH 297 0
DWIDTH 25 0
BBX 21 2 14 27
BITMAP
01FFF8
FFFFF8
ENDCHAR
STARTCHAR 00B0
ENCODING 176
SWIDTH 142 0
DWIDTH 12 0
BBX 11 10 9 28
BITMAP
03C0
0CE0
1860
3060
60E0
60C0
E180
C180
C700
7C00
ENDCHAR
STARTCHAR 00B1
ENCODING 177
SWIDTH 404 0
DWIDTH 34 0
BBX 27 24 6 9
BITMAP
00000800
00001C00
00001800
00003800
00003000
00007000
00006000
0000E000
0000C000
0001FFE0
0FFFFFE0
00030000
00030000
00060000
00060000
000C0000
00080000
00180000
00100000
00300000
00000000
00000000
00FFFE00
FFFFFC00
ENDCHAR
STARTCHAR 00B2
ENCODING 178
SWIDTH 297 0
DWIDTH 25 0
BBX 31 30 1 13
BITMAP
000001FC
00000706
00000E06
00003C06
00007806
0000F006
0001E00E
0001C08C
0003811C
00070238
00060430
00061870
000C20E0
0005C1C0
00020380
00000700
00000E00
00001C00
00003800
00007000
0000E000
0001C000
003F0000
00FF8000
031FC000
0C71E004
18C07838
23803FC0
4E000000
F8000000
ENDCHAR
STARTCHAR 00B3
ENCODING 179
SWIDTH 238 0
DWIDTH 20 0
BBX 28 31 1 13
BITMAP
000001C0
00000E20
00003030
0000C060
00018060
000200C0
000401C0
00080380
00000700
00000E00
00001C00
00003000
00007C00
00018600
00020600
00000600
00000E00
00000C00
00001C00
00003800
00007800
0000F000
0000E000
01E3C000
07478000
0C0E0000
181C0000
30380000
60E00000
C3800000
7C000000
ENDCHAR
STARTCHAR 00B4
ENCODING 180
SWIDTH 357 0
DWIDTH 30 0
BBX 12 7 10 25
BITMAP
0010
00F0
03F0
07C0
1E00
7000
8000
ENDCHAR
STARTCHAR 00B5
ENCODING 181
SWIDTH 345 0
DWIDTH 29 0
BBX 50 39 -16 -17
BITMAP
000000007003C0
00000000E00780
00000001C00F00
00000003801E00
00000007803C00
0000000F007800
0000000E00F000
0000001C01E000
0000003803C000
0000007007C000
000000F01F8000
000001E03F0000
000003C05E0100
00000781BC0300
00000F02380C00
00000E0C701000
00001C10606000
00003C60E18000
00007880C20000
0000F3018C0000
0001FC01B00000
0003F003C00000
00078000000000
00070000000000
000E0000000000
001C0000000000
003C0000000000
00780000000000
00F00000000000
01E00000000000
03C00000000000
03800000000000
07000000000000
0F000000000000
1E000000000000
3C000000000000
78000000000000
70000000000000
E0000000000000
ENDCHAR
STARTCHAR 00B6
ENCODING 182
SWIDTH 380 0
DWIDTH 32 0
BBX 44 52 -6 -13
BITMAP
000000000600
00000001FFF0
0000000FFFF0
0000003FFF90
000000FFFF30
000003FFFE60
00000FFFFCC0
00001FFFF9C0
00003FFFF380
00007FFFE700
0000FFFFCE00
0001FFFF8C00
0003FFFF1800
0003FFFE3000
0007FFDC6000
0007FFB8C000
000FFF718000
000FFE630000
000FFCE60000
001FF1CE0000
001FE38C0000
000F87180000
00000E300000
00000C600000
000018C00000
000031800000
000073000000
0000E3000000
0000C6000000
00018C000000
000318000000
000630000000
000C60000000
000C40000000
0018C0000000
003180000000
006300000000
00C600000000
00C400000000
018800000000
031800000000
063000000000
062000000000
0C4000000000
18C000000000
318000000000
310000000000
620000000000
47C000000000
8E0000000000
F80000000000
C00000000000
ENDCHAR
STARTCHAR 00B7
ENCODING 183
SWIDTH 297 0
DWIDTH 25 0
BBX 5 4 23 27
BITMAP
38
78
F8
F0
ENDCHAR
STARTCHAR 00B8
ENCODING 184
SWIDTH 226 0
DWIDTH 19 0
BBX 11 10 4 -9
BITMAP
0300
0200
07C0
00E0
0060
0060
00C0
0180
C200
3C00
ENDCHAR
STARTCHAR 00B9
ENCODING 185
SWIDTH 214 0
DWIDTH 18 0
BBX 20 31 7 12
BITMAP
000070
0000E0
0001E0
0006C0
000D80
001B80
002300
00C700
010600
0E0E00
301C00
001800
003800
003000
007000
006000
00C000
01C000
018000
038000
030000
060000
060000
0C0000
1C0000
180000
300000
300000
600000
400000
C00000
ENDCHAR
STARTCHAR 00BA
ENCODING 186
SWIDTH 190 0
DWIDTH 16 0
BBX 15 15 7 24
BITMAP
000E
0072
00E2
0382
0706
0E04
1C0C
3818
3030
6060
60C0
C180
C200
CC00
F000
ENDCHAR
STARTCHAR 00BB
ENCODING 187
SWIDTH 464 0
DWIDTH 39 0
BBX 23 11 9 5
BITMAP
60E000
387800
0E1E00
038780
00E1E0
003878
00081E
00F006
7F001C
800FE0
03F000
ENDCHAR
STARTCHAR 00BC
ENCODING 188
SWIDTH 547 0
DWIDTH 46 0
BBX 44 51 3 -4
BITMAP
000000006000
000000006000
00000000E000
00000001E000
00000701C000
00000E038000
00001E038000
00006C070000
0000D80F0000
0001B80E0000
0002301C0000
000C701C0000
001060380000
00E0E0780000
0301C0700000
000180E00000
000381E00000
000301C00800
000703803800
000603803870
000C07003060
000C0E0060E0
00180E00E1C0
00381C00C180
003038018380
006030030300
006070070700
00C0E0060600
01C0C00C0C00
0181C0181C00
030380301800
030300603800
060700C03000
040E01807000
0C0C01806000
00180FF8C1C0
0038361FC240
00704C078480
0060B003E300
00C0C0037E00
01C000060000
038000040000
0300000C0000
060000180000
0E0000100000
1C0000300000
380000200000
700000400000
600000000000
C00000000000
800000000000
ENDCHAR
STARTCHAR 00BD
ENCODING 189
SWIDTH 559 0
DWIDTH 47 0
BBX 42 51 3 -4
BITMAP
000000006000
000000006000
00000000E000
00000001E000
00000701C000
00000E038000
00001E038000
00006C070000
0000D80F0000
0001B80E0000
0002301C0000
000C701C0000
001060380000
00E0E0780000
0301C0700000
000180E00000
000381E00000
000301C00700
000703807880
00060380E0C0
000C070380C0
000C0E0700C0
00180E0E00C0
00381C1C01C0
003038380180
006030703380
006070706300
00C0E0E0C700
01C0C0C18E00
0181C1821C00
0303818C1C00
030300F03800
060700007000
040E0000E000
0C0C0001C000
001800038000
003800070000
0070000E0000
0060003C0000
00C000700000
01C00FE00000
03803DF00000
0300E7780040
06018C3E0180
0E06380FFE00
1C0C6003F000
381980000000
701E00000000
600000000000
C00000000000
800000000000
ENDCHAR
STARTCHAR 00BE
ENCODING 190
SWIDTH 607 0
DWIDTH 51 0
BBX 49 51 1 -4
BITMAP
00000000018000
00000000018000
00000000038000
000001C0070000
00000E20070000
000030300E0000
0000C0601E0000
000180601C0000
000200C03C0000
000401C0380000
00080380700000
00000700F00000
00000E00E00000
00001C01C00000
00003001C00000
00007C03800000
00018607000000
00060607006000
0000060E00E000
00000E1C00E180
00000C1C00C380
00001C38018300
00003830038700
00007870030600
0000F0E0060E00
0000E0C00C0C00
01E1C1C0181C00
07478380383800
0C0E0300303000
181C0700607000
30380E00C06000
60E00C0180E000
C380180300C000
7C003806018000
0000700C038000
0000603FE30700
0000E0F87F0A00
0001C1701E1200
000382C00F8C00
000303000DF000
00070000180000
000E0000300000
001C0000300000
00180000600000
00300000400000
00700000800000
00E00001800000
01C00001000000
03800000000000
07000000000000
02000000000000
ENDCHAR
STARTCHAR 00BF
ENCODING 191
SWIDTH 380 0
DWIDTH 32 0
BBX 41 56 -10 -28
BITMAP
000000000380
000000000780
000000000F80
000000000F00
000000000000
000000000000
000000000000
000000000000
000000000000
00000000C000
000000006000
000000003000
000000003000
000000003000
000000003000
000000003000
000000007000
000000006000
00000000E000
00000000C000
000000018000
000000030000
000000060000
0000000C0000
000000380000
000000E00000
000001800000
000007000000
00001C000000
000070000000
0001C0000000
000700000000
001E001F0000
007800618000
00F001808000
03E003008000
07C006008000
0F8008008000
1F0010008000
3E0020018000
3C0040018000
7C0080030000
780180030000
F80100060000
F802000E0000
F800000C0000
F80000180000
F80000380000
F80000F00000
780001C00000
780003800000
3C000F000000
3C003C000000
1F00F0000000
07FFC0000000
00F000000000
ENDCHAR
STARTCHAR 00C0
ENCODING 192
SWIDTH 500 0
DWIDTH 42 0
BBX 60 75 -1 -4
BITMAP
0000000000003000
0000000000003C00
0000000000001E00
0000000000000700
00000000000003C0
00000000000000E0
0000000000000030
0000000000000000
0000000000000000
0000000000000380
000000000001FC60
00000000000F0060
00000000003C0060
0000000001F00060
0000000007C00060
000000000F0000C0
000000003E0001C0
00000000F8000180
00000001F0000300
00000003E0000700
0000000FC0000E00
0000001F00001C00
0000003E00001800
0000007C00003000
000000F800007000
000001F00000E000
000003E00001C000
000007C000038000
00000F8000070380
00001F80001C0700
00003F0000380E00
00007E000C701E00
00007C0018E03C00
0000F80033C03800
0001F0003F007000
0003E0007E00F000
0003E0007801E000
0007C0000003C000
000F800000078000
001F0000000F0000
001F0000000F0000
003E0000001E0000
007C0000003C0000
007C000000780000
00F8000000F00000
00F0000001F00000
01F0000003E00000
03E0000007C00000
03C000000F800000
07C000001F800000
078000003F000000
0F8000007E000000
0F0000009C000000
1F00000138000000
1E00000278000000
1E00000470000000
3C000018E0000000
3C000031C0000000
78000061C0002000
780000C38000C000
7000018700030000
7000030600060000
E000040E00180000
E000181C00300000
E000301800C00000
C000603001800000
C000807006000000
C00300600C000000
C00600E010000000
C01800C060000000
C030018080000000
C0C0018300000000
7700010C00000000
3800013000000000
000000C000000000
ENDCHAR
STARTCHAR 00C1
ENCODING 193
SWIDTH 500 0
DWIDTH 42 0
BBX 64 74 -1 -4
BITMAP
0000000000000007
000000000000001F
000000000000007E
00000000000001F0
0000000000000380
0000000000000C00
0000000000000000
0000000000000000
0000000000000380
000000000001FC60
00000000000F0060
00000000003C0060
0000000001F00060
0000000007C00060
000000000F0000C0
000000003E0001C0
00000000F8000180
00000001F0000300
00000003E0000700
0000000FC0000E00
0000001F00001C00
0000003E00001800
0000007C00003000
000000F800007000
000001F00000E000
000003E00001C000
000007C000038000
00000F8000070380
00001F80001C0700
00003F0000380F00
00007E000C701E00
00007C0018E03C00
0000F80033C03800
0001F0003F007000
0003F0007E00F000
0003E0007801E000
0007C0000003C000
000F800000078000
001F0000000F8000
001F0000001F0000
003E0000001E0000
007C0000003C0000
007C000000780000
00F8000000F00000
00F0000001F00000
01F0000003E00000
03E0000007C00000
03C000000F800000
07C000001F800000
078000003F000000
0F8000007E000000
0F000000DC000000
1F00000138000000
1E00000278000000
1E00000470000000
3C000018E0000000
3C000031C0000000
78000063C0003000
780000C38000C000
7000018700030000
7000020600060000
E000040E00180000
E000181C00300000
E000301800C00000
C000603801800000
C000807006000000
C00300600C000000
C00600E030000000
C01800C060000000
C020018180000000
C0C0018300000000
7700010C00000000
3800013000000000
000001C000000000
ENDCHAR
STARTCHAR 00C2
ENCODING 194
SWIDTH 500 0
DWIDTH 42 0
BBX 62 75 -1 -3
BITMAP
0000000000000070
00000000000000F0
00000000000003F0
0000000000000F98
0000000000003E18
0000000000007008
000000000001C00C
0000000000000004
0000000000000000
0000000000000380
000000000001FC60
00000000000F0060
00000000003C0060
0000000001F00060
0000000007C00060
000000000F0000C0
000000003E0001C0
00000000F8000180
00000001F0000300
00000003E0000700
0000000FC0000E00
0000001F00001C00
0000003E00001800
0000007C00003000
000000F800007000
000001F00000E000
000003E00001C000
000007C000038000
00000F8000070380
00001F80001C0700
00003F0000380F00
00007E000C701E00
00007C0018E03C00
0000F80033C03800
0001F0003F007000
0003F0007E00F000
0003E0007801E000
0007C0000003C000
000F800000078000
001F0000000F8000
001F0000001F0000
003E0000001E0000
007C0000003C0000
007C000000780000
00F8000000F00000
00F0000001F00000
01F0000003E00000
03E0000007C00000
03C000000F800000
07C000001F800000
078000003F000000
0F8000007E000000
0F000000DC000000
1F00000138000000
1E00000278000000
1E00000470000000
3C000018E0000000
3C000031C0000000
78000063C0003000
780000C38000C000
7000018700030000
7000020600060000
E000040E00180000
E000181C00300000
E000301800C00000
C000603801800000
C000807006000000
C00300600C000000
C00600E030000000
C01800C060000000
C020018180000000
C0C0018300000000
7700010C00000000
3800013000000000
000001C000000000
ENDCHAR
STARTCHAR 00C3
ENCODING 195
SWIDTH 500 0
DWIDTH 42 0
BBX 63 71 -1 -3
BITMAP
0000000000003F06
0000000000007FCC
00000000000003F0
0000000000000000
0000000000000000
0000000000000380
000000000001FC60
00000000000F0060
00000000003C0060
0000000001F00060
0000000007C00060
000000000F0000C0
000000003E0001C0
00000000F8000180
00000001F0000300
00000003E0000700
0000000FC0000E00
0000001F00001C00
0000003E00001800
0000007C00003000
000000F800007000
000001F00000E000
000003E00001C000
000007C000038000
00000F8000070380
00001F80001C0700
00003F0000380F00
00007E000C701E00
00007C0018E03C00
0000F80033C03800
0001F0003F007000
0003F0007E00F000
0003E0007801E000
0007C0000003C000
000F800000078000
001F0000000F8000
001F0000001F0000
003E0000001E0000
007C0000003C0000
007C000000780000
00F8000000F00000
00F0000001F00000
01F0000003E00000
03E0000007C00000
03C000000F800000
07C000001F800000
078000003F000000
0F8000007E000000
0F000000DC000000
1F00000138000000
1E00000278000000
1E00000470000000
3C000018E0000000
3C000031C0000000
78000063C0003000
780000C38000C000
7000018700030000
7000020600060000
E000040E00180000
E000181C00300000
E000301800C00000
C000603801800000
C000807006000000
C00300600C000000
C00600E030000000
C01800C060000000
C020018180000000
C0C0018300000000
7700010C00000000
3800013000000000
000001C000000000
ENDCHAR
STARTCHAR 00C4
ENCODING 196
SWIDTH 500 0
DWIDTH 42 0
BBX 61 73 -1 -3
BITMAP
0000000000003C70
0000000000007CF8
00000000000078F0
00000000000079E0
0000000000000000
0000000000000000
0000000000000000
0000000000000380
000000000001FC60
00000000000F0060
00000000003C0060
0000000001F00060
0000000007C00060
000000000F0000C0
000000003E0001C0
00000000F8000180
00000001F0000300
00000003E0000700
0000000FC0000E00
0000001F00001C00
0000003E00001800
0000007C00003000
000000F800007000
000001F00000E000
000003E00001C000
000007C000038000
00000F8000070380
00001F80001C0700
00003F0000380E00
00007E000C701E00
00007C0018E03C00
0000F80033C03800
0001F0003F007000
0003E0007E00F000
0003E0007801E000
0007C0000003C000
000F800000078000
001F0000000F0000
001F0000000F0000
003E0000001E0000
007C0000003C0000
007C000000780000
00F8000000F00000
00F0000001F00000
01F0000003E00000
03E0000007C00000
03C000000F800000
07C000001F800000
078000003F000000
0F8000007E000000
0F0000009C000000
1F00000138000000
1E00000278000000
1E00000470000000
3C000018E0000000
3C000031C0000000
78000061C0002000
780000C38000C000
7000018700030000
7000030600060000
E000040E00180000
E000181C00300000
E000301800C00000
C000603001800000
C000807006000000
C00300600C000000
C00600E010000000
C01800C060000000
C030018080000000
C0C0018300000000
7700010C00000000
3800013000000000
000000C000000000
ENDCHAR
STARTCHAR 00C5
ENCODING 197
SWIDTH 500 0
DWIDTH 42 0
BBX 62 75 -1 -3
BITMAP
00000000000000F8
000000000000018C
000000000000030C
0000000000000608
0000000000000618
0000000000000630
0000000000000660
00000000000003C0
0000000000000000
0000000000000380
000000000001FC60
00000000000F0060
00000000003C0060
0000000001F00060
0000000007C00060
000000000F0000C0
000000003E0001C0
00000000F8000180
00000001F0000300
00000003E0000700
0000000FC0000E00
0000001F00001C00
0000003E00001800
0000007C00003000
000000F800007000
000001F00000E000
000003E00001C000
000007C000038000
00000F8000070380
00001F80001C0700
00003F0000380F00
00007E000C701E00
00007C0018E03C00
0000F80033C03800
0001F0003F007000
0003F0007E00F000
0003E0007801E000
0007C0000003C000
000F800000078000
001F0000000F8000
001F0000001F0000
003E0000001E0000
007C0000003C0000
007C000000780000
00F8000000F00000
00F0000001F00000
01F0000003E00000
03E0000007C00000
03C000000F800000
07C000001F800000
078000003F000000
0F8000007E000000
0F000000DC000000
1F00000138000000
1E00000278000000
1E00000470000000
3C000018E0000000
3C000031C0000000
78000063C0003000
780000C38000C000
7000018700030000
7000020600060000
E000040E00180000
E000181C00300000
E000301800C00000
C000603801800000
C000807006000000
C00300600C000000
C00600E030000000
C01800C060000000
C020018180000000
C0C0018300000000
7700010C00000000
3800013000000000
000001C000000000
ENDCHAR
STARTCHAR 00C6
ENCODING 198
SWIDTH 583 0
DWIDTH 49 0
BBX 82 69 -1 -4
BITMAP
0000000000000000001F80
000000000000000007E040
00000000000000003E0040
0000000000000381F000C0
000000000001FC67C001C0
00000000000F007F000180
00000000003C007C000700
0000000001F001F0000F00
0000000007C003C0001E00
000000000F000F80003C00
000000003E001E00007000
00000000F8007C0001E000
00000001F000F80003C000
00000003E001E000078000
0000000FC003C0031E0000
0000001F000780067C0000
0000003E000F000FF00000
0000007C001E000FC00000
000000F8003C000F000000
000001F000780000000000
000003E000F00000000000
000007C001E00000000000
00000F8003E00000000000
00001F8003C00000000000
00003F0007800000000000
00007E000F000000000000
00007C000F000000000000
0000F8001E000010000000
0001F0001C000030000000
0003F0001C0000E0000000
0003E0003C000180000000
0007C00038000700000000
000F800038001C00000000
001F000038007000000000
001F00001801E000000000
003E00000E3F8000000000
007C000001CF0000000000
007C0000003C0000000000
00F8000000780000000000
00F0000001F00000000000
01F0000003E00000000000
03E0000007C00000000000
03C000000F800000000000
07C000003F000000000000
078000007E000000000000
0F800000FC000000000000
0F000001F8000000000000
1F000003F0000000000000
1E000007E0000000000000
1E00000FC0000000000000
3C00001F80000000000000
3C00003F00000000000000
7800007F00000060000000
780000DE00000180000000
700001BC00000300000000
7000027800000C00000000
E0000C7800001800000000
E000187000006000000000
E00030F00000C000000000
C00060E000030000000000
C00080E000060000000000
C00300C000180000000000
C00601C000700000000000
C01801C001C00000000000
C03001C003000000000000
C0C000C00C000000000000
770000C078000000000000
3800007FE0000000000000
0000001F00000000000000
ENDCHAR
STARTCHAR 00C7
ENCODING 199
SWIDTH 297 0
DWIDTH 25 0
BBX 65 75 -3 -13
BITMAP
000000000000003800
0000000000001FEF00
000000000000F00100
000000000007800080
00000000001E000080
000000000078000180
0000000001E0000100
000000000780000100
000000000F00000300
000000003C00000600
000000007800000600
00000001E000000C00
00000003C000001800
000000078000003800
0000000F0000007000
0000001E000000E000
0000003C000000C000
000000780000018000
000000F00000038000
000003E00000070000
000003C000001E0000
0000078000003C0000
00000F000000780000
00001E000000F00000
00003C000001E00000
000078000003C00000
0000F000000F000000
0001F000001E000000
0001E000087C000000
0003C00018F8000000
0007800033E0000000
000F80007FC0000000
000F0000FF00000000
001E0000F800000000
003E00000000000000
003C00000000000000
007800000000000000
00F800000000000000
00F000000000000000
01E000000000000000
01E000000000000000
03C000000000000000
03C000000000000000
078000000000000000
078000000000000000
0F0000000000000000
0F0000000000000000
0E0000000000000000
1E0000000000000000
1E0000003000000000
1C0000006000000000
3C0000018000000000
3C0000020000000000
3800000C0000000000
380000100000000000
380000600000000000
780001800000000000
780003000000000000
78000C000000000000
380038000000000000
3800E0000000000000
380380000000000000
3C0F00000000000000
1FFC00000000000000
0FF000000000000000
070000000000000000
040000000000000000
0F8000000000000000
01C000000000000000
00C000000000000000
00C000000000000000
018000000000000000
030000000000000000
8C0000000000000000
700000000000000000
ENDCHAR
STARTCHAR 00C8
ENCODING 200
SWIDTH 309 0
DWIDTH 26 0
BBX 60 78 -1 -4
BITMAP
0000000000003000
0000000000003800
0000000000001E00
0000000000000F00
0000000000000380
00000000000000E0
0000000000000030
0000000000000000
0000000000000000
0000000000000FC0
000000000003F020
00000000001F0020
0000000000F80060
0000000003E00060
000000000F8000C0
000000003E0001C0
00000000F8000780
00000001E0000F00
00000007C0001E00
0000000F00003800
0000003E0000F000
0000007C0001E000
000000F80003C000
000001E0018F0000
000003C0033E0000
0000078003F80000
00000F0007E00000
00001E0007800000
00003C0000000000
0000780000000000
0000F00000000000
0001F00000000000
0001E00000000000
0003C00000000000
0007800000000000
0007800000000000
000F000008000000
000E000018000000
000E000070000000
001E0000C0000000
001C000380000000
001C000E00000000
001C003800000000
000C00F000000000
00071FC000000000
0000E78000000000
00001E0000000000
00003C0000000000
0000F80000000000
0001F00000000000
0003E00000000000
000FC00000000000
001F800000000000
003F000000000000
007E000000000000
007C000000000000
00F8000000000000
01F0000000000000
03E0000000000000
03C0000000000000
07C0000000000000
0F80000030000000
0F00000040000000
1E00000180000000
1E00000600000000
3C00000C00000000
3800003000000000
7800006000000000
7000018000000000
7000030000000000
60000C0000000000
6000380000000000
E000600000000000
6001800000000000
6007000000000000
603C000000000000
3FF0000000000000
0F80000000000000
ENDCHAR
STARTCHAR 00C9
ENCODING 201
SWIDTH 309 0
DWIDTH 26 0
BBX 61 78 -1 -4
BITMAP
0000000000000018
0000000000000078
00000000000001F0
00000000000007C0
0000000000001E00
0000000000003000
0000000000004000
0000000000000000
0000000000000000
0000000000000FC0
000000000003F020
00000000001F0020
0000000000F80060
0000000003E000E0
000000000F8000C0
000000003E0001C0
00000000F8000780
00000001E0000F00
00000007C0001E00
0000000F00003800
0000003E0000F000
0000007C0001E000
000000F80003C000
000001E0018F0000
000003C0033E0000
0000078003F80000
00000F0007E00000
00001E0007800000
00003C0000000000
0000780000000000
0000F80000000000
0001F00000000000
0001E00000000000
0003C00000000000
0007800000000000
0007800000000000
000F000008000000
000E000018000000
000E000070000000
001E0000C0000000
001C000380000000
001C000E00000000
001C003800000000
000C00F000000000
00071FC000000000
0000E78000000000
00001E0000000000
00003C0000000000
0000F80000000000
0001F00000000000
0003E00000000000
000FC00000000000
001F800000000000
003F000000000000
007E000000000000
007C000000000000
00F8000000000000
01F0000000000000
03E0000000000000
07C0000000000000
07C0000000000000
0F80000030000000
0F00000060000000
1E00000180000000
1E00000600000000
3C00000C00000000
3800003000000000
7800006000000000
7000018000000000
7000030000000000
60000C0000000000
E000380000000000
6000600000000000
6001800000000000
6006000000000000
6038000000000000
3FE0000000000000
0F00000000000000
ENDCHAR
STARTCHAR 00CA
ENCODING 202
SWIDTH 309 0
DWIDTH 26 0
BBX 62 78 -1 -4
BITMAP
0000000000000030
00000000000000F0
00000000000003F0
00000000000007F0
0000000000001E10
0000000000007818
000000000001E008
000000000003000C
0000000000000000
0000000000000FC0
000000000003F020
00000000001F0020
0000000000F80060
0000000003E000E0
000000000F8000C0
000000003E0001C0
00000000F8000780
00000001E0000F00
00000007C0001E00
0000000F00003800
0000003E0000F000
0000007C0001E000
000000F80003C000
000001E0018F0000
000003C0033E0000
0000078003F80000
00000F0007E00000
00001E0007800000
00003C0000000000
0000780000000000
0000F80000000000
0001F00000000000
0001E00000000000
0003C00000000000
0007800000000000
0007800000000000
000F000008000000
000E000018000000
000E000070000000
001E0000C0000000
001C000380000000
001C000E00000000
001C003800000000
000C00F000000000
00071FC000000000
0000E78000000000
00001E0000000000
00003C0000000000
0000F80000000000
0001F00000000000
0003E00000000000
000FC00000000000
001F800000000000
003F000000000000
007E000000000000
007C000000000000
00F8000000000000
01F0000000000000
03E0000000000000
07C0000000000000
07C0000000000000
0F80000030000000
0F00000060000000
1E00000180000000
1E00000600000000
3C00000C00000000
3800003000000000
7800006000000000
7000018000000000
7000030000000000
60000C0000000000
E000380000000000
6000600000000000
6001800000000000
6006000000000000
6038000000000000
3FE0000000000000
0F00000000000000
ENDCHAR
STARTCHAR 00CB
ENCODING 203
SWIDTH 309 0
DWIDTH 26 0
BBX 59 76 -1 -4
BITMAP
000000000000C180
000000000001E3C0
000000000003E7C0
000000000003C780
0000000000038700
0000000000000000
0000000000000000
0000000000000FC0
000000000003F020
00000000001F0020
0000000000F80060
0000000003E00060
000000000F8000C0
000000003E0001C0
00000000F8000780
00000001E0000F00
00000007C0001E00
0000000F00003800
0000003E0000F000
0000007C0001E000
000000F80003C000
000001E0018F0000
000003C0033E0000
0000078003F80000
00000F0007E00000
00001E0007800000
00003C0000000000
0000780000000000
0000F00000000000
0001F00000000000
0001E00000000000
0003C00000000000
0007800000000000
0007800000000000
000F000008000000
000E000018000000
000E000070000000
001E0000C0000000
001C000380000000
001C000E00000000
001C003800000000
000C00F000000000
00071FC000000000
0000E78000000000
00001E0000000000
00003C0000000000
0000F80000000000
0001F00000000000
0003E00000000000
000FC00000000000
001F800000000000
003F000000000000
007E000000000000
007C000000000000
00F8000000000000
01F0000000000000
03E0000000000000
03C0000000000000
07C0000000000000
0F80000030000000
0F00000040000000
1E00000180000000
1E00000600000000
3C00000C00000000
3800003000000000
7800006000000000
7000018000000000
7000030000000000
60000C0000000000
6000380000000000
E000600000000000
6001800000000000
6007000000000000
603C000000000000
3FF0000000000000
0F80000000000000
ENDCHAR
STARTCHAR 00CC
ENCODING 204
SWIDTH 428 0
DWIDTH 36 0
BBX 61 83 1 -11
BITMAP
0000000000003800
0000000000003C00
0000000000001E00
0000000000000780
00000000000001C0
0000000000000060
0000000000000018
0000000000000000
0000000000000F80
000000000001F040
00000000000F0020
00000000003C0020
0000000000F00020
0000000003C00020
000000000F800060
000000001E000060
000000007C000060
00000000F00000E0
00000001E00000C0
00000003C00000C0
00000007800001C0
0000000F00000180
0000001E00000380
0000003C00000380
0000007800000700
000000F000000F00
000001E000000E00
000003C000001E00
0000078000003C00
0000070000003800
00000E0000007800
00001E000000F000
00003C000000F000
000038000021E000
000070000043C000
000070000087C000
0000E00001078000
0000C000020F0000
0001C000041F0000
00018000083E0000
00038000303C0000
0003000040780000
0003000180F80000
0003000201F00000
0002000C03E00000
0002003007C00000
000300C00F800000
000303001F000000
0000FC001E000000
000000003C000000
0000000078000000
00000000F0000000
00000001E0000000
00000003E0000000
00000007C0000000
0000000F80000000
0000001E00000000
0000003C00000000
0000007800000000
000000F000000000
000001E000000000
000003C000000000
0000078000000000
00000F0000000000
00001E0000000000
00003C0000000000
0000780000000000
0000F00000000000
0001C00000000000
0003800000000000
0007000000000000
000E000000000000
001C000000000000
0030000000000000
0060000000000000
00C0000000000000
0180000000000000
0600000000000000
0C00000000000000
1800000000000000
3000000000000000
4000000000000000
8000000000000000
ENDCHAR
STARTCHAR 00CD
ENCODING 205
SWIDTH 428 0
DWIDTH 36 0
BBX 62 82 1 -11
BITMAP
000000000000003C
00000000000000F8
00000000000001F0
00000000000007C0
0000000000001E00
0000000000007000
0000000000000000
0000000000000F80
000000000001F040
00000000000F0020
00000000003C0020
0000000000F00020
0000000003C00020
000000000F800060
000000001E000060
000000007C000060
00000000F00000E0
00000001E00000C0
00000003C00000C0
00000007800001C0
0000000F00000180
0000001E00000380
0000003C00000380
0000007800000700
000000F000000F00
000001E000000E00
000003C000001E00
0000078000003C00
0000070000003800
00000E0000007800
00001E000000F000
00003C000000F000
000038000021E000
000070000043C000
000070000087C000
0000E00001078000
0000C000020F0000
0001C000041F0000
00018000083E0000
00038000303C0000
0003000040780000
0003000180F80000
0003000201F00000
0002000C03E00000
0002003007C00000
000300C00F800000
000303001F000000
0000FC001E000000
000000003C000000
0000000078000000
00000000F0000000
00000001E0000000
00000003E0000000
00000007C0000000
0000000F80000000
0000001E00000000
0000003C00000000
0000007800000000
000000F000000000
000001E000000000
000003C000000000
0000078000000000
00000F0000000000
00001E0000000000
00003C0000000000
0000780000000000
0000F00000000000
0001C00000000000
0003800000000000
0007000000000000
000E000000000000
001C000000000000
0030000000000000
0060000000000000
00C0000000000000
0180000000000000
0600000000000000
0C00000000000000
1800000000000000
3000000000000000
4000000000000000
8000000000000000
ENDCHAR
STARTCHAR 00CE
ENCODING 206
SWIDTH 428 0
DWIDTH 36 0
BBX 63 84 1 -12
BITMAP
0000000000000030
0000000000000078
00000000000001F8
00000000000007D8
0000000000001F18
0000000000003C0C
000000000000E004
0000000000018006
0000000000000000
0000000000000F80
000000000001F040
00000000000F0020
00000000003C0020
0000000000F00020
0000000003C00020
000000000F800060
000000001E000060
000000007C000060
00000000F00000E0
00000001E00000C0
00000003C00000C0
00000007800001C0
0000000F00000180
0000001E00000380
0000003C00000380
0000007800000700
000000F000000F00
000001E000000E00
000003C000001E00
0000078000003C00
0000070000003800
00000E0000007800
00001E000000F000
00003C000000F000
000038000021E000
000070000043C000
000070000087C000
0000E00001078000
0000C000020F0000
0001C000041F0000
00018000083E0000
00038000303C0000
0003000040780000
0003000180F80000
0003000201F00000
0002000C03E00000
0002003007C00000
000300C00F800000
000303001F000000
0000FC001E000000
000000003C000000
0000000078000000
00000000F0000000
00000001E0000000
00000003E0000000
00000007C0000000
0000000F80000000
0000001E00000000
0000003C00000000
0000007800000000
000000F000000000
000001E000000000
000003C000000000
0000078000000000
00000F0000000000
00001E0000000000
00003C0000000000
0000780000000000
0000F00000000000
0001C00000000000
0003800000000000
0007000000000000
000E000000000000
001C000000000000
0030000000000000
0060000000000000
00C0000000000000
0180000000000000
0600000000000000
0C00000000000000
1800000000000000
3000000000000000
4000000000000000
8000000000000000
ENDCHAR
STARTCHAR 00CF
ENCODING 207
SWIDTH 428 0
DWIDTH 36 0
BBX 61 82 1 -11
BITMAP
0000000000001E38
0000000000003E78
0000000000003CF8
00000000000038F0
0000000000000040
0000000000000000
0000000000000000
0000000000000F80
000000000001F040
00000000000F0020
00000000003C0020
0000000000F00020
0000000003C00020
000000000F800060
000000001E000060
000000007C000060
00000000F00000E0
00000001E00000C0
00000003C00000C0
00000007800001C0
0000000F00000180
0000001E00000380
0000003C00000380
0000007800000700
000000F000000F00
000001E000000E00
000003C000001E00
0000078000003C00
0000070000003800
00000E0000007800
00001E000000F000
00003C000000F000
000038000021E000
000070000043C000
000070000087C000
0000E00001078000
0000C000020F0000
0001C000041F0000
00018000083E0000
00038000303C0000
0003000040780000
0003000180F80000
0003000201F00000
0002000C03E00000
0002003007C00000
000300C00F800000
000303001F000000
0000FC001E000000
000000003C000000
0000000078000000
00000000F0000000
00000001E0000000
00000003E0000000
00000007C0000000
0000000F80000000
0000001E00000000
0000003C00000000
0000007800000000
000000F000000000
000001E000000000
000003C000000000
0000078000000000
00000F0000000000
00001E0000000000
00003C0000000000
0000780000000000
0000F00000000000
0001C00000000000
0003800000000000
0007000000000000
000E000000000000
001C000000000000
0030000000000000
0060000000000000
00C0000000000000
0180000000000000
0600000000000000
0C00000000000000
1800000000000000
3000000000000000
4000000000000000
8000000000000000
ENDCHAR
STARTCHAR 00D0
ENCODING 208
SWIDTH 702 0
DWIDTH 59 0
BBX 79 74 0 -12
BITMAP
000000000000007FFF00
00000000000007C000E0
0000000000003C000030
000000000001E0000018
0000000000078000000C
00000000001E0000000C
00000000007800000006
0000000000F000000006
0000000003C000000006
00000000078000000006
000000001F0000000006
000000003C000E000006
0000000078000E000006
00000000F0001E000006
00000001E0003C000006
00000003C0003800000E
0000000780007800000C
0000000F0000F000000C
0000001E0001E000001C
0000003C0003E0000018
0000007C0003C0000038
000000F8000780000038
000000F0000F00000070
000001E0001F00000070
000003C0001E000000E0
000003C0003C000000E0
000007800078000001C0
00000F0000F0000003C0
00000F0001F000000380
00001E0001E000000780
00001E0003C000000F00
00003C00078000001E00
000038000F0000001C00
000078000E0000003C00
0000787FFE0000007800
000070FFFFFE0800F000
0000F00078001801E000
0000E000F0003001E000
0000E000E0006003C000
0000E001C000C0078000
0001C003C001800F0000
0001C0078002001E0000
0001C00F0004003C0000
0001C00E001800780000
0001C01C003000F00000
0301C038004001E00000
0301C078018003C00000
0700C0F003000F800000
0700C0E00C001F000000
0F00E1C030003C000000
0F006380E00078000000
1F003F030001F0000000
1F001FFC0003E0000000
13000E00000F80000000
33801C00001F00000000
33803800007C00000000
31C0700001F000000000
20C0E00003C000000000
60E0C0000F0000000000
607180003C0000000000
601F0001F00000000000
600F000F800000000000
400FFFF8000000000000
C00C0000000000000000
C0180000000000000000
C0300000000000000000
C0600000000000000000
C0C00000000000000000
C1800000000000000000
C3000000000000000000
C2000000000000000000
E4000000000000000000
F8000000000000000000
70000000000000000000
ENDCHAR
STARTCHAR 00D1
ENCODING 209
SWIDTH 511 0
DWIDTH 43 0
BBX 80 90 0 -19
BITMAP
00000000000000080000
000000000000003F0400
000000000000006FF800
0000000000000003F000
00000000000000000003
00000000000000000007
0000000001FC0000001E
000000001E0200000026
0000000070020000004C
00000003C0020000009C
0000000F000200000138
0000001C000200000278
00000070000200000470
000001E00006000008E0
000003800004000031E0
00000700000C000043C0
00001E00000C00008780
00003C00001800010F00
00007800001800020F00
0000F000003000041E00
0001E000007000083C00
00038000006000107800
0007800000E00020F800
000F000001C000C1F000
001E000001C00181E000
003C000003800303C000
0078000007000407C000
00F000000700080F8000
01E000000E00101F0000
01C000001C00203E0000
038000001C00403C0000
078000003800807C0000
07000000780100F80000
0E000010F00601F00000
0E000020E00C03E00000
1C000041C01807C00000
180000C3C03007C00000
3800018780400F800000
3000030700801F000000
7000040F01003E000000
6000081E02007C000000
6000103C0400F8000000
C000207C0800F8000000
C000C0781001F0000000
800180F02003E0000000
800201E04007C0000000
800C03C1800F80000000
801007C3001F00000000
80600784001F00000000
43800F08003E00000000
3C001E10007C00000000
00003E2000F800000000
00007C4001F000000000
0000788001E000000000
0000F10003E000000000
0001E20007C000000000
0003C4000F8000000000
0007D8000F0000000000
0007B0001E0000000000
000F60003C0000000000
001EC0007C0000000000
003D0000780000000000
007E0000F00000000000
00FC0001E00000000000
00F80003C00000000000
01F00003C00000000000
03E00007800000000000
07C0000F000000000000
0F80000E000000000000
0F00001E000000000000
1E00003C000000000000
3C000038000000000000
78000070000000000000
700000F0000000000000
000000E0000000000000
000001C0000000000000
00000380000000000000
00000380000000000000
00000700000000000000
00000600000000000000
00000E00000000000000
00000C00000000000000
00001800000000000000
00001800000000000000
00003000000000000000
00003000000000000000
00002000000000000000
00006200000000000000
00004C00000000000000
00007800000000000000
ENDCHAR
STARTCHAR 00D2
ENCODING 210
SWIDTH 440 0
DWIDTH 37 0
BBX 62 73 -1 -2
BITMAP
0000000000001C00
0000000000000F00
0000000000000780
00000000000001C0
00000000000000E0
0000000000000038
0000000000000004
0000000000000000
0000000000000000
0000000000003FC0
000000000007C020
00000000003C0020
0000000001E00020
0000000007800060
000000001E000040
00000000780000C0
00000000E0000188
00000003C0000388
0000000700000708
0000001E00000608
0000003C00000E18
0000007000001C10
000000E000007810
000001C00000F030
000003800001E020
000007000003C020
00000E00000F8060
00001C00011E0040
00003C0003FC00C0
0000780007F00080
0000F00000000180
0001E00000000100
0003C00000000300
0003C00000000200
0007800000000600
000F000000000C00
001E000000000C00
001E000000001800
003C000000003800
0078000000003000
0078000000006000
00F000000000E000
01F000000001C000
01E0000000038000
03C0000000038000
03C0000000070000
07800000000E0000
07800000001C0000
0F000000003C0000
0F00000000780000
1E00000000F00000
1E00000001E00000
3C00000003C00000
3C00000007800000
3C0000000F000000
780000001E000000
780000003C000000
7800000078000000
70000000F0000000
F0000003E0000000
F0000007C0000000
E000000F80000000
E000003F00000000
E000007C00000000
E00000F800000000
E00003E000000000
E00007C000000000
E0001F0000000000
E0007C0000000000
E001F00000000000
E007C00000000000
703E000000000000
3FF0000000000000
ENDCHAR
STARTCHAR 00D3
ENCODING 211
SWIDTH 440 0
DWIDTH 37 0
BBX 64 73 -1 -3
BITMAP
0000000000000001
000000000000000F
000000000000003E
00000000000000FC
00000000000001E0
0000000000000700
0000000000000800
0000000000000000
0000000000000000
0000000000003FC0
000000000007C020
00000000003C0020
0000000001E00020
0000000007800060
000000001E000040
00000000780000C0
00000000E0000188
00000003C0000388
0000000700000708
0000001E00000608
0000003C00000E18
0000007000001C10
000000E000007810
000001C00000F030
000003800001E020
000007000003C020
00000E00000F8060
00001C00011E0040
00003C0003FC00C0
0000780007F00080
0000F00000000180
0001E00000000100
0003C00000000300
0003C00000000200
0007800000000600
000F000000000C00
001E000000000C00
001E000000001800
003C000000003800
0078000000003000
0078000000006000
00F000000000E000
01F000000001C000
01E0000000038000
03C0000000038000
03C0000000070000
07800000000E0000
07800000001C0000
0F000000003C0000
0F00000000780000
1E00000000F00000
1E00000001E00000
3C00000003C00000
3C00000007800000
3C0000000F000000
780000001E000000
780000003C000000
7800000078000000
70000000F0000000
F0000003E0000000
F0000007C0000000
E000000F80000000
E000003F00000000
E000007C00000000
E00000F800000000
E00003E000000000
E00007C000000000
E0001F0000000000
E0007C0000000000
E001F00000000000
E007C00000000000
703E000000000000
3FF0000000000000
ENDCHAR
STARTCHAR 00D4
ENCODING 212
SWIDTH 440 0
DWIDTH 37 0
BBX 62 73 -1 -2
BITMAP
0000000000000030
00000000000000F8
00000000000003F8
00000000000007D8
0000000000001E18
0000000000007808
000000000001E00C
0000000000010004
0000000000000000
0000000000003FC0
000000000007C020
00000000003C0020
0000000001E00020
0000000007800060
000000001E000040
00000000780000C0
00000000E0000188
00000003C0000388
0000000700000708
0000001E00000608
0000003C00000E18
0000007000001C10
000000E000007810
000001C00000F030
000003800001E020
000007000003C020
00000E00000F8060
00001C00011E0040
00003C0003FC00C0
0000780007F00080
0000F00000000180
0001E00000000100
0003C00000000300
0003C00000000200
0007800000000600
000F000000000C00
001E000000000C00
001E000000001800
003C000000003800
0078000000003000
0078000000006000
00F000000000E000
01F000000001C000
01E0000000038000
03C0000000038000
03C0000000070000
07800000000E0000
07800000001C0000
0F000000003C0000
0F00000000780000
1E00000000F00000
1E00000001E00000
3C00000003C00000
3C00000007800000
3C0000000F000000
780000001E000000
780000003C000000
7800000078000000
70000000F0000000
F0000003E0000000
F0000007C0000000
E000000F80000000
E000003F00000000
E000007C00000000
E00000F800000000
E00003E000000000
E00007C000000000
E0001F0000000000
E0007C0000000000
E001F00000000000
E007C00000000000
703E000000000000
3FF0000000000000
ENDCHAR
STARTCHAR 00D5
ENCODING 213
SWIDTH 440 0
DWIDTH 37 0
BBX 63 71 -1 -3
BITMAP
0000000000000400
0000000000001F82
00000000000027FC
00000000000000F8
0000000000000000
0000000000000000
0000000000000000
0000000000003FC0
000000000007C020
00000000003C0020
0000000001E00020
0000000007800060
000000001E000040
00000000780000C0
00000000E0000188
00000003C0000388
0000000700000708
0000001E00000608
0000003C00000E18
0000007000001C10
000000E000007810
000001C00000F030
000003800001E020
000007000003C020
00000E00000F8060
00001C00011E0040
00003C0003FC00C0
0000780007F00080
0000F00000000180
0001E00000000100
0003C00000000300
0003C00000000200
0007800000000600
000F000000000C00
001E000000000C00
001E000000001800
003C000000003800
0078000000003000
0078000000006000
00F000000000E000
01F000000001C000
01E0000000038000
03C0000000038000
03C0000000070000
07800000000E0000
07800000001C0000
0F000000003C0000
0F00000000780000
1E00000000F00000
1E00000001E00000
3C00000003C00000
3C00000007800000
3C0000000F000000
780000001E000000
780000003C000000
7800000078000000
70000000F0000000
F0000003E0000000
F0000007C0000000
E000000F80000000
E000003F00000000
E000007C00000000
E00000F800000000
E00003E000000000
E00007C000000000
E0001F0000000000
E0007C0000000000
E001F00000000000
E007C00000000000
703E000000000000
3FF0000000000000
ENDCHAR
STARTCHAR 00D6
ENCODING 214
SWIDTH 440 0
DWIDTH 37 0
BBX 63 72 -1 -2
BITMAP
000000000000071E
0000000000000F1E
0000000000001F3E
0000000000001E3C
0000000000000000
0000000000000000
0000000000000000
0000000000000000
0000000000003FC0
000000000007C020
00000000003C0020
0000000001E00020
0000000007800060
000000001E000040
00000000780000C0
00000000E0000188
00000003C0000388
0000000700000708
0000001E00000608
0000003C00000E18
0000007000001C10
000000E000007810
000001C00000F030
000003800001E020
000007000003C020
00000E00000F8060
00001C00011E0040
00003C0003FC00C0
0000780007F00080
0000F00000000180
0001E00000000100
0003C00000000300
0003C00000000200
0007800000000600
000F000000000C00
001E000000000C00
001E000000001800
003C000000003800
0078000000003000
0078000000006000
00F000000000E000
01F000000001C000
01E0000000038000
03C0000000038000
03C0000000070000
07800000000E0000
07800000001C0000
0F000000003C0000
0F00000000780000
1E00000000F00000
1E00000001E00000
3C00000003C00000
3C00000007800000
3C0000000F000000
780000001E000000
780000003C000000
7800000078000000
70000000F0000000
F0000003E0000000
F0000007C0000000
E000000F80000000
E000003F00000000
E000007C00000000
E00000F800000000
E00003E000000000
E00007C000000000
E0001F0000000000
E0007C0000000000
E001F00000000000
E007C00000000000
703E000000000000
3FF0000000000000
ENDCHAR
STARTCHAR 00D7
ENCODING 215
SWIDTH 380 0
DWIDTH 32 0
BBX 23 15 8 13
BITMAP
000006
04000E
060038
030070
0181C0
00C780
006E00
003800
007C00
01CE00
070300
0E0180
3800C0
E00060
C00000
ENDCHAR
STARTCHAR 00D8
ENCODING 216
SWIDTH 440 0
DWIDTH 37 0
BBX 61 78 -1 -9
BITMAP
0000000000000018
0000000000000018
0000000000000038
0000000000000070
00000000000000F0
00000000000000E0
00000000000001C0
0000000000003FC0
000000000007C7A0
00000000003C0720
0000000001E00E20
0000000007801E60
000000001E001C40
00000000780038C0
00000000E0007188
00000003C000F388
000000070000E708
0000001E0001C608
0000003C00038E18
0000007000079C10
000000E000077810
000001C0000EF030
00000380001DE020
00000700001FC020
00000E00003F8060
00001C00017E0040
00003C0003FC00C0
0000780007E00080
0000F00001C00180
0001E00003800100
0003C00007800300
0007C00007000200
000780000E000600
000F00001C000C00
001E00001C000C00
003E000038001800
003C000070003800
00780000E0007000
00780000C0006000
00F00001C000E000
01E000038001C000
01E0000700038000
03C0000600038000
03C0000E00070000
0780001C000E0000
07800038001C0000
0F000030003C0000
0F00007000780000
1E0000E000F00000
1E0001C001E00000
1C00018003C00000
3C00038007800000
3C0007000F000000
78000E001E000000
78000C003C000000
7000180078000000
70003800F0000000
F0007001E0000000
F000E007C0000000
E000C00F80000000
E001801E00000000
E003807C00000000
E00700F800000000
E00603E000000000
E00C07C000000000
E0181F0000000000
E0387C0000000000
E071F00000000000
E067C00000000000
70FE000000000000
3FE0000000000000
0380000000000000
0700000000000000
0E00000000000000
0C00000000000000
1800000000000000
3800000000000000
7000000000000000
ENDCHAR
STARTCHAR 00D9
ENCODING 217
SWIDTH 690 0
DWIDTH 58 0
BBX 80 76 0 -6
BITMAP
00000000000000600000
00000000000000780000
000000000000003C0000
000000000000001E0000
00000000000000070000
0000000000000001C000
0000000000E000006000
000000001F1C00000000
00000000F00600000000
00000003C00200000000
0000000F000200000000
0000001C000200000006
0000007800020000000F
000000F000020000001F
000003C000060000003E
0000078000060000007C
00000F00000400000078
00001E00000C000000F8
00003C00000C000001F0
000078000018000003E0
0000F0000038000007C0
0001E000003800000F80
0003C000007000001F80
00078000007000001F00
000F000000E000003E00
001E000001E000007C00
003E000001C00000F800
007C000003800001F800
0078000007800003F000
00F0000007000007E000
01E000000F00000FC000
03E000001E00001F8000
03C000003C00003F8000
078000003C00007F0000
0F800010780000BE0000
0F000020F000017C0000
1E000041F00002F80000
1E000083E00005F80000
3C000107C00009F00000
38000207800033E00000
7800040F000047C00000
7000181F00008F800000
7000203E00010F800000
E000407C00021F000000
E000807800043E000000
E00300F000087C000000
C00401F0001078000000
C01803E00020F8000000
C02007C00041F0000000
C0C00F800081E0000000
67000F000103C0000000
18001E00060780000000
00003C00080F00000000
00007C00100F00000000
0000F800201E00000000
0000F000403C00000000
0001E000803800000000
0003C001007800006000
0007800600F000008000
0007000C00E000030000
000F001001C0000C0000
001E002003C000180000
001C0040038000600000
00380180070000C00000
00700300060003000000
007004000E0006000000
00E008000C0018000000
00C03000180030000000
018040001800C0000000
01808000300380000000
01030000300600000000
03040000201800000000
02180000607000000000
03E0000041C000000000
000000006F0000000000
00000000380000000000
ENDCHAR
STARTCHAR 00DA
ENCODING 218
SWIDTH 690 0
DWIDTH 58 0
BBX 80 73 0 -5
BITMAP
00000000000000000700
00000000000000001F00
00000000000000007C00
0000000000E00001F000
000000001F1C00038000
00000000F006000C0000
00000003C00200000000
0000000F000200000000
0000001C000200000006
0000007800020000000F
000000F000020000001F
000003C000060000003E
0000078000060000007C
00000F00000400000078
00001E00000C000000F8
00003C00000C000001F0
000078000018000003E0
0000F0000038000007C0
0001E000003800000FC0
0003C000007000001F80
00078000007000001F00
000F000000E000003E00
001E000001E000007C00
003E000001C00000FC00
007C000003C00001F800
0078000007800003F000
00F0000007000007E000
01E000000F00000FC000
03E000001E00001F8000
03C000003C00003F8000
078000003C00007F0000
0F800010780000BE0000
0F000020F000017C0000
1E000041F00002F80000
1E000083E00005F80000
3C000107C00009F00000
38000207800033E00000
7800040F800047C00000
7000181F00008F800000
7000203E00010F800000
E000407C00021F000000
E000807800043E000000
E00300F000087C000000
C00401F0001078000000
C01803E00020F8000000
C02007C00041F0000000
C0C00F800081E0000000
67000F000103C0000000
18001E00020780000000
00003C000C0F00000000
00007C00100F00000000
0000F800201E00000000
0000F000403C00000000
0001E000803800000000
0003C001007800006000
0007800600F000018000
0007000C00E000030000
000F001001C0000C0000
001E002003C000180000
001C0040038000600000
00380180070000C00000
00700300060003000000
007004000E0006000000
00E008000C0018000000
00C03000180030000000
018040001800C0000000
01818000300380000000
01030000300600000000
030C0000201800000000
02180000607000000000
03E0000041C000000000
000000006F0000000000
00000000380000000000
ENDCHAR
STARTCHAR 00DB
ENCODING 219
SWIDTH 690 0
DWIDTH 58 0
BBX 80 75 0 -5
BITMAP
00000000000000000C00
00000000000000003C00
0000000000000000FE00
0000000000000003E600
00000000000000078600
0000000000E0001E0200
000000001F1C00780300
00000000F00600400100
00000003C00200000000
0000000F000200000000
0000001C000200000006
0000007800020000000F
000000F000020000001F
000003C000060000003E
0000078000060000007C
00000F00000400000078
00001E00000C000000F8
00003C00000C000001F0
000078000018000003E0
0000F0000038000007C0
0001E000003800000FC0
0003C000007000001F80
00078000007000001F00
000F000000E000003E00
001E000001E000007C00
003E000001C00000FC00
007C000003C00001F800
0078000007800003F000
00F0000007000007E000
01E000000F00000FC000
03E000001E00001F8000
03C000003C00003F8000
078000003C00007F0000
0F800010780000BE0000
0F000020F000017C0000
1E000041F00002F80000
1E000083E00005F80000
3C000107C00009F00000
38000207800033E00000
7800040F800047C00000
7000181F00008F800000
7000203E00010F800000
E000407C00021F000000
E000807800043E000000
E00300F000087C000000
C00401F0001078000000
C01803E00020F8000000
C02007C00041F0000000
C0C00F800081E0000000
67000F000103C0000000
18001E00020780000000
00003C000C0F00000000
00007C00100F00000000
0000F800201E00000000
0000F000403C00000000
0001E000803800000000
0003C001007800006000
0007800600F000018000
0007000C00E000030000
000F001001C0000C0000
001E002003C000180000
001C0040038000600000
00380180070000C00000
00700300060003000000
007004000E0006000000
00E008000C0018000000
00C03000180030000000
018040001800C0000000
01818000300380000000
01030000300600000000
030C0000201800000000
02180000607000000000
03E0000041C000000000
000000006F0000000000
00000000380000000000
ENDCHAR
STARTCHAR 00DC
ENCODING 220
SWIDTH 690 0
DWIDTH 58 0
BBX 80 75 0 -5
BITMAP
00000000000000061C00
000000000000000F3E00
000000000000001F3C00
000000000000001E7C00
000000000000001C3000
0000000000E000000000
000000001F1C00000000
00000000F00600000000
00000003C00200000000
0000000F000200000000
0000001C000200000006
0000007800020000000F
000000F000020000001F
000003C000060000003E
0000078000060000007C
00000F00000400000078
00001E00000C000000F8
00003C00000C000001F0
000078000018000003E0
0000F0000038000007C0
0001E000003800000F80
0003C000007000001F80
00078000007000001F00
000F000000E000003E00
001E000001E000007C00
003E000001C00000F800
007C000003800001F800
0078000007800003F000
00F0000007000007E000
01E000000F00000FC000
03E000001E00001F8000
03C000003C00003F8000
078000003C00007F0000
0F800010780000BE0000
0F000020F000017C0000
1E000041F00002F80000
1E000083E00005F80000
3C000107C00009F00000
38000207800033E00000
7800040F000047C00000
7000181F00008F800000
7000203E00010F800000
E000407C00021F000000
E000807800043E000000
E00300F000087C000000
C00401F0001078000000
C01803E00020F8000000
C02007C00041F0000000
C0C00F800081E0000000
67000F000103C0000000
18001E00060780000000
00003C00080F00000000
00007C00100F00000000
0000F800201E00000000
0000F000403C00000000
0001E000803800000000
0003C001007800006000
0007800600F000008000
0007000C00E000030000
000F001001C0000C0000
001E002003C000180000
001C0040038000600000
00380180070000C00000
00700300060003000000
007004000E0006000000
00E008000C0018000000
00C03000180030000000
018040001800C0000000
01808000300380000000
01030000300600000000
03040000201800000000
02180000607000000000
03E0000041C000000000
000000006F0000000000
00000000380000000000
ENDCHAR
STARTCHAR 00DD
ENCODING 221
SWIDTH 619 0
DWIDTH 52 0
BBX 95 114 -13 -41
BITMAP
0000000000000000000000E0
0000000000000000000003E0
000000000000000000000FC0
000000000000000000001E00
000000000000000000007800
000000000000000000018000
000000000000000000000000
000000000000000000000000
00000000000000001E000006
00000000000000003E00001E
00000000000000007C00003E
0000000000000000F80000FC
0000000000000001F00001F8
0000000000000003E00003F0
0000000000000007C00007E0
000000000000000F80000FC0
000000000000001F00001F80
000000000000003E00001F00
000000000000007C00003E00
00000000000000F800007C00
00000000000001F00000F800
00000000000003E00001F800
00000000000007C00001F000
0000000000000F800003E000
0000000000001F000007C000
0000000000003E00000F8000
0000000000007C00001F8000
000000000000F800001F0000
000000000003F000003E0000
000000000007E000007C0000
000000000019E00001F80000
000000000063C00003F80000
000000000187800007F00000
00000000060700001FE00000
00000000180F000033C00000
00000000E01E0000E7C00000
00000003801C00018F800000
0000003E003800070F000000
000E03F00038000C1E000000
003FFF80007000303C000000
007FF800006000607C000000
007F80000060018078000000
0000000000C00600F0000000
0000000000C01801E0000000
0000000000C06003E0000000
0000000000C38003C0000000
0000000000FC000780000000
000000000000000F00000000
000000000000001F00000000
000000000000001E00000000
000000000000003C00000000
000000000000007801800000
00000000000000F006000000
00000000000001F01C000000
00000000000001E030000000
00000000000003C0C0000000
000000000000078300000000
0000000000000F0600000000
0000000000000F1800000000
0000000000001E2000000000
0000000000003CC000000000
0000000000007B0000000000
000000000000FE0000000000
000000000000F80000000000
000000000001E00000000000
000000000003C00000000000
000000000007800000000000
000000000007800000000000
00000000000F000000000000
00000000003E000000000000
00000000007C000000000000
0000000001F8000000000000
000000000370000000000000
000000000CF0000000000000
0000000019E0000000000000
0000000033C0000000000000
00000000C780000000000000
000000018700000000000000
000000030E00000000000000
0000000C1C00000000000000
000000183C00000000000000
000000307800000000000000
000000C0F000000000000000
00000180E000000000000000
00000301C000000000000000
000006038000000000000000
00001C070000000000000000
0000380F0000000000000000
0000601E0000000000000000
0000C01C0000000000000000
000180380000000000000000
000300700000000000000000
000600E00000000000000000
000C01C00000000000000000
001803800000000000000000
003007000000000000000000
00600E000000000000000000
00C01C000000000000000000
018018000000000000000000
038030000000000000000000
070060000000000000000000
0600C0000000000000000000
0E0180000000000000000000
1C0300000000000000000000
180600000000000000000000
380C00000000000000000000
301800000000000000000000
703000000000000000000000
70E000000000000000000000
718000000000000000000000
F30000000000000000000000
FE0000000000000000000000
F80000000000000000000000
600000000000000000000000
ENDCHAR
STARTCHAR 00DE
ENCODING 222
SWIDTH 428 0
DWIDTH 36 0
BBX 71 66 0 -1
BITMAP
000000000000800000
000000000000C00000
000000000001C00000
000000000001C00000
000000000003800000
000000000003800000
000000000007800000
00000000000F000000
00000000000E0007E0
00000000001E00F83C
00000000003C07000E
00000000003C18000E
000000000078E00006
00000000007300000E
0000000000FC00000E
0000000001F000000E
0000000001E000000E
0000000003C000001C
00000000078000001C
000000000F00000038
000000001F00000078
000000007E00000070
000000009C000000F0
0000000138000001E0
0000000678000003C0
000000087000000380
00000010E000000780
00000021C000000F00
000000C1C000001E00
000001038000003C00
000002070000007800
0000040E000000F000
0000080E000001E000
0000101C000003C000
000020380000078000
0000403000000F0000
0000807000001E0000
000100E200003C0000
000200C20000780000
000401860001E00000
000C03040003C00000
0008070C0007800000
0010060C001E000000
00200C0C0038000000
0040180C00F0000000
0080300C01C0000000
0080300E0F00000000
0100600FF800000000
0200C007C000000000
060180000000000000
040100000000000000
080200000000000000
080600000000000000
100C00000000000000
100800000000000000
201000000000000000
202000000000000000
404000000000000000
408000000000000000
410000000000000000
810000000000000000
820000000000000000
840000000000000000
880000000000000000
B00000000000000000
400000000000000000
ENDCHAR
STARTCHAR 00DF
ENCODING 223
SWIDTH 297 0
DWIDTH 25 0
BBX 72 86 -22 -27
BITMAP
000000000000000007
00000000000000001F
000000000000000033
000000000000000062
0000000000000000C6
000000000000000186
000000000000000304
00000000000000060C
000000000000000C18
000000000000001810
000000000000003030
000000000000006060
00000000000000C040
000000000000018080
000000000000030100
000000000000070300
0000000000000E0600
0000000000001C0C00
000000000000381800
000000000000703000
000000000000606000
000000000000C0C000
000000000001C18000
000000000003830000
000000000007060000
00000000000E0C0000
00000000001C180000
000000000038300000
000000000030600000
000000000070C00000
0000000000E1800000
0000000001C3000000
000000000383000000
000000000706000000
00000000060C000000
000000000E1C000000
000000001C18000000
000000003838000000
000000007030000000
00000000E070000000
00000000E0E0000000
00000001C0E0000000
0000000381E0000000
0000000701C0000000
0000000E01C0000000
0000000C03C0000000
0000001C03C0000000
000000380380000000
000000700380000000
000000E00380400000
000000C00380C00000
000001CE0383000000
0000039F0784000000
000007360798000000
000006200760000000
00000C200FC0000000
00001C201F00000000
000038103C00000000
0000701FF000000000
00006007C000000000
0000E0000000000000
0001C0000000000000
000380000000000000
000300000000000000
000600000000000000
000E00000000000000
001C00000000000000
001800000000000000
003000000000000000
007000000000000000
006000000000000000
00C000000000000000
018000000000000000
038000000000000000
030000000000000000
060000000000000000
0C0000000000000000
0C0000000000000000
180000000000000000
300000000000000000
300000000000000000
600000000000000000
600000000000000000
C00000000000000000
C00000000000000000
C00000000000000000
ENDCHAR
STARTCHAR 00E0
ENCODING 224
SWIDTH 297 0
DWIDTH 25 0
BBX 28 32 0 0
BITMAP
00007000
00003C00
00001E00
00000F00
00000380
000000E0
00000030
00000000
00000000
000007F0
00007FE0
0003E1E0
000F01C0
001E0380
00780700
00F00E00
01E01E00
03C03C00
07803800
0F007000
1E00E000
3C01C000
38078000
700F8060
701F0180
E02E0300
C0CC0C00
C1181800
C6186000
CC118000
F0360000
C0380000
ENDCHAR
STARTCHAR 00E1
ENCODING 225
SWIDTH 297 0
DWIDTH 25 0
BBX 33 32 0 -1
BITMAP
0000000100
0000000780
0000001F00
0000007C00
000001E000
0000070000
0000080000
0000000000
0000000000
000007F000
00007FE000
0003E1E000
000F01C000
001E038000
0078070000
00F00E0000
01E01E0000
03C03C0000
0780380000
0F00700000
1E00E00000
3C01C00000
3807800000
700F806000
701F018000
E02E030000
C0CC0C0000
C118180000
C618600000
CC11800000
F036000000
C038000000
ENDCHAR
STARTCHAR 00E2
ENCODING 226
SWIDTH 297 0
DWIDTH 25 0
BBX 32 33 0 -1
BITMAP
00000008
0000003C
000000FC
000003FC
0000078C
00001E06
00007806
0000C003
00000000
00000000
000007F0
00007FE0
0003E1E0
000F01C0
001E0380
00780700
00F00E00
01E01E00
03C03C00
07803800
0F007000
1E00E000
3C01C000
38078000
700F8060
701F0180
E02E0300
C0CC0C00
C1181800
C6186000
CC118000
F0360000
C0380000
ENDCHAR
STARTCHAR 00E3
ENCODING 227
SWIDTH 297 0
DWIDTH 25 0
BBX 32 30 0 0
BITMAP
00001F81
00003FF6
000000FC
00000000
00000000
00000000
00000000
000007F0
00007FE0
0003E1E0
000F01C0
001E0380
00780700
00F00E00
01E01E00
03C03C00
07803800
0F007000
1E00E000
3C01C000
38078000
700F8060
701F0180
E02E0300
C0CC0C00
C1181800
C6186000
CC118000
F0360000
C0380000
ENDCHAR
STARTCHAR 00E4
ENCODING 228
SWIDTH 297 0
DWIDTH 25 0
BBX 31 31 0 -1
BITMAP
00000304
0000079E
00000F1E
00001F3E
00001E3C
00000000
00000000
00000000
000007F0
00007FE0
0003E1E0
000F01C0
001E0380
00780700
00F00E00
01E01E00
03C03C00
07803800
0F007000
1E00E000
3C01C000
38078000
700F8060
701F0180
E02E0300
C0CC0C00
C1181800
C6186000
CC118000
F0360000
C0380000
ENDCHAR
STARTCHAR 00E5
ENCODING 229
SWIDTH 297 0
DWIDTH 25 0
BBX 31 33 0 0
BITMAP
0000003C
00000044
00000186
00000186
0000030C
00000308
00000310
00000360
00000180
00000000
000007F0
00007FE0
0003E1E0
000F01C0
001E0380
00780700
00F00E00
01E01E00
03C03C00
07803800
0F007000
1E00E000
3C01C000
38078000
700F8060
701F0180
E02E0300
C0CC0C00
C1181800
C6186000
CC118000
F0360000
C0380000
ENDCHAR
STARTCHAR 00E6
ENCODING 230
SWIDTH 369 0
DWIDTH 31 0
BBX 37 23 0 -1
BITMAP
000003F078
00007FF3B8
0001E0EC38
000781F878
001E03F0F0
007C07C1E0
00F00783C0
01E00F0700
03C01E0E00
07803C3800
0F00786000
1E00F1C000
1C01F30000
3803FC0040
7807E000C0
701B800300
6033800600
E0C7001800
C187002000
C20600C000
CC06070000
F006180000
4003E00000
ENDCHAR
STARTCHAR 00E7
ENCODING 231
SWIDTH 202 0
DWIDTH 17 0
BBX 28 33 -5 -9
BITMAP
000001F0
00000F10
00003C30
00007860
0001E060
0003C1C0
00078780
000F0F00
001E0E00
003C0000
00780000
00F00000
00E00000
01C00080
03C00100
03800600
03000800
07003000
0600C000
06030000
060C0000
06300000
07C00000
02000000
02000000
07800000
00E00000
00600000
00400000
00C00000
01000000
C6000000
38000000
ENDCHAR
STARTCHAR 00E8
ENCODING 232
SWIDTH 214 0
DWIDTH 18 0
BBX 25 32 0 0
BITMAP
0001C000
0001E000
0000F000
00003800
00000E00
00000700
00000080
00000000
00000000
00000F00
00003700
0001C700
00070E00
000E1E00
00383C00
00707000
01E0E000
03C3C000
07870000
0F0C0000
1E300000
1CC00000
3F000800
7C001800
70006000
7000C000
E0030000
C00C0000
C0300000
C0E00000
C3000000
7C000000
ENDCHAR
STARTCHAR 00E9
ENCODING 233
SWIDTH 214 0
DWIDTH 18 0
BBX 30 32 0 -1
BITMAP
0000000C
0000003C
000000FC
000001F0
00000780
00001C00
00000000
00000000
00000000
00000F00
00003700
0001C700
00070E00
000E1E00
00383C00
00707000
01E0E000
03C3C000
07870000
0F0C0000
1E300000
1CC00000
3F000800
7C001800
70006000
7000C000
E0030000
C00C0000
C0300000
C0E00000
C3000000
7C000000
ENDCHAR
STARTCHAR 00EA
ENCODING 234
SWIDTH 214 0
DWIDTH 18 0
BBX 28 32 0 0
BITMAP
000000C0
000003C0
00000FC0
00003E60
00007860
0001E020
00070030
00080010
00000000
00000F00
00003700
0001C700
00070E00
000E1E00
00383C00
00707000
01E0E000
03C3C000
07870000
0F0C0000
1E300000
1CC00000
3F000800
7C001800
70006000
7000C000
E0030000
C00C0000
C0300000
C0E00000
C3000000
7C000000
ENDCHAR
STARTCHAR 00EB
ENCODING 235
SWIDTH 214 0
DWIDTH 18 0
BBX 29 30 0 0
BITMAP
00003C78
00003CF8
00007CF0
000078E0
00000000
00000000
00000000
00000F00
00003700
0001C700
00070E00
000E1E00
00383C00
00707000
01E0E000
03C3C000
07870000
0F0C0000
1E300000
1CC00000
3F000800
7C001800
70006000
7000C000
E0030000
C00C0000
C0300000
C0E00000
C3000000
7C000000
ENDCHAR
STARTCHAR 00EC
ENCODING 236
SWIDTH 142 0
DWIDTH 12 0
BBX 22 32 -2 0
BITMAP
001E00
000F00
000780
0001C0
000070
000018
000004
000000
000000
0001E0
0001E0
0003C0
000780
000F00
001E00
003C00
007800
00F000
00E000
01C000
03C000
078000
0F0080
0E0180
1C0600
380C00
383000
704000
618000
C60000
D80000
E00000
ENDCHAR
STARTCHAR 00ED
ENCODING 237
SWIDTH 142 0
DWIDTH 12 0
BBX 28 32 -2 0
BITMAP
00000070
000001F0
000007E0
00000F00
00003800
0000C000
00000000
00000000
00000000
0001E000
0001E000
0003C000
00078000
000F0000
001E0000
003C0000
00780000
00F00000
00E00000
01C00000
03C00000
07800000
0F008000
0E018000
1C060000
380C0000
30300000
70400000
61800000
C6000000
D8000000
E0000000
ENDCHAR
STARTCHAR 00EE
ENCODING 238
SWIDTH 142 0
DWIDTH 12 0
BBX 26 33 -2 0
BITMAP
00000700
00000F00
00003F00
0000FB00
0003E100
00078180
001C0080
003000C0
00000000
00000000
0001E000
0001E000
0003C000
00078000
000F0000
001E0000
003C0000
00780000
00F00000
00E00000
01C00000
03C00000
07800000
0F008000
0E018000
1C060000
380C0000
30300000
70400000
61800000
C6000000
D8000000
E0000000
ENDCHAR
STARTCHAR 00EF
ENCODING 239
SWIDTH 142 0
DWIDTH 12 0
BBX 26 31 -2 0
BITMAP
0000E1C0
0001F3C0
0001E7C0
0001C780
00000200
00000000
00000000
00000000
0001E000
0001E000
0003C000
00078000
000F0000
001E0000
003C0000
00780000
00F00000
00E00000
01C00000
03C00000
07800000
0F008000
0E018000
1C060000
380C0000
38300000
70400000
61800000
C6000000
D8000000
E0000000
ENDCHAR
STARTCHAR 00F0
ENCODING 240
SWIDTH 333 0
DWIDTH 28 0
BBX 59 56 0 -1
BITMAP
00000000000000E0
00000000000001C0
00000000000003C0
0000000000000780
0000000000000F00
0000000000001E00
0000000000001C00
0000000000003800
0000000000007000
000000000000F000
000000000001E000
000000000003C000
0000000000038000
0000000000070000
00000000000E0000
00000000001C0000
0000000000380000
0000000000780000
0000000000F00000
0000000000E00000
0000000001C00000
00000001FFF80000
00000001FFFF0000
000000000E000000
000000001C000000
000000003C000000
0000000078000000
0000000070000000
00000000E0000000
00000001C0000000
0000000380000000
0000000700000000
0000000E00000000
0000001E00000000
000003FC00000000
00001C3800000000
0000F07000000000
0003C0E000000000
000F80C000000000
003E01C000000000
007C038000000000
01F0070000000000
03E00E0000000000
07C01C0000000000
0F80380000000000
1F00F80000000000
1E01F00200000000
3C02E00600000000
780CC01800000000
7011803000000000
602180C000000000
E0C3018000000000
C106060000000000
C606180000000000
F804600000000000
C007800000000000
ENDCHAR
STARTCHAR 00F1
ENCODING 241
SWIDTH 333 0
DWIDTH 28 0
BBX 36 28 -3 0
BITMAP
000001FC10
0000037F60
0000000FC0
0000000000
0000000000
0000000000
00001000C0
00003801C0
00003006C0
00006009C0
0000E03380
0001C04780
0003818F00
000F021E00
001E043C00
003E187C00
00FC20F800
01F8C1F000
067103E000
00E6078180
01C80F0200
03D01E0C00
07E01C3000
0F80386000
1F00718000
3C00620000
78004C0000
F000700000
ENDCHAR
STARTCHAR 00F2
ENCODING 242
SWIDTH 226 0
DWIDTH 19 0
BBX 25 30 -1 1
BITMAP
00038000
0001E000
0000F000
00003800
00000E00
00000300
00000080
00000000
00000000
0000FC00
0003CC00
000F1400
001E2400
007C4C00
00F0CC00
01E09800
03C13800
07813000
0F026000
1E02E000
1C03C100
3C078600
38071800
700FE000
701C0000
60700000
60E00000
E3800000
6E000000
70000000
ENDCHAR
STARTCHAR 00F3
ENCODING 243
SWIDTH 226 0
DWIDTH 19 0
BBX 32 30 -1 1
BITMAP
00000007
0000001F
0000007C
000001F0
00000780
00001C00
00000000
00000000
00000000
0000FC00
0003CC00
000F1400
001E2400
007C4C00
00F0CC00
01E09800
03C13800
07813000
0F026000
1E02E000
1E03C100
3C078600
38071800
700FE000
701C0000
60700000
60E00000
E3800000
6E000000
78000000
ENDCHAR
STARTCHAR 00F4
ENCODING 244
SWIDTH 226 0
DWIDTH 19 0
BBX 28 31 -1 0
BITMAP
00000180
000003C0
00000FC0
00003EC0
0000F8C0
0001E060
00070020
000C0030
00000000
00000000
0000FC00
0003CC00
000F1400
001E2400
007C4C00
00F0CC00
01E09800
03C13800
07813000
0F026000
1E02E000
1E03C100
3C078600
38071800
700FE000
701C0000
60700000
60E00000
E3800000
6E000000
78000000
ENDCHAR
STARTCHAR 00F5
ENCODING 245
SWIDTH 226 0
DWIDTH 19 0
BBX 28 28 -1 1
BITMAP
0001F810
0003FE60
00001FC0
00000000
00000000
00000000
00000000
0000FC00
0003CC00
000F1400
001E2400
007C4C00
00F0CC00
01E09800
03C13800
07813000
0F026000
1E02E000
1E03C100
3C078600
38071800
700FE000
701C0000
60700000
60E00000
E3800000
6E000000
78000000
ENDCHAR
STARTCHAR 00F6
ENCODING 246
SWIDTH 226 0
DWIDTH 19 0
BBX 29 29 -1 1
BITMAP
00001870
00003CF8
00007CF0
000079F0
000070C0
00000000
00000000
00000000
0000FC00
0003CC00
000F1400
001E2400
007C4C00
00F0CC00
01E09800
03C13800
07813000
0F026000
1E02E000
1C03C100
3C078600
38071800
700FE000
701C0000
60700000
60E00000
E3800000
6E000000
70000000
ENDCHAR
STARTCHAR 00F7
ENCODING 247
SWIDTH 404 0
DWIDTH 34 0
BBX 23 21 9 9
BITMAP
000300
000780
000F80
000F00
000E00
000000
000000
000000
000000
0007FE
FFFFFE
000000
000000
000000
000000
000000
000000
038000
07C000
078000
070000
ENDCHAR
STARTCHAR 00F8
ENCODING 248
SWIDTH 226 0
DWIDTH 19 0
BBX 25 33 -2 -5
BITMAP
00000180
00000180
00000300
00000600
00000600
00000C00
00001800
00007E00
0001F600
0007EA00
000F5200
001EE600
0079E600
00F34C00
01E29C00
03C69800
078D3000
0F197000
0F11E080
1E33C300
1C638C00
38C7F000
389E0000
31380000
33700000
77C00000
3F000000
38000000
10000000
20000000
60000000
C0000000
80000000
ENDCHAR
STARTCHAR 00F9
ENCODING 249
SWIDTH 345 0
DWIDTH 29 0
BBX 32 32 2 0
BITMAP
00007000
00007800
00003C00
00000E00
00000380
000000C0
00000020
00000000
00000000
00000000
0001000F
0003801E
0007003C
000F0078
001E00F0
003C01E0
007803C0
00F80780
03F00F00
07E01F00
1BC07E00
3780FC00
CF017804
1E06F00C
1C08E030
3831C040
78418180
71838600
E2030800
CC063000
F006C000
C00F0000
ENDCHAR
STARTCHAR 00FA
ENCODING 250
SWIDTH 345 0
DWIDTH 29 0
BBX 35 31 2 0
BITMAP
00000000E0
00000003E0
0000000F80
0000003E00
000000F000
0000038000
0000000000
0000000000
0000000000
0001000F00
0003801E00
0007003C00
000F007800
001E00F000
003C01E000
007803C000
00F8078000
03F00F0000
07E01F0000
1BC07E0000
3780FC0000
CF01780400
1E06F00C00
1C08E03000
3831C04000
7841818000
7183860000
E203080000
CC06300000
F006C00000
C00F000000
ENDCHAR
STARTCHAR 00FB
ENCODING 251
SWIDTH 345 0
DWIDTH 29 0
BBX 32 33 2 0
BITMAP
0000000C
0000003C
000000FC
000001E4
00000786
00001E06
00007802
0000C001
00000000
00000000
00000000
0001000F
0003801E
0007003C
000F0078
001E00F0
003C01E0
007803C0
00F80780
03F00F00
07E01F00
1BC07E00
3780FC00
CF017804
1E06F00C
1C08E030
3831C040
78418180
71838600
E2030800
CC063000
F006C000
C00F0000
ENDCHAR
STARTCHAR 00FC
ENCODING 252
SWIDTH 345 0
DWIDTH 29 0
BBX 32 31 2 -1
BITMAP
00000306
0000078E
00000F9E
00000F3E
00000E3C
00000000
00000000
00000000
00000000
0001000F
0003801E
0007003C
000F0078
001E00F0
003C01E0
007803C0
00F80780
03F00F00
07E01F00
1BC07E00
3780FC00
CF017804
1E06F00C
1C08E030
3831C040
78418180
71838600
E2030800
CC063000
F006C000
C00F0000
ENDCHAR
STARTCHAR 00FD
ENCODING 253
SWIDTH 345 0
DWIDTH 29 0
BBX 51 61 -16 -30
BITMAP
000000000000E0
000000000003E0
00000000000F80
00000000003E00
0000000000F000
00000000038000
00000000000000
00000000000100
00000000C00780
00000000E00F00
00000001C01E00
00000003C03C00
00000007807800
0000000F00F800
0000001E00F000
0000007E01E000
000000FC03C000
000003F80F8000
000006F01F0000
000009E03F0000
000033C05E0100
000007819C0600
00000702380C00
00000E04703000
00001E18F06000
00001C61E18000
00003883C60000
00003307980000
00003C07E00000
0000300F800000
0000001F000000
0000003C000000
00000078000000
000000F0000000
000003F0000000
000005E0000000
00000BC0000000
00003780000000
00004F00000000
00008E00000000
00011E00000000
00063C00000000
000C7800000000
0010F000000000
0021E000000000
0041C000000000
00838000000000
01070000000000
020E0000000000
041C0000000000
0C380000000000
18780000000000
10700000000000
30E00000000000
61C00000000000
63800000000000
C6000000000000
CC000000000000
D8000000000000
F0000000000000
E0000000000000
ENDCHAR
STARTCHAR 00FE
ENCODING 254
SWIDTH 309 0
DWIDTH 26 0
BBX 65 73 -25 -23
BITMAP
000000000000000780
000000000000000700
000000000000000E00
000000000000001C00
000000000000003800
000000000000007800
00000000000000F000
00000000000001E000
00000000000001C000
000000000000038000
000000000000070000
0000000000000E0000
0000000000001E0000
0000000000003C0000
000000000000780000
000000000000700000
000000000000E00000
000000000001C00000
000000000003800000
000000000007800000
00000000000F000000
00000000001E000000
00000000001C000000
000000000038000000
000000000070000000
0000000000E0000000
0000000001E0000000
0000000003C0000000
000000000780780000
000000000701D80000
000000000E03180000
000000001C0C380000
000000003830700000
000000007060E00000
00000000F181E00000
00000001E303C00000
00000003CC07800000
00000003980F000000
00000007601E000000
0000000EC03C000000
0000001F8078040000
0000003F00F00C0000
0000007C00E0300000
000000F801C0600000
000000F00381800000
000001E00702000000
000003C00E0C000000
000007801C70000000
00000F001D80000000
00001E001E00000000
00003C000000000000
000038000000000000
000070000000000000
0000E0000000000000
0001E0000000000000
0003C0000000000000
000780000000000000
000F00000000000000
000E00000000000000
001C00000000000000
003800000000000000
007800000000000000
00F000000000000000
01E000000000000000
03C000000000000000
078000000000000000
070000000000000000
0E0000000000000000
1E0000000000000000
3C0000000000000000
780000000000000000
F00000000000000000
E00000000000000000
ENDCHAR
STARTCHAR 00FF
ENCODING 255
SWIDTH 345 0
DWIDTH 29 0
BBX 49 61 -16 -31
BITMAP
00000000018300
0000000003CF80
0000000007CF00
00000000079F00
00000000070C00
00000000000000
00000000000000
00000000000100
00000000C00780
00000000E00F00
00000001C01E00
00000003C03C00
00000007807800
0000000F007800
0000001E00F000
0000007E01E000
000000FC03C000
000003F80F8000
000006F01F0000
000009E03F0000
000033C05E0100
000007819C0600
00000702380C00
00000E04703000
00001E18F06000
00001C61E18000
00003883C60000
00003307980000
00003C07E00000
0000300F800000
0000001F000000
0000003C000000
00000078000000
000000F0000000
000003F0000000
000005E0000000
00000BC0000000
00003780000000
00004F00000000
00008E00000000
00011E00000000
00063C00000000
000C7800000000
0010F000000000
0021E000000000
0041C000000000
00838000000000
01070000000000
020E0000000000
041C0000000000
0C380000000000
18780000000000
10700000000000
30E00000000000
61C00000000000
63800000000000
C6000000000000
CC000000000000
D8000000000000
F0000000000000
E0000000000000
ENDCHAR
STARTCHAR 0131
ENCODING 305
SWIDTH 142 0
DWIDTH 12 0
BBX 19 23 -2 0
BITMAP
0001E0
0001E0
0003C0
000780
000F00
001E00
003C00
007800
00F000
00E000
01C000
03C000
078000
0F0080
0E0180
1C0600
380C00
303000
704000
618000
C60000
D80000
E00000
ENDCHAR
STARTCHAR 0141
ENCODING 321
SWIDTH 619 0
DWIDTH 52 0
BBX 69 79 -2 -18
BITMAP
000000000000000010
000000000000000078
0000000000000001C8
000000000000000388
000000000000000708
000000000000000E08
000000000000001C18
000000000000003818
000000000000007010
00000000000000E030
00000000000001C030
00000000000003C030
000000000000078060
0000000000000F0060
0000000000001E0040
0000000000001C00C0
0000000000003C00C0
000000000000780180
000000000000F00180
000000000001E00100
000000000001C00300
000000000003C20200
000000000007860600
00000000000F0C0400
00000000001E0C0C00
00000000001E180800
00000000003C181800
000000000078301000
0000000000F0303000
0000000000F0202000
0000000001E0606000
0000000003C0604000
000000000780608000
000000000780C18000
000000000F00C10000
000000001E00C20000
000000003C00C40000
000000003C00C80000
000000007800F00000
00000000F000600000
000007FFFF80000000
000007FFFFE0000000
00000003C000000000
000000078000000000
000000070000000000
0000000E0000000000
0000001E0000000000
0000003C0000000000
000000380000000000
002000700000000000
006000F00000000000
00E000E00000000000
01F001C00000000000
017003800000000000
037807000000000000
023807000000000000
063C0E000000000000
0C1E1C000000000000
0C0F38000000000000
0807B8000000020000
1803F00000001C0000
1001F8000001E00000
3000FE00003E000000
3001BFFFFFE0000000
300307FFFE00000000
600700100000000000
600600000000000000
600C00000000000000
E01800000000000000
E03000000000000000
E06000000000000000
E04000000000000000
E0C000000000000000
E18000000000000000
E30000000000000000
E60000000000000000
FC0000000000000000
F80000000000000000
E00000000000000000
ENDCHAR
STARTCHAR 0142
ENCODING 322
SWIDTH 178 0
DWIDTH 15 0
BBX 54 57 -3 -1
BITMAP
00000000000008
0000000000007C
00000000000198
00000000000318
00000000000E30
00000000001C20
00000000003860
0000000000E0C0
0000000001C180
00000000038300
00000000070600
000000000E0C00
000000001C0C00
00000000381800
00000000F03000
00000001E06000
00000003C0C000
00000007818000
0000000F030000
0000001E060000
0000003C0C0000
00000078180000
000000F0300000
000001E0600000
000003C0C00000
00000781800000
00000707000000
00000E0C000000
00001C18000000
00003C30000000
00007860000000
0000F0C0000000
0001E180000000
0003C300000000
00038600000000
00070C00000000
000E1800000000
001E2000000000
003C4000000000
00398000000000
00730000000000
00E60000000000
00E80000000000
01D00000000000
03A00000000000
7FC00000000000
FFFC0000000000
7FF80800000000
0C001000000000
1C006000000000
18008000000000
10030000000000
300C0000000000
30300000000000
20C00000000000
23000000000000
3C000000000000
ENDCHAR
STARTCHAR 0152
ENCODING 338
SWIDTH 666 0
DWIDTH 56 0
BBX 89 69 -1 -4
BITMAP
000000000000000000007F00
0000000000000000000F8080
000000000000000000FC0080
0000000000003FC003E00180
000000000007C0200F000380
00000000003C00203C000700
0000000001E00020F8000E00
0000000007800063E0001C00
000000001E00004F80003C00
00000000780000DF00007000
00000000E00001BC0000E000
00000003C00003F80003C000
00000007000007F000078000
0000001E000007C0001F0000
0000003C00000F80063C0000
0000007800001F000CF80000
000000F000007E001FE00000
000001C00000FC001F800000
000003800001F8001E000000
000007000003F00000000000
00000E00000FE00000000000
00001E00011FC00000000000
00003C0003FF800000000000
0000780007EF800000000000
0000F000000F000000000000
0001E000001E000000000000
0003C000001E000000000000
0003C000003C000020000000
000780000038000060000000
000F000000780001C0000000
001E00000070000300000000
001E00000070000C00000000
003C00000070003800000000
00780000007000E000000000
00780000003003C000000000
00F0000000187F0000000000
01E0000000039E0000000000
01E000000000780000000000
03C000000000F00000000000
03C000000003E00000000000
078000000007C00000000000
07800000000F800000000000
0F000000003F000000000000
0F000000007C000000000000
1E00000000F8000000000000
1E00000001F8000000000000
3E00000003F0000000000000
3C00000007E0000000000000
3C0000000FC0000000000000
780000001F80000000000000
780000003F00000000000000
780000007E00000000000000
70000001FE000000C0000000
F0000003FC00000300000000
F0000007F800000600000000
E000000FF000001800000000
E000003EF000002000000000
E000007DE00000C000000000
E00001F9E000010000000000
E00003E1C000060000000000
E00007C1C0001C0000000000
E0001F038000300000000000
E0007C038000C00000000000
E001F0038003800000000000
6007C003800E000000000000
701F00018038000000000000
1FF8000180E0000000000000
00000000FF80000000000000
000000007C00000000000000
ENDCHAR
STARTCHAR 0153
ENCODING 339
SWIDTH 369 0
DWIDTH 31 0
BBX 38 23 -1 -1
BITMAP
0000000038
00000001DC
0000FC063C
0003CC1C38
000F147070
001E24E0E0
007C6FC1C0
00F0CF8780
01E09F0E00
03C1BE1C00
07813C7000
0F0178C000
1E01F30000
1E01EC0020
3C03F000C0
3807C00180
700F800600
703F800C00
6073003000
60E300C000
E383030000
6E021C0000
7803E00000
ENDCHAR
STARTCHAR 0160
ENCODING 352
SWIDTH 559 0
DWIDTH 47 0
BBX 87 78 -18 -7
BITMAP
0000000000000000010000
000000000000000000801E
000000000000000000C078
00000000000000000041E0
0000000000000000006F80
0000000000000000007F00
0000000000000000007C00
0000000000000000007000
0000000000000000000000
0000000000000000000000
0000000000000000000800
0000000000000000001800
0000000000000000003800
0000000000000000007800
000000000000000000F000
000000000000000001F000
000000000000000003F000
000000000000000007F000
00000000000000000FF000
00000000000000000DE000
000000000000000019E000
000000000000000033E000
000000000000000063E000
0000000000000000C3E000
000000000000000183C000
000000000000000303C000
000000000000000607C000
000000000000000C078000
0000000000000018078000
0000000000000030078000
00000000000000600F8000
00000000000000C00F0000
00000000000001800F0000
00000000000003001F0000
00000000000006001E0000
0000000000000C001E0000
00000000000018003E0000
00000000000010003C0000
00000000000020003C0000
00000000000040007C0000
0000000000008000780000
0000000000010000780000
0000000000020000F80000
0000000000040000F00000
0000000000080000F00000
0000000000100001F00000
0000000000200001E00000
0000000000C00001E00000
0000000001800003C00000
0000000003000003C00000
0000000006000007C00000
000000000C000007800000
0000000018000007800000
000000003080000F000000
000000006180000F000000
000000008300001F000000
000000030300001E000000
000000060300003E000000
0000000C0700003C000000
000000180600003C000000
0000003006000078000000
000000C006000070000000
00000180060000F0000000
00000300060000E0000000
00000C00060001E0000000
00001800060003C0000000
0000300006000380000000
0000C00006000780000000
0001800006000F00000000
0006000006000E00000000
000C000003001C00000000
0030000003003800000000
0060000003007000000000
018000000180E000000000
0600000000C18000000000
0C000000007E0000000000
3000000000000000000000
C000000000000000000000
ENDCHAR
STARTCHAR 0161
ENCODING 353
SWIDTH 261 0
DWIDTH 22 0
BBX 37 35 0 0
BITMAP
0000060038
00000300E0
0000030780
0000019F00
000001FC00
000001F000
000001C000
0000000000
0000000000
0000004000
000000C000
0000038000
0000070000
00000E0000
00001C0000
0000780000
0001B80000
0006700000
000CF00000
0030E00000
00C1E00000
0181C00000
0603C00000
0803800000
3007808000
0007030000
1C07040000
7C0F180000
5C0E600000
C01EC00000
C01F000000
C03C000000
60F8000000
3FE0000000
1E00000000
ENDCHAR
STARTCHAR 0178
ENCODING 376
SWIDTH 761 0
DWIDTH 64 0
BBX 95 113 0 -41
BITMAP
000000000000000000038700
000000000000000000078F00
0000000000000000000F9F00
0000000000000000000F1E00
000000000000000000060800
000000000000000000000000
000000000000000000000000
00000000000000001E00000C
00000000000000003C00001E
00000000000000007C00007C
0000000000000000F80000FC
0000000000000001F00001F8
0000000000000007E00003F0
000000000000000FC00007E0
000000000000001F80000FC0
000000000000001F00001F80
000000000000003E00003F00
000000000000007C00003E00
00000000000000F800007C00
00000000000001F00000F800
00000000000003E00001F000
00000000000007C00003F000
0000000000000F800003E000
0000000000001F000007C000
0000000000003E00000F8000
0000000000007C00001F0000
000000000001F800001F0000
000000000003F000003E0000
00000000000DE00000FC0000
00000000003BC00001F80000
000000000063C00003F00000
00000000018780000FF00000
00000000060F00001BE00000
00000000380E000037C00000
00000000E01E0000C7800000
00000007801C00018F000000
0000003C003800061F000000
000E03F00038000C1E000000
003FFF80007000303C000000
007FF800006000C078000000
007F800000E00180F8000000
0000000000C00600F0000000
0000000000C01801E0000000
0000000000C06003C0000000
0000000000838007C0000000
0000000000FC000780000000
000000000000000F00000000
000000000000001E00000000
000000000000003E00000000
000000000000003C00000000
000000000000007801800000
00000000000000F006000000
00000000000001E018000000
00000000000003E070000000
00000000000003C0C0000000
000000000000078300000000
0000000000000F0400000000
0000000000001E1800000000
0000000000001E6000000000
0000000000003C8000000000
0000000000007B0000000000
000000000000F40000000000
000000000001F80000000000
000000000001E00000000000
000000000003C00000000000
000000000007800000000000
00000000000F000000000000
00000000001E000000000000
00000000003E000000000000
0000000000FC000000000000
0000000001F8000000000000
0000000002F0000000000000
000000000CE0000000000000
0000000019C0000000000000
0000000063C0000000000000
00000000C780000000000000
000000018F00000000000000
000000061E00000000000000
0000000C1C00000000000000
000000183800000000000000
000000607800000000000000
000000C0F000000000000000
00000181E000000000000000
00000303C000000000000000
00000E038000000000000000
000018070000000000000000
0000300E0000000000000000
0000601C0000000000000000
0000C03C0000000000000000
000180780000000000000000
000700700000000000000000
000E00E00000000000000000
001C01C00000000000000000
003803800000000000000000
007007000000000000000000
00600E000000000000000000
00C01C000000000000000000
018038000000000000000000
030070000000000000000000
070060000000000000000000
0E00C0000000000000000000
0C0180000000000000000000
1C0300000000000000000000
180600000000000000000000
380C00000000000000000000
701800000000000000000000
707000000000000000000000
70C000000000000000000000
E18000000000000000000000
E70000000000000000000000
FE0000000000000000000000
F80000000000000000000000
400000000000000000000000
ENDCHAR
STARTCHAR 017D
ENCODING 381
SWIDTH 690 0
DWIDTH 58 0
BBX 74 77 0 -11
BITMAP
00000000000002000000
00000000000001003C00
0000000000000180F000
0000000000000183C000
00000000000000DF0000
00000000000000FC0000
00000000000000F80000
00000000000000E00000
00000000000000000000
000000003FE000000380
00000001FFF8000007C0
0000000700FC00000F80
0000000C007E00003F00
00000038001F80007E00
00000060000FC001FC00
000000C00007F007F800
000001802001FE7DF000
0000030040007FE3E000
0000070040000707C000
00000600800000078000
00000C018000000F0000
00001C010000001E0000
000018020000003C0000
00003804000000780000
00003008000000F00000
00007010000001E00000
00006020000003C00000
000060C0000007800000
0000E18000000F000000
0000F60000001E000000
0000780000003C000000
00000000000078000000
000000000000F0000000
000000000001E0000000
000000000003C0000000
00000000000780000000
00000000000F00000000
00000000001E00000000
00000000003C00000000
00000000007800000000
0000000000F000000000
0000000001E000000000
0000000003C000000000
00000000078000000000
000000000F0000000000
000000001E0000000000
000000003C0000000000
00000000780000000000
00000000F00000000000
00000001E00000000000
00000003C00000000000
08000007800000000000
0800000F000000000000
1800001E000000000000
1C00003C000000006000
3C000078000000018000
3C0000F0000000060000
7E0001E00000000C0000
5E0003C0000000300000
4F000700000000400000
4F000E00000001800000
47801C00000006000000
C3C03800000018000000
C1E07000000070000000
C1F0E0000001C0000000
C0F9C000000700000000
C07F8000003C00000000
C01F000001E000000000
C00FE0000F8000000000
C01FFF03FC0000000000
C038FFFFC00000000000
C06007F8000000000000
E0C00000000000000000
61800000000000000000
63000000000000000000
76000000000000000000
38000000000000000000
ENDCHAR
STARTCHAR 017E
ENCODING 382
SWIDTH 333 0
DWIDTH 28 0
BBX 59 63 -20 -30
BITMAP
00000000001800E0
00000000000C0380
00000000000C1E00
0000000000067C00
000000000007F000
000000000007C000
0000000000070000
0000000000000000
0000000000000000
0000000000000000
00000000000F0000
00000000003F0000
0000000000E38000
0000000001078000
0000000006070000
00000000180F0000
00000000201E0000
00000000C03E0000
00000003007C0000
0000000400F80000
0000001801F00000
0000006007E00000
000000C00F800000
000003001E002000
000000007C004000
00000000F0018000
00000001C0060000
00000007800C0000
0000000FF0300000
0000003E18C00000
000000F019800000
000001801E000000
0000020038000000
0000000038000000
00000000F0000000
00000003F0000000
00000005E0000000
00000019E0000000
00000063C0000000
0000008780000000
0000030F00000000
0000061F00000000
0000183E00000000
0000307C00000000
0000C0F800000000
000181F000000000
000303E000000000
000E07C000000000
00180F0000000000
00301E0000000000
00603C0000000000
00C0780000000000
0180F00000000000
0301C00000000000
0607800000000000
0C0F000000000000
181C000000000000
3038000000000000
20E0000000000000
41C0000000000000
C700000000000000
DC00000000000000
F000000000000000
ENDCHAR
STARTCHAR 02C6
ENCODING 710
SWIDTH 500 0
DWIDTH 42 0
BBX 16 8 10 26
BITMAP
000C
003C
00FC
03EC
0F84
1E06
7002
C001
ENDCHAR
STARTCHAR 02C7
ENCODING 711
SWIDTH 500 0
DWIDTH 42 0
BBX 16 8 10 26
BITMAP
8007
401C
60F0
63E0
6F80
3E00
3800
2000
ENDCHAR
STARTCHAR 02D8
ENCODING 728
SWIDTH 202 0
DWIDTH 17 0
BBX 14 7 19 26
BITMAP
8004
8008
8030
C0E0
E380
7F00
7C00
ENDCHAR
STARTCHAR 02D9
ENCODING 729
SWIDTH 297 0
DWIDTH 25 0
BBX 5 4 26 27
BITMAP
38
78
F8
F0
ENDCHAR
STARTCHAR 02DA
ENCODING 730
SWIDTH 142 0
DWIDTH 12 0
BBX 9 9 2 25
BITMAP
0F00
1980
3180
6180
4180
C300
C600
5C00
2000
ENDCHAR
STARTCHAR 02DB
ENCODING 731
SWIDTH 226 0
DWIDTH 19 0
BBX 8 7 0 -6
BITMAP
30
20
40
C1
C2
FC
F0
ENDCHAR
STARTCHAR 02DC
ENCODING 732
SWIDTH 500 0
DWIDTH 42 0
BBX 13 3 16 27
BITMAP
7C08
FFB8
07E0
ENDCHAR
STARTCHAR 02DD
ENCODING 733
SWIDTH 357 0
DWIDTH 30 0
BBX 21 7 10 25
BITMAP
001008
00F078
03F0F8
07C3E0
1E0F00
703800
804000
ENDCHAR
STARTCHAR 2013
ENCODING 8211
SWIDTH 416 0
DWIDTH 35 0
BBX 20 3 9 9
BITMAP
0000F0
FFFFF0
7FE000
ENDCHAR
STARTCHAR 2014
ENCODING 8212
SWIDTH 666 0
DWIDTH 56 0
BBX 41 3 9 9
BITMAP
00000000FF80
7FFFFFFFFF80
FFFFFC000000
ENDCHAR
STARTCHAR 2018
ENCODING 8216
SWIDTH 238 0
DWIDTH 20 0
BBX 9 11 18 35
BITMAP
0180
0600
1800
3000
6000
6000
7800
F800
F800
F000
6000
ENDCHAR
STARTCHAR 2019
ENCODING 8217
SWIDTH 285 0
DWIDTH 24 0
BBX 9 11 17 35
BITMAP
0300
0700
0F80
0F00
0F00
0300
0200
0400
1800
7000
8000
ENDCHAR
STARTCHAR 201A
ENCODING 8218
SWIDTH 142 0
DWIDTH 12 0
BBX 9 10 -1 -6
BITMAP
0700
0F80
0F80
0F00
0700
0300
0600
0C00
3000
E000
ENDCHAR
STARTCHAR 201C
ENCODING 8220
SWIDTH 321 0
DWIDTH 27 0
BBX 16 11 18 35
BITMAP
0183
060C
1830
3060
60C0
60C0
79F0
F9F0
F9F0
F1E0
6080
ENDCHAR
STARTCHAR 201D
ENCODING 8221
SWIDTH 357 0
DWIDTH 30 0
BBX 15 11 17 35
BITMAP
030E
071E
0F9E
0F3E
0F1E
0306
020C
0418
1830
70C0
8100
ENDCHAR
STARTCHAR 201E
ENCODING 8222
SWIDTH 226 0
DWIDTH 19 0
BBX 15 10 -1 -6
BITMAP
070E
0F9E
0F9E
0F1E
070E
0304
060C
0C18
3060
E180
ENDCHAR
STARTCHAR 2020
ENCODING 8224
SWIDTH 404 0
DWIDTH 34 0
BBX 25 36 7 -5
BITMAP
00002000
00007000
00006000
0000E000
0000C000
0001C000
00018000
00038000
00030000
0007FF80
3FFFFF80
000C0000
000C0000
00180000
00180000
00300000
00300000
00600000
00600000
00C00000
00C00000
01800000
01000000
03000000
02000000
06000000
04000000
0C000000
08000000
18000000
10000000
30000000
20000000
40000000
40000000
80000000
ENDCHAR
STARTCHAR 2022
ENCODING 8226
SWIDTH 345 0
DWIDTH 29 0
BBX 11 10 13 5
BITMAP
0780
0FC0
3FC0
7FE0
7FC0
FFC0
FF80
FF00
FE00
7C00
ENDCHAR
STARTCHAR 2026
ENCODING 8230
SWIDTH 285 0
DWIDTH 24 0
BBX 17 4 3 0
BITMAP
70E380
F9E780
F3E780
E3CF00
ENDCHAR
STARTCHAR 2030
ENCODING 8240
SWIDTH 761 0
DWIDTH 64 0
BBX 63 49 3 -2
BITMAP
0000000002000000
00003C0006000000
0001C20006000000
000706000C000000
000C05001C000000
00180D0018000000
0070190030000000
00E0310070000000
00C16100E0000000
01C3C300C0000000
0380020180000000
0700020380000000
0600060700000000
0E00040600000000
0C000C0C00000000
1C000C1C00000000
1800183800000000
3800383000000000
3000306000000000
300060E000000000
7000C1C003000018
6001C1803C8001E4
60038300C0800604
6007060381001C0A
600E0E070140381A
601C1C0E02407032
6030181C0640E022
20C030380C41C0C2
1F00607070438386
0000C0E040C70204
0001C0E0008E0004
000181C0008E000C
00030380019C0008
0006038001180018
000C070003380018
0018070006300030
0030060006700030
00600E000C600060
00E00C001C6000C0
00C00C0018E001C0
0180180030C00180
0300180060C00300
06001800C0C00600
0C00180180C00C00
1800180300C03800
3000180E00C07000
700008180041C000
E00007E0007E0000
C000000000000000
ENDCHAR
STARTCHAR 2039
ENCODING 8249
SWIDTH 380 0
DWIDTH 32 0
BBX 18 11 8 4
BITMAP
0003C0
01FC00
7E0000
C00000
700000
3C0000
0F0000
03C000
00F000
001C00
000700
ENDCHAR
STARTCHAR 203A
ENCODING 8250
SWIDTH 380 0
DWIDTH 32 0
BBX 17 11 9 5
BITMAP
300000
1E0000
078000
01E000
007800
001E00
000780
000180
000700
03F800
FC0000
ENDCHAR
STARTCHAR 2044
ENCODING 8260
SWIDTH 309 0
DWIDTH 26 0
BBX 39 49 -4 -2
BITMAP
0000000006
0000000006
000000000C
000000001C
0000000018
0000000030
0000000060
00000000E0
00000000C0
0000000180
0000000380
0000000300
0000000600
0000000C00
0000001C00
0000001800
0000003000
0000006000
000000E000
000001C000
0000018000
0000030000
0000060000
00000E0000
00000C0000
0000180000
0000300000
0000600000
0000E00000
0001C00000
0001800000
0003000000
0006000000
000C000000
0018000000
0030000000
0030000000
0060000000
00C0000000
0180000000
0300000000
0600000000
0C00000000
1800000000
3800000000
3000000000
6000000000
C000000000
8000000000
ENDCHAR
STARTCHAR 2074
ENCODING 8308
SWIDTH 285 0
DWIDTH 24 0
BBX 28 31 4 12
BITMAP
00000800
00001800
00003870
00003060
000070E0
000061C0
0000C1C0
00018380
00038300
00030700
00060600
000C0E00
00180C00
00301800
00703800
00603000
00C07000
01806000
0FF0E1C0
361EC240
4C078480
9803E100
E0037E00
00060000
00060000
000C0000
00080000
00100000
00300000
00200000
00400000
ENDCHAR
STARTCHAR 20AC
ENCODING 8364
SWIDTH 476 0
DWIDTH 40 0
BBX 52 46 2 -3
BITMAP
00000000007FC0
000000001F8070
00000000F80010
00000007C00010
0000001E000030
00000078000060
000001F00000C0
000003C0000380
00000F00000F00
00001E00103C00
00003C0030F000
0000F000E3E000
0001E000FF8000
0003C001FC0000
00078000000000
000F0000000000
001E0000000000
003C0000000000
00780000000000
1FFFFF00000000
1FFFFE00000000
01E00000000000
01C00000000000
7FFF0000000000
FFFFFC00000000
07000000000000
0F000000000000
0E000000000000
1C000000000000
1C000000000000
38000000000000
38000000000000
38000000000000
70000000000000
70000000000000
70000000000000
70000000000000
60000006000000
6000000C000000
60000030000000
600000C0000000
70000300000000
70000C00000000
38007000000000
1C078000000000
0FFC0000000000
ENDCHAR
STARTCHAR 2122
ENCODING 8482
SWIDTH 761 0
DWIDTH 64 0
BBX 59 35 12 19
BITMAP
000000003E000020
00000000C20000E0
0000006302000140
01C001A6020002C0
0670024806000480
081C049004000900
120F09300C181300
2403DE6018282600
480070C010504C00
5000418030A09800
6000C10063613800
00018302C4C23000
00030204C88C6000
000606099190C000
000C041323218000
0018042646430000
003004C68E870000
0070050D0D0E0000
00E0021A1A0C0000
00C0003C34180000
0180007078300000
030000E0F0600000
070000C0E0E00000
0E000181C0C00000
0C00030301800000
1800060603000000
3800040C06000000
7000000006000000
600000000C000000
E000000018000000
E000000018000000
C000000030000000
0000000022000000
000000002C000000
0000000030000000
ENDCHAR
STARTCHAR 2212
ENCODING 8722
SWIDTH 404 0
DWIDTH 34 0
BBX 23 2 9 20
BITMAP
0007FE
FFFFFE
ENDCHAR
STARTCHAR 2264
ENCODING 8804
SWIDTH 345 0
DWIDTH 29 0
BBX 27 18 2 9
BITMAP
000003E0
00003F00
0007C000
00F80000
03000000
02000000
01C00000
00780000
001F0000
0003C000
00007800
00001F00
00000380
00000000
00000000
00000000
00FFFE00
FFFFFC00
ENDCHAR
STARTCHAR 2265
ENCODING 8805
SWIDTH 345 0
DWIDTH 29 0
BBX 27 18 2 9
BITMAP
00700000
003C0000
000F0000
0003C000
00007000
00001C00
00000700
000000C0
00000060
000001C0
0003FE00
03FF0000
0F000000
00000000
00000000
00000000
00FFFE00
FFFFFC00
ENDCHAR
STARTCHAR F8FF
ENCODING 63743
SWIDTH 797 0
DWIDTH 67 0
BBX 67 80 0 -12
BITMAP
000007F000FC000000
000003F801F8000000
000001F803F0000000
0000007C07E0000000
0000003E0FC0000000
0000001F1F80000000
0000000FBE00000000
00000007FC00000000
00000003F800000000
000000000000000000
000000000000000000
000000000000000000
000000000000000000
0000001FFF80000000
000001FFFFF0000000
00000FFFFFFE000000
00003FFFFFFF800000
0000FFFFFFFFE00000
0001FFC0007FF00000
0007FE00000FFC0000
000FF8000003FE0000
001FE0000000FF0000
003F800000003F8000
007F000000001FC000
00FE0003F0000FE000
01FC003FFF0007F000
03F800FFFFC003F800
03F001FFFFF001F800
07E003FFFFFC00FC00
0FC007FC03FC007E00
0F800FF0007C003E00
1F800FE0001C003F00
1F000FC00008001F00
3F001F800000001F80
3E001F800000000F80
3E001F800000000F80
7C000FC000000007C0
7C000FC000000007C0
7C000FE000000007C0
7C0007F000000003C0
F80007FC00000003E0
F80003FE00000003E0
F80001FFC0000003E0
F80000FFF0000003E0
F800003FFC000003E0
F800001FFF000003E0
F8000007FFC00003E0
F8000001FFF00003E0
F80000007FF80003E0
F80000001FFC0003E0
F800000007FE0003E0
F800000003FE0003E0
7800000000FF0003E0
7C000000007F0007C0
7C000000003F0007C0
7C000000003F8007C0
7E000000003F8007C0
3E000000001F800F80
3E000000003F800F80
1F001000003F001F80
1F001C00003F001F00
1F801F0000FF003F00
0FC01FC001FE007E00
07C01FFE3FFC007C00
07E01FFFFFF800FC00
03F007FFFFF001F800
01F800FFFFC003F000
01FC001FFE0007F000
00FE000000000FE000
007F000000001FC000
003FC00000007F8000
001FE0000000FF0000
000FF8000003FE0000
0003FF00001FF80000
0001FFF001FFF00000
00007FFFFFFFC00000
00001FFFFFFF000000
000007FFFFFC000000
000000FFFFE0000000
00000007FC00000000
ENDCHAR
STARTCHAR FB01
ENCODING 64257
SWIDTH 345 0
DWIDTH 29 0
BBX 72 86 -22 -26
BITMAP
000000000000000007
00000000000000001B
000000000000000033
000000000000000066
0000000000000000C6
00000000000000018C
00000000000000030C
000000000000000618
000000000000000C30
000000000000001830
000000000000003060
0000000000000060C0
00000000000000C180
000000000000018300
000000000000030300
000000000000070600
0000000000000E0C00
0000000000001C1800
000000000000383000
000000000000706000
00000000000060C000
000000000000C18000
000000000001C30000
000000000003860000
0000000000070C0000
00000000000E180000
00000000001C300600
000000000038601F00
000000000038C01E00
000000000071803E00
0000000000E3001C00
0000000001C4000000
000000000388000000
000000000710000000
000000000720000000
000000000EC0000000
000000001D800F0000
000000003B001F0000
0000000074003E0000
00000000F8007C0000
00000000F000780000
00000001E000F00000
000000038001E00000
000000070003C00000
0000000E0007800000
0000000E000F000000
0000001C000E000000
00000038001C000000
00000070003C000000
000000E00078040000
000000F801F0080000
000001E803E0300000
000003C80DC0400000
000007481381800000
000006986386000000
00000E99870C000000
00001CB20630000000
000038BC06C0000000
000070E00700000000
000060600000000000
0000E0C00000000000
0001C1C00000000000
000381800000000000
000303000000000000
000703000000000000
000E06000000000000
001C0E000000000000
00180C000000000000
003018000000000000
007038000000000000
006030000000000000
00C060000000000000
0180C0000000000000
0381C0000000000000
030180000000000000
060300000000000000
0C0600000000000000
0C0C00000000000000
181800000000000000
303000000000000000
306000000000000000
60C000000000000000
418000000000000000
C30000000000000000
DC0000000000000000
F00000000000000000
ENDCHAR
STARTCHAR FB02
ENCODING 64258
SWIDTH 380 0
DWIDTH 32 0
BBX 89 86 -22 -26
BITMAP
000000000000000007000000
00000000000000001B000000
000000000000000033000180
000000000000000066000780
0000000000000000C6001980
00000000000000018C003180
00000000000000030C00E300
000000000000000618018600
000000000000000C30030400
0000000000000018300E0C00
0000000000000030601C1800
0000000000000060C0383000
00000000000000C180706000
000000000000018300E0C000
000000000000030303C18000
000000000000070607830000
0000000000000E0C0F060000
0000000000001C181E0C0000
00000000000038303C1C0000
000000000000706078380000
00000000000060C0F0300000
000000000000C181E0E00000
000000000001C303C1C00000
000000000003860783000000
0000000000070C0F06000000
00000000000E181E0C000000
00000000001C303C18000000
000000000038607830000000
000000000038C0F060000000
00000000007181E0C0000000
0000000000E301C180000000
0000000001C4038300000000
000000000388070600000000
0000000007100E0C00000000
0000000007201E1800000000
000000000EC03C3000000000
000000001D80786000000000
000000003B0070C000000000
000000007400E10000000000
00000000F801C20000000000
00000000F003CC0000000000
00000001E007980000000000
000000038007300000000000
00000007000E600000000000
0000000E001C800000000000
0000000E001D000000000000
0000001C003E000000000000
000000380078000000000000
000000700070000000000000
000000E000E0008000000000
000000F801C0030000000000
000001E80380060000000000
000003C80D80180000000000
000007481300300000000000
000006986300C00000000000
00000E998203000000000000
00001CB2020C000000000000
000038BC0270000000000000
000070E003C0000000000000
000060600000000000000000
0000E0C00000000000000000
0001C1C00000000000000000
000381800000000000000000
000303000000000000000000
000703000000000000000000
000E06000000000000000000
001C0E000000000000000000
00180C000000000000000000
003018000000000000000000
007038000000000000000000
006030000000000000000000
00C060000000000000000000
0180C0000000000000000000
0381C0000000000000000000
030180000000000000000000
060300000000000000000000
0C0600000000000000000000
0C0C00000000000000000000
181800000000000000000000
303000000000000000000000
306000000000000000000000
60C000000000000000000000
418000000000000000000000
C30000000000000000000000
DC0000000000000000000000
F00000000000000000000000
ENDCHAR
ENDFONT
